<?xml version="1.0" standalone="no"?>
<!DOCTYPE svg PUBLIC "-//W3C//DTD SVG 1.1//EN" "http://www.w3.org/Graphics/SVG/1.1/DTD/svg11.dtd" >
<svg xmlns="http://www.w3.org/2000/svg" xmlns:xlink="http://www.w3.org/1999/xlink" version="1.1">
<metadata>
Created by FontForge 20190801 at Fri Aug 28 23:10:58 2020
 By www-data
Copyright (c) 2017 by Jacob Thomas. All rights reserved.
</metadata>
<defs>
<font id="ShurjoWeb_300" horiz-adv-x="0" >
  <font-face 
    font-family="ShurjoWeb_300"
    font-weight="300"
    font-stretch="normal"
    units-per-em="2048"
    panose-1="0 0 0 0 0 0 0 0 0 0"
    ascent="1638"
    descent="-410"
    x-height="959"
    cap-height="1319"
    bbox="-1184 -841 2399 1885"
    underline-thickness="102"
    underline-position="-205"
    unicode-range="U+0020-FB02"
  />
<missing-glyph horiz-adv-x="757" 
 />
    <glyph glyph-name="fi" unicode="fi" horiz-adv-x="1081" 
d="M-13 901l58 60h117q8 159 46 265.5t92.5 174t117 101t118.5 45.5q10 2 20 3t20 1q41 0 80 -13.5t74 -34t64 -45.5t48 -48q1 -10 2.5 -20t4.5 -19q-20 -42 -43.5 -71.5t-49.5 -49.5q-5 -1 -14 -1h-20q-131 172 -239 172q-36 0 -64 -17q-20 -12 -38 -43t-31.5 -84.5
t-21 -131.5t-7.5 -184h334q66 0 135 3t118 15q2 -4 4 -6.5t4 -4.5l7 -8q8 -8 20 -24q-4 -11 -7 -53t-4.5 -100t-2.5 -125t-1 -128q0 -85 1 -163.5t2 -144.5q1 -39 4 -67.5t16 -48t40.5 -32t76.5 -19.5v-56q-38 1 -76 1.5t-76 0.5q-64 0 -132.5 -1.5t-150.5 -3.5v54
q51 10 78.5 20.5t41 28t16 45t2.5 71.5v139q0 168 1 259t1 123q0 49 -12 76t-32.5 40t-46.5 16.5t-54 4.5h-40q-29 0 -67.5 -0.5t-86.5 -0.5h-113q0 -103 -0.5 -206t-0.5 -191v-156q0 -67 1 -97q1 -39 5 -67.5t23 -48t59.5 -32t113.5 -19.5v-56q-57 1 -106.5 1.5t-94.5 0.5
q-76 0 -146 -1.5t-152 -3.5v54q51 10 78.5 20.5t41 28t16 45t2.5 71.5v654q-38 -2 -75.5 -3.5t-75.5 -1.5z" />
    <glyph glyph-name="fl" unicode="fl" horiz-adv-x="1091" 
d="M45 961h117q8 158 46 264t92.5 173t117 101.5t118.5 47.5q24 6 48 6q57 0 112.5 -24.5t93.5 -55.5q65 20 129 45q10 -12 16 -18t19 -25q-3 -7 -5 -33t-3.5 -62.5t-3 -80t-2 -87.5t-1 -84.5t-0.5 -69.5q-1 -28 -1.5 -94.5t-1 -152.5t-0.5 -180v-409q1 -39 4 -67.5
t15.5 -48t39.5 -32t77 -19.5v-56q-38 1 -75.5 1.5t-75.5 0.5q-64 0 -132.5 -1.5t-150.5 -3.5v54q51 10 79 20.5t41.5 28t16 45t2.5 71.5v678q0 168 1 259t1 123v17q-34 37 -71.5 62t-74 40.5t-70.5 22.5t-63 7q-56 0 -81 -20q-19 -15 -36.5 -46t-31 -84t-22 -130t-8.5 -183
h250l12 -10q5 -5 12 -10.5t15 -12.5q-36 -48 -83 -86q-16 7 -40.5 11.5t-51.5 6.5t-52 3t-41 1h-21q0 -102 -0.5 -204t-0.5 -189v-153q0 -66 1 -96q1 -39 5 -67.5t23 -48t59.5 -32t113.5 -19.5v-56q-57 1 -106.5 1.5t-94.5 0.5q-76 0 -146 -1.5t-152 -3.5v54
q51 10 78.5 20.5t41 28t16 45t2.5 71.5v649h-151l-23 37z" />
    <glyph glyph-name=".notdef" horiz-adv-x="757" 
 />
    <glyph glyph-name=".null" horiz-adv-x="757" 
 />
    <glyph glyph-name="uni000D" horiz-adv-x="1631" 
 />
    <glyph glyph-name="space" unicode=" " horiz-adv-x="514" 
 />
    <glyph glyph-name="exclam" unicode="!" horiz-adv-x="831" 
d="M427 1303q55 45 97.5 67t69.5 35q30 -24 51 -45q-3 -34 -7.5 -93t-9.5 -132.5t-11 -156t-12 -163.5q-7 -96 -15 -197.5t-16 -212.5q-20 -16 -35.5 -22t-24.5 -10q-11 6 -20.5 14t-14.5 12q-1 33 -5 107t-9.5 167.5l-11.5 195.5t-11.5 191.5t-9.5 155.5t-5 87zM535 231
q54 0 91 -37t37 -91q0 -26 -10 -49t-27.5 -40.5t-40.5 -27.5t-50 -10q-26 0 -49.5 10t-41 27.5t-27.5 40.5t-10 49q0 27 10 50t27.5 40.5t41 27.5t49.5 10z" />
    <glyph glyph-name="quotedbl" unicode="&#x22;" horiz-adv-x="670" 
d="M161 1355q24 18 53 32.5t78 31.5q5 -4 9 -7.5t8 -6.5q5 -5 6 -8q-7 -107 -17 -213.5t-24 -212.5q-8 -5 -18 -9t-18 -7q-9 -4 -20 -7l-15 10q-3 29 -7 77t-9 103.5t-11.5 112.5t-14.5 104zM588 1419q5 -4 9 -7.5t8 -6.5q5 -5 6 -8q-7 -107 -17 -213.5t-24 -212.5
q-8 -5 -18 -9t-18 -7q-9 -4 -20 -7l-15 10q-3 29 -7 77t-9 103.5t-11.5 112.5t-14.5 104q24 18 53.5 32.5t77.5 31.5z" />
    <glyph glyph-name="numbersign" unicode="#" horiz-adv-x="1002" 
d="M20 453q14 20 30 40t33 37h126q27 0 59 1q14 64 29.5 129t29.5 128q-22 -1 -41 -1h-157l-24 29q7 12 18 25q9 11 19.5 23.5t21.5 25.5h127q27 0 59 1l68 301q14 9 28 15.5t25 11.5l24 10l19 -25q-5 -21 -10.5 -43.5t-10.5 -47.5q-10 -42 -23 -99t-28 -123l220 2l69 298
q14 9 27 16t24 12q6 2 12 5t11 5l19 -25q-10 -38 -21 -89q-10 -42 -22.5 -98.5t-27.5 -122.5q45 0 83 0.5t66 0.5h32q14 0 27 1l22 -23q-14 -20 -29.5 -40t-31.5 -39q-26 -1 -76 -1t-116 -1l-59 -257q45 0 83 0.5t66 0.5h32q14 0 28 1l22 -24q-14 -21 -30.5 -41t-33.5 -37
l-190 -3l-81 -350q-39 -24 -76 -40l-19 26q5 24 11 50.5t13 55.5q11 51 26.5 116.5t32.5 141.5l-219 -3l-80 -347q-17 -11 -36 -21t-38 -18l-20 26q11 48 24 105q11 49 26 114t32 140q-22 -1 -42 -1h-160zM360 531l219 3q15 66 30 129.5t29 127.5q-54 -1 -109.5 -1.5
t-109.5 -0.5q-14 -63 -29.5 -127.5t-29.5 -130.5z" />
    <glyph glyph-name="dollar" unicode="$" horiz-adv-x="1018" 
d="M127 127q2 84 9 153.5t13 107.5q34 0 64 -10q4 -34 22.5 -73t47.5 -75.5t67.5 -66t83.5 -45.5l16 432q-76 39 -132.5 77t-93.5 81.5t-55 94.5t-18 115q0 72 29.5 127t76 93.5t103.5 59.5t112 26q2 60 3.5 106t3.5 75q34 29 68 49l28 -26l-8 -208q70 -8 139 -31t129 -61
l11 -30q-10 -49 -23.5 -96t-28.5 -95q-23 2 -36.5 3.5t-24.5 4.5q-9 87 -52.5 146t-116.5 78l-14 -408q2 -1 4.5 -2t5.5 -2q113 -53 180.5 -98t103 -89t47 -90.5t12.5 -103.5v-5q0 -73 -32 -131t-85.5 -100t-121.5 -66t-139 -30l-5 -189q-14 -11 -26.5 -20t-21.5 -15
q-9 -7 -20 -12l-29 26l7 210q-82 6 -157 24t-122 47q-10 11 -14 20.5t-10 21.5zM458 781l11 363q-34 -5 -63 -19.5t-50.5 -36t-33.5 -50t-12 -61.5q0 -51 35 -99.5t113 -96.5zM528 104q34 2 67.5 14.5t61 33.5t45 49t19.5 62v2q0 60 -49.5 120.5t-131.5 114.5z" />
    <glyph glyph-name="percent" unicode="%" horiz-adv-x="1591" 
d="M664 540q54 81 108 162.5t105 157.5l97 146q69 103 118.5 177t69.5 104q23 5 46.5 7.5t46.5 2.5l29 -60q-115 -171 -219.5 -325.5t-200.5 -296.5l-162 -240q-81 -120 -150 -221.5t-119 -176t-69 -103.5q-25 -5 -44.5 -7.5t-33.5 -3.5q-6 -1 -11 -1h-18l-13 48
q230 344 420 630zM359 1270q40 13 85 13q44 0 86 -13t78 -36.5t64.5 -57.5t46.5 -76q20 -53 20 -111q0 -6 -1 -40.5t-25.5 -92.5t-71 -104.5t-113.5 -69.5q-54 -18 -107 -18q-46 0 -88 14.5t-76.5 42.5t-60 69t-38.5 94q-9 36 -9 73q0 22 5.5 63.5t32.5 95.5t71 95.5
t101 58.5zM300 917q23 -75 73 -118.5t112 -43.5h10q5 0 10 1q31 11 53.5 37.5t34.5 62t12 76.5q0 2 -0.5 25t-15.5 68t-36.5 77t-46 52.5t-50 30.5t-48.5 10q-16 0 -28 -4q-25 -14 -46 -41.5t-33.5 -64.5t-13.5 -60.5t-1 -27.5q0 -39 14 -80zM1082 603q40 13 85 13
q44 0 86.5 -13t79 -36.5t65 -57.5t45.5 -76q20 -54 20 -113q0 -5 -1 -40t-25 -93.5t-70 -105t-114 -68.5q-54 -18 -105 -18q-95 0 -167 57.5t-98 163.5q-10 36 -10 74q0 21 5.5 62t32 95.5t70.5 96.5t101 59zM1025 249q22 -72 70.5 -117.5t111.5 -45.5q6 0 11.5 0.5
t11.5 1.5q30 11 52 37t34 62.5t12.5 59t0.5 24.5q0 42 -14 86q-15 45 -37 78t-47 54.5t-51.5 31.5t-49.5 10q-16 0 -27 -4q-26 -15 -46.5 -43.5t-32 -65.5t-12 -60t-0.5 -26q0 -41 13 -83z" />
    <glyph glyph-name="ampersand" unicode="&#x26;" horiz-adv-x="1343" 
d="M361 758q-45 82 -65 152.5t-20 136.5q0 18 1 36q5 71 34.5 128.5t76 98.5t107.5 63t130 22h14q6 0 12 -1q49 -2 92.5 -21t76.5 -51t52.5 -75.5t19.5 -94.5q0 -69 -31 -129.5t-80 -111.5t-109 -92.5t-118 -71.5q79 -121 172 -231.5t195 -212.5q36 55 55.5 114.5
t19.5 117.5v11q-1 36 -11 66.5t-29 53.5t-47 36t-64 13q-16 0 -34 -3q-16 12 -22 19t-14 18q26 34 45 57t47 27q4 1 12 1h75q32 0 68 -0.5t70 -0.5t61.5 -0.5t41.5 -0.5q46 0 92 6q8 -8 13 -15t10 -12l9 -12l-106 -107q-96 30 -195 30q16 -13 32.5 -37.5t29 -57.5t19 -68.5
t6.5 -68.5v-18q-3 -70 -29.5 -132.5t-71.5 -116.5q71 -65 148 -124q37 -29 75 -36t67 -9l1 -53q-69 -26 -116.5 -38.5t-80.5 -12.5q-25 0 -43 7t-69 43t-118 96q-51 -36 -105 -64t-107.5 -47.5t-102.5 -29.5t-90 -10q-85 1 -161 32.5t-133 85t-90 124.5t-33 152v6
q0 65 23 125t65 113.5t100.5 98t126.5 76.5zM400 1074q6 -42 32.5 -105.5t74.5 -145.5q48 24 91.5 54t77 67t54 82t22.5 100v6q0 36 -12.5 68t-35 56.5t-53 39.5t-65.5 18q-5 1 -10 1h-10q-51 0 -89 -26q-40 -26 -60.5 -70t-20.5 -93q0 -24 4 -52zM792 168
q-57 57 -112.5 121.5t-103.5 136.5q-46 67 -88 127.5t-79 120.5q-40 -24 -75.5 -51.5t-62 -61t-42.5 -73.5t-17 -88v-14q0 -64 25.5 -119t72.5 -96.5t109.5 -63.5t129.5 -22q66 0 127.5 22.5t115.5 60.5z" />
    <glyph glyph-name="quotesingle" unicode="'" horiz-adv-x="484" 
d="M169 1355q24 18 53 32.5t77 31.5q5 -4 10 -7.5t8 -6.5q5 -5 6 -8q-14 -216 -42 -426q-8 -5 -18 -9t-18 -7q-9 -4 -20 -7l-15 10q-3 29 -7 77t-9 103.5t-11 112.5t-14 104z" />
    <glyph glyph-name="parenleft" unicode="(" horiz-adv-x="672" 
d="M546 1509q11 -13 20 -26t18 -27q-80 -92 -139.5 -183.5t-98.5 -196t-58 -227.5t-19 -278q0 -157 19.5 -281t59 -228t99 -194.5t138.5 -180.5q-9 -14 -18 -27.5t-20 -26.5q-112 93 -192 193.5t-132 215t-78 245.5t-31 285q-1 27 -1 54q0 151 31.5 284t92 246.5
t141.5 199.5t168 153z" />
    <glyph glyph-name="parenright" unicode=")" horiz-adv-x="672" 
d="M403 570q0 156 -19 279t-58 227.5t-97.5 196t-137.5 183.5q6 10 12.5 19.5t12.5 17.5q3 5 6 9t7 8q86 -67 166 -153t140 -199.5t91 -247t31 -283.5q0 -27 -1 -55q-5 -155 -30.5 -286t-76.5 -245.5t-130 -215t-191 -194.5q-11 11 -21 26t-17 28q78 90 137 181t98 195
t58.5 228t19.5 281z" />
    <glyph glyph-name="asterisk" unicode="*" horiz-adv-x="958" 
d="M73 1025q26 11 53 21.5t54 21.5q46 19 99.5 42.5t99.5 46.5q-75 36 -151 70t-154 64l17 105l61 32q130 -107 268 -197q-3 51 -8.5 108t-11.5 105.5t-11 81t-6 35.5l101 38l57 -39q-4 -28 -7.5 -56t-7.5 -57q-6 -49 -12 -106t-8 -108q70 44 136 93.5t131 100.5l83 -68
l-4 -70q-78 -29 -154 -61.5t-150 -70.5q74 -38 150 -72t154 -63l-19 -104l-61 -32q-66 52 -131.5 101t-134.5 96q4 -82 12.5 -164.5t19.5 -163.5l-96 -39l-59 39q4 28 8 56.5t8 57.5q6 49 12.5 107t8.5 109q-69 -45 -136 -94.5t-132 -100.5l-83 66z" />
    <glyph glyph-name="plus" unicode="+" horiz-adv-x="1042" 
d="M85 523q12 22 26 43.5t30 41.5h51q48 0 117 1t147 1q0 77 1 144.5t1 113.5v50q20 15 42 28.5t45 26.5l35 -25q-1 -23 -1 -48v-54q-1 -48 -1 -108.5t-1 -126.5q69 1 132.5 1.5t112.5 1.5q29 1 55.5 1t52.5 1l25 -35q-12 -23 -25.5 -44.5t-29.5 -41.5q-20 0 -53 -0.5
t-75.5 -1.5t-92.5 -1.5t-103 -0.5q0 -51 -0.5 -99.5t-1 -89.5t-1 -73t-0.5 -51q-15 -12 -30.5 -21.5t-27.5 -17.5q-16 -10 -28 -15l-35 23v51q0 25 1 53q0 48 0.5 109.5t1.5 128.5q-35 -1 -67 -1h-228q-26 0 -51 -1z" />
    <glyph glyph-name="comma" unicode="," horiz-adv-x="704" 
d="M190 -216q72 63 100 116t28 104q0 8 -1 17q-4 43 -31.5 74.5t-70.5 48.5v45q9 14 25.5 27.5t35 24t38.5 17.5t36 7q78 -36 104.5 -88t26.5 -102q0 -30 -8 -65q-8 -40 -29.5 -78.5t-53 -74.5t-70.5 -68t-83 -59z" />
    <glyph glyph-name="hyphen" unicode="-" horiz-adv-x="803" 
d="M109 564q12 24 26.5 48t31.5 45h62q34 0 73 0.5t80 1.5t80 2q46 1 92.5 2t95.5 2l30 -41q-4 -8 -9 -16l-10 -16q-9 -14 -20.5 -30t-22.5 -31h-62q-35 0 -74 -0.5t-79.5 -1.5t-79.5 -2q-46 -1 -92.5 -2t-94.5 -2z" />
    <glyph glyph-name="period" unicode="." horiz-adv-x="704" 
d="M295 231q26 0 49.5 -10t41 -27.5t27.5 -40.5t10 -50q0 -26 -10 -49t-27.5 -40.5t-41 -27.5t-49.5 -10t-49.5 10t-41 27.5t-27.5 40.5t-10 49q0 27 10 50t27.5 40.5t41 27.5t49.5 10z" />
    <glyph glyph-name="slash" unicode="/" horiz-adv-x="722" 
d="M238 519q48 143 96.5 285.5t89.5 262.5t70.5 208.5t41.5 123.5q23 11 46 19.5t47 15.5l38 -43q-70 -203 -134 -387t-122 -352q-33 -95 -66 -190.5t-64 -185.5t-59 -170.5t-50.5 -146.5t-39 -113.5t-24.5 -70.5q-11 -5 -21.5 -9.5t-19.5 -8.5l-30 -13q-13 -4 -25 -9
l-25 45q69 203 131.5 387t119.5 352z" />
    <glyph glyph-name="zero" unicode="0" horiz-adv-x="1148" 
d="M185 611q0 135 27 252.5t79 204.5t128 137t174 50t174 -50t128.5 -137t80 -204t27.5 -251q0 -133 -29.5 -250.5t-83.5 -204.5t-129 -137.5t-166 -50.5q-99 0 -175.5 49.5t-129 136t-79 201.5t-26.5 244v10zM601 49q64 0 109.5 43.5t73.5 120.5t38 169.5t10 180.5
q0 31 -1 63q-1 38 -3.5 94t-11 117.5t-24 122.5t-42 110t-67 79.5t-97.5 30.5q-66 -1 -109 -53t-68 -133t-34.5 -180.5t-9.5 -197.5q0 -109 13.5 -211.5t42 -181.5t73.5 -126.5t107 -47.5z" />
    <glyph glyph-name="one" unicode="1" horiz-adv-x="992" 
d="M177 1134q109 23 216 55.5t210 75.5l35 -48q-1 -125 -2 -238t-2 -218q-1 -67 -1.5 -133.5t-1 -127.5t-0.5 -114v-171q0 -40 6 -65t27.5 -40t63.5 -24.5t115 -19.5v-72q-91 5 -177.5 6.5t-171.5 1.5q-135 0 -269 -3v69q75 7 122 17t73.5 26.5t36 42.5t9.5 65v269
q0 63 0.5 126t0.5 123v247q0 54 -11.5 76.5t-34.5 29.5q-8 4 -24 4q-26 0 -74.5 -10.5t-133.5 -33.5l-12 11v73z" />
    <glyph glyph-name="two" unicode="2" horiz-adv-x="1092" 
d="M680 894q-3 83 -21 133t-45 77t-60 35.5t-66 8.5q-32 0 -67 -12t-64.5 -37.5t-50 -64.5t-24.5 -92q-22 -16 -57.5 -32.5t-64.5 -20.5q-8 7 -19.5 19.5t-23.5 36.5q52 120 134.5 192.5t217.5 106.5q40 10 82 10q54 0 101.5 -16.5t85 -46t63 -68.5t35.5 -84q10 -50 10 -100
q0 -2 -0.5 -29t-17 -83.5t-52.5 -121t-97 -144.5q-85 -111 -175.5 -216t-184.5 -208h361q43 0 72 7.5t50.5 25.5t38.5 48t36 75q9 -2 20.5 -4t22.5 -4l24 -4q-33 -137 -57 -278l-15 -15q-120 5 -243 7.5t-232 2.5q-85 0 -155 -1.5t-121 -5.5q-4 9 -7.5 20.5t-6.5 22.5
q-5 12 -6 25q44 46 104.5 109t125.5 136t128.5 152.5t113 157t78.5 147.5t29 126v7z" />
    <glyph glyph-name="three" unicode="3" horiz-adv-x="1040" 
d="M119 61q0 17 6.5 40t17 43.5t24 35t27.5 14.5q10 0 18 -7q66 -53 123 -74.5t108 -21.5q48 0 90.5 16t79.5 39q29 25 53 55.5t39 68.5t17.5 66t2.5 40q0 36 -9 76q-10 45 -38 75.5t-67.5 49t-87 26.5t-95.5 8q-44 0 -85 -6l-10 14l-18 70q8 4 17.5 7.5t20.5 7.5
q19 7 45 14t59 15q52 27 93.5 63t68.5 76.5t35.5 73.5t8.5 55q0 19 -4 37q-6 25 -23.5 47t-41.5 38t-52 25t-55 9q-10 0 -15 -1q-29 -2 -52 -15.5t-40.5 -35t-29 -49t-17.5 -56.5q-25 -13 -61 -24.5t-67 -16.5q-11 10 -17 18.5t-17 27.5q30 57 70.5 104t89.5 81t106 52.5
t119 18.5t109.5 -16t81.5 -44.5t53.5 -67t25.5 -83.5q3 -20 3 -39q0 -26 -6.5 -58.5t-32.5 -71t-71 -75.5t-113 -75v-14q45 -4 95 -21t93 -49.5t71 -81t28 -114.5q-1 -128 -76 -235t-238 -186q-63 -32 -116.5 -45t-100.5 -13q-71 0 -129 25.5t-114 63.5z" />
    <glyph glyph-name="four" unicode="4" horiz-adv-x="1071" 
d="M75 425l540 771l101 58l40 -37v-748h164l9 -12l6 -8l4 -7l6 -8q-20 -26 -36 -47t-31 -38h-122v-146q0 -39 4 -64t19 -40.5t45.5 -23.5t83.5 -12v-64q-84 2 -166 3.5t-163 1.5q-48 0 -95.5 -1t-94.5 -3v68q53 4 92 11.5t65 23.5t39 43t13 69v134h-509zM598 469v509l-15 9
l-358 -518h373z" />
    <glyph glyph-name="five" unicode="5" horiz-adv-x="1071" 
d="M206 190q78 -54 144 -75.5t120 -21.5q63 0 111 21t83 47q24 29 46 71t29.5 82t7.5 70q0 24 -5.5 64.5t-39.5 97.5q-38 65 -99 91t-128 26q-60 0 -118 -15.5t-102 -36.5l-47 32l84 614h274q38 0 69.5 0.5t53.5 0.5h97q37 0 65 7q23 -18 41 -47q-11 -16 -32 -44.5
t-61 -79.5h-224q-34 0 -67.5 0.5t-63.5 0.5h-54q-5 -51 -17 -135t-30 -196q47 14 96 22t99 8q48 0 95 -9t90 -28.5t80 -51t66 -77.5q41 -65 46.5 -110.5t5.5 -66.5q0 -50 -17.5 -110t-65.5 -128t-119 -128q-74 -60 -157 -85.5t-164 -25.5t-152.5 21t-124.5 54q-2 4 -3 7
q-4 7 -5 14q3 16 12 35.5t21.5 37.5t28 31t31.5 16z" />
    <glyph glyph-name="six" unicode="6" horiz-adv-x="1062" 
d="M851 1283l29 -76q-124 -44 -220.5 -104.5t-166.5 -133t-113.5 -154t-61.5 -167.5q86 67 155.5 101t138.5 34q49 0 101 -18q57 -20 105.5 -58.5t80.5 -95.5t39.5 -109t7.5 -84q0 -51 -11 -110q-18 -94 -57 -154t-86.5 -97t-97.5 -55t-91 -27q-12 -2 -27 -4t-33 -2
q-36 0 -79.5 8t-88.5 29t-88 57.5t-77.5 92.5t-57.5 134.5t-27 184.5q-1 17 -1 33q0 107 30.5 204.5t87.5 182.5t133 151t158 114t165 78.5t153 44.5zM657 80q36 18 64.5 53t42.5 83.5t14 106.5q0 4 -0.5 38t-22.5 109q-26 88 -76.5 139.5t-127.5 51.5q-51 0 -112 -25.5
t-133 -82.5v-21v-13q0 -82 12 -162.5t43.5 -145t84 -103t130.5 -38.5q40 0 81 10z" />
    <glyph glyph-name="seven" unicode="7" horiz-adv-x="1116" 
d="M131 1030q8 42 17 93.5t19 106.5l33 27q48 -5 95 -6t95 -1h522l45 -59q-1 -2 -18 -37.5t-46 -96t-67 -140.5t-80.5 -170.5t-86 -187t-84 -189.5t-75.5 -177.5t-59 -151.5l-160 -64l-50 46l558 1075q-45 1 -87 1h-230q-35 0 -66.5 -0.5t-55.5 -0.5q-43 -1 -68.5 -11
t-42 -31t-27.5 -53t-25 -77l-72 12q4 22 7.5 45t8.5 47z" />
    <glyph glyph-name="eight" unicode="8" horiz-adv-x="1081" 
d="M435 622q-37 19 -75 44t-69 59t-51.5 78t-23.5 102v19q0 67 26.5 126.5t75 104.5t111 70.5t126.5 28.5h14q64 0 122 -16t103 -46t74.5 -73t36.5 -97q3 -21 3 -42q0 -25 -6 -58t-31 -73.5t-69.5 -80.5t-111.5 -83q39 -18 83 -43t83 -62t67 -89.5t34 -124.5q1 -14 1 -27
q0 -68 -28 -130.5t-81 -112t-120.5 -79.5t-135.5 -37q-27 -3 -54 -3q-62 0 -121 15.5t-107.5 47t-83 79t-48.5 112.5q-8 39 -8 74q0 26 8 65.5t42.5 85.5t89 86t124.5 80zM623 718q62 50 96 110t34 126q0 18 -2 36q-11 97 -62.5 141.5t-135.5 49.5q-34 -3 -65.5 -18t-57 -39
t-43.5 -56t-25 -70q-3 -17 -3 -33q0 -38 20.5 -76t61.5 -71.5t91 -57.5t91 -42zM336 255q10 -43 33.5 -78.5t57 -60.5t75 -38.5t87.5 -13.5h13q6 0 12 1q41 10 74 28t57 47t36 68.5t12 89.5v8q-1 56 -27.5 97.5t-65.5 73t-84.5 55t-84.5 43.5l-19 9q-58 -31 -96.5 -71.5
t-59.5 -84.5t-24 -73t-3 -43q0 -29 7 -57z" />
    <glyph glyph-name="nine" unicode="9" horiz-adv-x="1119" 
d="M168 946q19 95 58 155.5t86.5 97t96.5 53.5t88 25q19 4 53 4q35 0 79 -7.5t89.5 -28t90 -56t80 -91.5t59 -135t27.5 -185q1 -17 1 -34q0 -103 -28 -199t-82.5 -181t-128 -151.5t-155.5 -115.5t-167.5 -81t-163.5 -47l-29 80q126 45 222.5 105.5t166 132.5t112 153.5
t59.5 167.5q-88 -69 -156.5 -102t-134.5 -33q-50 0 -103 19q-56 19 -104.5 57t-80.5 95t-39.5 108.5t-7.5 81.5q0 52 12 112zM343 780q28 -87 81 -133.5t125 -46.5q53 0 114 26t130 81v3l1 5v3v24q0 76 -12 154.5t-43.5 143.5t-84.5 104.5t-131 39.5q-39 0 -80 -10
q-41 -20 -70 -57t-42.5 -84t-13.5 -100q0 -9 1.5 -45t24.5 -108z" />
    <glyph glyph-name="colon" unicode=":" horiz-adv-x="1106" 
d="M622 948q0 27 10 50t27.5 40.5t41 27.5t49.5 10q54 0 91 -37t37 -91q0 -26 -10 -49t-27.5 -40.5t-40.5 -27.5t-50 -10q-26 0 -49.5 10t-41 27.5t-27.5 40.5t-10 49zM751 432q27 0 50 -10t40.5 -27t27.5 -40.5t10 -50.5q0 -26 -10 -49t-27.5 -40.5t-40.5 -27.5t-50 -10
q-26 0 -49 10t-40.5 27.5t-27.5 40.5t-10 49q0 27 10 50.5t27.5 40.5t40.5 27t49 10z" />
    <glyph glyph-name="semicolon" unicode=";" horiz-adv-x="782" 
d="M239 948q0 27 10 50t27.5 40.5t41 27.5t49.5 10t49.5 -10t41 -27.5t27.5 -40.5t10 -50q0 -26 -10 -49t-27.5 -40.5t-41 -27.5t-49.5 -10t-49.5 10t-41 27.5t-27.5 40.5t-10 49zM190 -216q72 63 100 116t28 104q0 8 -1 17q-4 43 -31.5 74.5t-70.5 48.5v45q9 14 25.5 27.5
t35 24t38.5 17.5t36 7q78 -36 104.5 -88t26.5 -102q0 -30 -8 -65q-8 -40 -29.5 -78.5t-53 -74.5t-70.5 -68t-83 -59z" />
    <glyph glyph-name="less" unicode="&#x3c;" horiz-adv-x="992" 
d="M873 936l37 -40l-51 -142l-605 -223v-18l635 -262l12 -55l-160 -62l-660 325l-18 37l51 111z" />
    <glyph glyph-name="equal" unicode="=" horiz-adv-x="1013" 
d="M62 683q11 20 28 40.5t34 37.5q25 0 72.5 0.5t107.5 1t129 1.5t136 2q79 1 164.5 2t179.5 2l24 -31q-4 -5 -7 -10l-5 -7q-3 -5 -7 -10q-8 -12 -19 -26t-23 -27q-25 0 -73 -0.5t-108 -1t-128.5 -1t-135.5 -0.5q-79 -1 -164.5 -1.5t-178.5 -1.5zM60 354q11 21 28.5 41.5
t33.5 37.5q26 0 73 0.5t107.5 1t129 1t136.5 0.5q79 1 164.5 1.5t178.5 1.5l24 -28q-4 -5 -7 -10l-5 -7q-3 -5 -7 -10q-8 -12 -19.5 -26t-22.5 -26q-26 0 -73.5 -0.5t-108 -1t-128.5 -1.5l-136 -2q-79 -1 -164.5 -1.5t-178.5 -1.5z" />
    <glyph glyph-name="greater" unicode="&#x3e;" horiz-adv-x="964" 
d="M105 121l-34 39l51 143l600 219v17l-642 271l-15 54l161 63l673 -335l16 -36l-51 -108z" />
    <glyph glyph-name="question" unicode="?" horiz-adv-x="1050" 
d="M644 1283q64 0 120.5 -26t99.5 -66.5t69 -91t29 -99.5q2 -22 2 -43q0 -28 -4.5 -62t-25.5 -73t-60.5 -77t-104.5 -81q-137 -92 -137 -183q0 -76 95 -152q-9 -16 -24.5 -34t-26.5 -26q-61 30 -102.5 61t-67 64t-36.5 68t-11 72q0 39 20.5 73t55.5 67t81.5 67.5t99.5 74.5
q53 39 79.5 79.5t31.5 68t5 43.5q0 20 -7 47.5t-25 55.5q-24 23 -53.5 33.5t-60.5 10.5q-45 0 -85.5 -19t-62.5 -49q17 -14 28 -33.5t11 -42.5q0 -60 -41 -100t-104 -40q-31 0 -59 11.5t-48.5 31.5t-32.5 46.5t-12 57.5q0 59 31.5 108t82.5 84t116.5 54.5t133.5 19.5z
M620 126q26 0 49.5 -10t41 -27t27.5 -40.5t10 -50.5q0 -26 -10 -49.5t-27.5 -40.5t-41 -27t-49.5 -10t-49.5 10t-41 27t-27.5 40.5t-10 49.5q0 27 10 50.5t27.5 40.5t41 27t49.5 10z" />
    <glyph glyph-name="at" unicode="@" horiz-adv-x="1581" 
d="M61 468q4 109 38 209t90.5 186t133.5 157t168.5 121t193.5 77.5t209 27.5q137 0 255.5 -46t205.5 -127.5t134.5 -190.5t47.5 -232v-15q-2 -86 -29 -162.5t-71 -140.5t-100.5 -114.5t-118.5 -85.5t-124.5 -53.5t-118.5 -18.5q-11 0 -23 1t-23.5 4.5t-20.5 11t-13 19.5
q-3 11 -3 25q0 20 6 47q7 35 20 86.5t30 129.5l-10 6q-21 -34 -62.5 -88.5t-94.5 -107t-112.5 -90.5t-116.5 -40q-25 0 -46.5 9.5t-37.5 32t-25 59.5t-9 91q0 68 16 143.5t45.5 149t71 140t92.5 116.5t108.5 79t119.5 29h4q27 -1 50.5 -10t44 -21.5t38.5 -28t35 -30.5
q36 42 52.5 64t20.5 26l51 -45q-5 -20 -10 -42t-10 -48q-10 -45 -24.5 -105.5t-32.5 -136.5q-23 -88 -41 -154.5t-26 -109.5q-5 -25 -5 -45q0 -8 1 -15q1 -10 5.5 -16.5t16.5 -6.5h4q32 0 71 15.5t80 44t79.5 68t69 86t49.5 98.5t21 105q1 14 1 27q0 102 -36 195t-107 163.5
t-170.5 109.5t-216.5 39q-137 0 -259 -53.5t-215 -144.5t-150 -212t-65 -257q-1 -20 -1 -40q0 -116 38.5 -228.5t119 -202.5t195.5 -142.5t254 -54.5q85 0 163.5 15.5t157.5 45.5l2 -6l3 -12l2 -6q3 -11 6.5 -22.5t7.5 -22.5q-93 -48 -194 -72.5t-206 -24.5
q-149 0 -279.5 57.5t-226.5 160t-145.5 235t-49.5 276.5q0 19 1 39zM605 266q23 -13 46 -13q26 0 56 14.5t67 46t82.5 82t101.5 122.5q14 48 25 95.5t21 95.5q-15 37 -46.5 58t-70.5 21q-5 0 -10.5 -0.5t-10.5 -1.5q-62 -10 -113 -55t-87.5 -106.5t-58.5 -129.5t-26 -125
v-19q0 -28 5 -53t19 -32z" />
    <glyph glyph-name="A" unicode="A" horiz-adv-x="1322" 
d="M19 70q35 6 61.5 19.5t49.5 40t45.5 69t49.5 106.5q14 34 38 95.5t54 140t63.5 167t66.5 176.5q38 103 79.5 213.5t86.5 231.5l107 38q55 -150 104 -285.5t94 -258.5q38 -104 75 -206.5t68 -187.5t53 -145t29 -78q13 -37 27 -61t32.5 -39t45 -23.5t64.5 -14.5v-68
q-45 3 -90.5 4t-92.5 1q-73 0 -148 -1.5t-154 -3.5q0 18 -0.5 36t-0.5 41q87 7 112 23t25 40q0 15 -7 34q-8 23 -38 102t-68 194h-446q-14 -35 -28.5 -75.5t-24.5 -63.5q-21 -57 -33 -96.5t-16 -62t-4 -34.5q0 -6 1.5 -15.5t9.5 -16.5q13 -14 52.5 -26t91.5 -14v-67
q-50 2 -117 3t-134 1q-55 0 -103 -0.5t-80 -2.5v70zM439 564h377q-45 128 -89.5 255t-89.5 255l-16 -8q-28 -79 -60 -165q-26 -73 -59 -162t-63 -175z" />
    <glyph glyph-name="B" unicode="B" horiz-adv-x="1135" 
d="M192 321v762q0 50 -5.5 80.5t-17.5 47t-31 21.5t-45 5q-15 0 -32.5 -1t-37.5 -2l-10 77q135 8 269 12.5t270 8.5h21q104 0 180 -27t126 -72t74.5 -102.5t24.5 -118.5q0 -108 -68.5 -185t-199.5 -119v-6q19 -2 53 -9t74.5 -22t82 -38.5t76 -58.5t57 -82.5t24.5 -109.5v-13
q0 -80 -34 -149t-103.5 -120t-171.5 -79.5t-231 -28.5q-62 0 -115 1.5t-102.5 3.5t-98 3.5t-100.5 1.5h-54q-28 0 -57 -2v69q66 6 102.5 22t54.5 46t21.5 75t3.5 109zM369 1109v-354q70 0 146 7t139 33t104 78t41 143q0 52 -23.5 94.5t-64 73t-94 47t-114.5 16.5
q-44 0 -70.5 -5.5t-40.5 -20.5t-18.5 -42t-4.5 -70zM388 119q30 -31 131 -31h29q14 0 31 2q65 4 120 21.5t94.5 53.5t59 88.5t19.5 118.5q0 13 -1 26q-4 72 -35.5 121.5t-85 80t-126.5 44.5t-161 14q-46 0 -94 -3q-1 -40 -1 -78t-1 -75q0 -31 -1 -64t-1.5 -63.5t-1.5 -57.5
t-1 -47q-2 -31 -2 -53q0 -6 0.5 -20.5t4 -31t9 -27t14.5 -19.5z" />
    <glyph glyph-name="C" unicode="C" horiz-adv-x="1272" 
d="M668 1334q28 4 55.5 5.5t54.5 1.5q72 0 138 -9.5t117 -21.5t83 -22.5t36 -13.5q20 -70 36 -142t28 -144q-39 -13 -78 -24q-14 42 -31.5 79.5t-37.5 66.5q-31 42 -68 68.5t-79 41.5t-88 20t-96 5q-94 -3 -182.5 -49.5t-155.5 -128.5t-99.5 -181t-32.5 -199q0 -30 3 -61
q10 -125 51 -218.5t102 -156t136 -95t153 -36.5h5l10 -1h5q78 0 149 28t127 64.5t93.5 71t48.5 47.5q17 -14 34.5 -28t31.5 -31q-146 -154 -284 -225t-271 -72q-97 0 -198.5 40t-186.5 119.5t-142 199t-65 278.5q-1 16 -1 33q0 122 43 239t125 213t193.5 158t237.5 80z" />
    <glyph glyph-name="D" unicode="D" horiz-adv-x="1382" 
d="M9 69q65 5 101 21t53.5 46.5t21.5 77t4 112.5v127q0 23 0.5 43t0.5 48v549q0 47 -6.5 75t-20 43t-32.5 20t-45 5q-15 0 -31.5 -1t-34.5 -2l-7 75q132 12 264 18.5t265 6.5q152 0 288.5 -33.5t242 -106t171.5 -188t76 -279.5q2 -28 2 -56q0 -97 -25.5 -190.5t-80.5 -175
t-132 -140.5t-166.5 -97t-187 -56.5t-193.5 -18.5q-100 0 -209.5 4.5t-227.5 4.5h-45q-23 0 -46 -1v69zM391 122q36 -33 130 -33q16 0 33.5 1t36.5 3q277 31 401 179t124 391q0 19 -1 38q-5 131 -48 232t-120.5 169t-186 102.5t-241.5 34.5h-8q-48 0 -79 -8t-41 -17
q-7 -7 -15.5 -31t-8.5 -86v-268q0 -66 -0.5 -134t-1.5 -134.5t-1.5 -123.5t-1.5 -100t-2 -64q-1 -22 -1 -40q0 -13 1 -30.5t5 -33.5t10.5 -26.5t15.5 -20.5z" />
    <glyph glyph-name="E" unicode="E" horiz-adv-x="1088" 
d="M13 0v70q68 8 105.5 17.5t56 28t22.5 50t4 82.5q0 37 0.5 99t0.5 137v157q0 82 -0.5 159.5t-0.5 144.5v112q0 66 -4 102t-21 54t-53 24t-99 11v69q62 -2 140.5 -2.5t169.5 -0.5q143 0 300.5 1t305.5 3l23 -29q1 -11 1 -24q0 -6 -0.5 -18.5t-1.5 -34.5q-2 -37 -6.5 -87.5
t-14.5 -110.5l-75 -3q0 2 -3.5 28.5t-11 60.5t-20.5 66t-32 45q-10 7 -33 11.5t-53.5 6.5t-67 3t-74.5 1q-35 0 -69 -0.5t-66 -0.5q-17 0 -27 -6t-15.5 -20.5t-7.5 -39.5t-3 -63q-1 -17 -2 -50.5t-2 -77.5t-2 -96.5t-2 -107.5l474 1l4 -4l6 -7l4 -4l26 -26
q-26 -34 -51 -61.5t-62 -54.5q-33 18 -66.5 29t-70 17.5t-77.5 9t-90 2.5h-98q-1 -54 -1.5 -103.5t-0.5 -92.5v-208q0 -47 2 -71t10 -46q4 -14 15.5 -26.5t38.5 -22t73.5 -15t121.5 -5.5t127 7.5t90.5 32.5t68 73t59.5 129q6 -1 12 -3l9 -1q6 -1 12 -3q14 -3 27.5 -6
t23.5 -6q0 -1 -6.5 -34.5t-18.5 -80.5t-28.5 -99.5t-36.5 -91.5q-40 0 -91 0.5t-110.5 0.5t-124.5 0.5t-133 0.5h-179q-90 0 -172 -0.5t-149 -1.5z" />
    <glyph glyph-name="F" unicode="F" horiz-adv-x="996" 
d="M10 0v70q68 8 106.5 17.5t57 30t23 56t4.5 95.5v794q0 65 -5.5 100t-24 52.5t-54.5 23t-97 10.5v69q63 -2 141 -2.5t169 -0.5q142 0 298 1t305 3l28 -33q1 -1 1 -10q0 -5 -0.5 -19t-2.5 -51t-6.5 -86t-12.5 -105l-74 -4q-1 5 -5 32.5t-11.5 60.5t-19.5 63.5t-30 40.5
q-28 17 -91.5 21.5t-139.5 4.5q-34 0 -67.5 -0.5t-66.5 -0.5q-18 0 -28.5 -6t-15.5 -21.5t-7 -41t-3 -64.5q-1 -17 -2.5 -50t-2.5 -77t-1.5 -96.5t-0.5 -108.5l475 1l40 -40q-25 -35 -52.5 -64.5t-60.5 -53.5q-32 18 -63.5 29.5t-66 18t-74.5 9t-89 2.5h-110
q-1 -57 -1.5 -110.5t-0.5 -101.5v-140q-1 -25 -1 -46q0 -58 5 -98t19 -60q6 -10 17 -17.5t31 -13t52 -9t81 -5.5v-67h-300q-75 0 -142.5 -0.5t-122.5 -1.5z" />
    <glyph glyph-name="G" unicode="G" horiz-adv-x="1349" 
d="M682 1333q29 4 57.5 5.5t57.5 1.5q72 0 137 -9t115.5 -20t81 -20.5t33.5 -11.5q23 -71 39.5 -144t30.5 -147q-18 -7 -45 -15q-7 -2 -14.5 -4.5t-15.5 -5.5q-24 66 -55 119t-74 90.5t-100.5 57.5t-132.5 20h-21q-10 0 -21 -1q-120 -8 -216 -67t-159.5 -154.5t-86 -196
t-22.5 -183.5q0 -50 6 -102q11 -96 52 -180t105.5 -147t149.5 -99t184 -36q85 2 162 24.5t131 55.5v221q0 59 -7.5 92t-31.5 50t-70 22.5t-123 8.5v72q52 -2 125.5 -3t154.5 -1q61 0 121 1t111 5v-73q-48 -3 -73 -21t-39 -56q-8 -18 -10.5 -54t-2.5 -86t1 -111.5t1 -130.5
l-12 -18q-115 -48 -236 -75t-246 -27q-124 0 -235.5 34.5t-198 103t-142.5 170.5t-70 236q-4 42 -4 85q0 93 24.5 206.5t98.5 224.5t195 189.5t290 103.5z" />
    <glyph glyph-name="H" unicode="H" horiz-adv-x="1414" 
d="M12 0v70q58 4 92 9t52 18.5t23.5 40t5.5 73.5v91q0 42 0.5 95t0.5 111t0.5 119t0.5 120v275q-1 74 -7 116t-23.5 64.5t-51.5 32t-93 16.5v68q49 -2 124.5 -2.5t158.5 -0.5q66 0 129 0.5t116 2.5v-69q-63 -3 -98 -13t-52 -33t-21 -63t-5 -102q-2 -49 -2.5 -125t-0.5 -164
h693l-3 287q-1 63 -5 103t-21 63.5t-52.5 33.5t-98.5 13v69q53 -2 116 -2.5t129 -0.5q84 0 159.5 0.5t126.5 2.5v-68q-64 -8 -99.5 -17t-52.5 -32t-20.5 -66t-3.5 -118q-1 -26 -1 -57v-375q0 -81 0.5 -153t0.5 -130v-90q0 -48 5 -75t23 -40.5t53 -18.5t95 -9v-70
q-74 1 -149 1h-272q-61 0 -119 -2v69q69 4 106 13t54.5 27t21 48.5t4.5 78.5q2 40 2.5 116.5t0.5 169.5v128h-693v-128q0 -94 0.5 -171t2.5 -118q1 -48 5 -77.5t22 -47t55 -26t103 -13.5v-69q-58 2 -117 2h-271q-75 0 -149 -1z" />
    <glyph glyph-name="I" unicode="I" horiz-adv-x="556" 
d="M13 0v70q62 4 97 10.5t52 22t21 44t4 76.5v88q0 57 0.5 125t0.5 146v363q0 30 -1 56q-1 77 -4.5 123t-20 71.5t-51.5 36.5t-98 19v68q51 -2 126 -2.5t157 -0.5q65 0 127.5 0.5t115.5 2.5v-69q-65 -3 -100 -14t-51.5 -36.5t-19.5 -68.5t-4 -109q-1 -45 -1.5 -110
t-0.5 -140v-305q0 -72 0.5 -129.5t1.5 -90.5q1 -48 4 -80.5t20 -52.5t53.5 -30.5t104.5 -15.5v-69q-58 2 -117 2h-268q-74 0 -148 -1z" />
    <glyph glyph-name="J" unicode="J" horiz-adv-x="557" 
d="M-20 -244q57 34 97.5 68.5t67 84.5t39 122.5t12.5 181.5v91q0 58 0.5 130.5t0.5 153.5v433q-1 75 -6 117t-22.5 64.5t-51.5 31.5t-93 17v68q51 -2 126 -2.5t156 -0.5q64 0 126 0.5t114 2.5v-69q-58 -3 -92 -13t-51.5 -33t-22.5 -62.5t-6 -102.5q-1 -44 -1.5 -111
t-0.5 -145t0.5 -160.5t0.5 -157t0.5 -134.5t0.5 -93q0 -104 -21.5 -188.5t-67 -153.5t-116 -125t-168.5 -102l-27 68z" />
    <glyph glyph-name="K" unicode="K" horiz-adv-x="1293" 
d="M9 27q0 11 0.5 23t0.5 20q57 5 91 11t52.5 22t24 45t5.5 80v251q0 93 0.5 190t0.5 188v157q-1 74 -5.5 117t-22 66.5t-52 34t-95.5 19.5v68q52 -2 126 -2.5t155 -0.5q63 0 125.5 0.5t116.5 2.5v-69q-60 -3 -94 -13.5t-50.5 -34t-21 -63.5t-5.5 -103l-3 -329q37 10 78 34
t92 75l72 72q57 57 114 117t102 112q31 37 42 57t11 32q0 6 -4.5 16t-32.5 17t-81 10v72q48 -2 112.5 -3t135.5 -1q66 0 131 1t122 4v-69q-33 0 -61.5 -5t-61 -21t-72.5 -46t-95 -80q-101 -90 -193.5 -186.5t-183.5 -196.5q3 -5 78 -97.5t223 -278.5q57 -72 102 -121
t82.5 -78t71 -41.5t66.5 -12.5q28 0 63 8q5 -18 9.5 -39t5.5 -27q-27 -10 -57.5 -19t-62 -16t-63 -11.5t-60.5 -4.5q-33 0 -62 8q-37 10 -78 48.5t-88.5 97t-102 133.5t-119.5 158q-51 63 -85 104t-58.5 64.5t-43.5 33t-39 9.5h-9v-124q0 -90 1 -164.5t1 -112.5
q1 -50 6.5 -80.5t23.5 -48t53.5 -25.5t96.5 -13v-69q-63 2 -128 3t-132 1q-133 0 -271 -3v27z" />
    <glyph glyph-name="L" unicode="L" horiz-adv-x="1055" 
d="M10 1v70q66 9 103 19t55.5 28.5t23.5 50.5t6 84v795q0 68 -4.5 106t-22 57.5t-53 26t-98.5 12.5q0 10 -0.5 22t-0.5 23q-1 6 -1 13v13q41 -1 91.5 -1.5t107.5 -0.5q77 0 161 0.5t169 0.5v-70q-46 0 -77 -6t-50.5 -23.5t-28.5 -48t-12 -79.5q-1 -25 -2 -81t-2 -128.5
t-2 -153.5t-1.5 -155.5t-1 -134.5t-0.5 -91q-1 -46 -1 -77.5t1 -54t4 -38t8 -29.5q4 -13 14 -24.5t35.5 -19.5t70.5 -12.5t119 -4.5q75 0 128 9.5t91.5 36t67.5 73.5t57 123q6 -1 12 -3l9 -1q6 -1 12 -3l28 -6q15 -3 23 -6q-1 -2 -9 -36.5t-20.5 -82.5t-29.5 -100.5
t-37 -91.5q-34 0 -82 0.5t-104.5 0.5t-120.5 0.5t-130 0.5h-180q-90 0 -173.5 -0.5t-152.5 -1.5z" />
    <glyph glyph-name="M" unicode="M" horiz-adv-x="1737" 
d="M4 0v70q56 7 89 18t51.5 32.5t27.5 57.5t17 93q5 39 11.5 105.5t13.5 147t13.5 167.5t12.5 165.5t10.5 141.5t6.5 96q1 14 1 27q0 29 -6 53.5t-26.5 41t-56 24.5t-89.5 13q0 17 -3.5 34.5t-3.5 33.5q75 -3 157.5 -4.5t152.5 -1.5h50q23 0 43 1q10 -23 32.5 -75.5
t53 -123.5t66 -154t71.5 -166q42 -98 87 -204.5t95 -223.5l12 -3q51 128 95.5 242.5t85.5 217.5q34 87 67.5 172t61 153.5t45.5 113.5t21 54q35 -2 72 -2h72q74 0 139 1t100 1v-69q-58 -3 -94.5 -11.5t-56 -28t-23.5 -46t-4 -49.5q0 -22 2 -48q4 -42 9 -103t10 -132
t11.5 -147.5t12.5 -150t13 -140t14 -117.5q8 -60 14.5 -98.5t24.5 -62t53.5 -34t100.5 -14.5v-69q-79 2 -177 3t-189 1q-57 0 -106 -0.5t-84 -2.5v70q53 4 88 15t56 33.5t27.5 54t6.5 66.5q0 14 -1 30q-2 32 -5.5 82.5t-9.5 110.5l-17 193q-3 33 -6 65q-7 76 -15 156
t-16 167l-12 3l-404 -1030l-70 -16l-427 1084q-8 -97 -14.5 -185.5t-11.5 -172.5q-5 -71 -9.5 -143.5t-8.5 -137.5t-6 -117.5t-2 -82.5q0 -54 6.5 -86t25 -50t53 -26.5t91.5 -14.5v-68q-64 2 -143 2.5t-156 0.5q-60 0 -112 -0.5t-87 -2.5z" />
    <glyph glyph-name="N" unicode="N" horiz-adv-x="1439" 
d="M324 1320q9 -12 48.5 -62t97.5 -123t129 -162.5t143 -181.5q85 -109 179.5 -228t199.5 -253l9 6q1 70 1 137v364q0 57 -0.5 108.5t-0.5 93.5q-2 77 -9.5 120.5t-28.5 66t-59 30t-101 13.5v72q49 -2 113 -3t133 -1q68 0 131.5 1t110.5 3v-70q-54 -3 -86 -17.5t-49.5 -46.5
t-23.5 -85t-9 -133q-2 -43 -2.5 -108.5t-0.5 -142.5v-329q1 -97 1.5 -198.5t1.5 -210.5l-95 8l-820 1040l-6 -6q-3 -229 -3 -460v-217q0 -96 7 -148t28 -77.5t59.5 -34t102.5 -17.5v-68q-38 1 -78 1h-82q-85 0 -172 -0.5t-170 -0.5v70q60 6 94 17t52 38.5t24.5 77.5
t10.5 134q4 86 6.5 164t4 155t2 156.5t0.5 168.5q0 81 -8.5 130.5t-32 78t-65 41t-108.5 19.5v70q17 -2 42 -3t54 -1q58 0 120.5 2t104.5 2z" />
    <glyph glyph-name="O" unicode="O" horiz-adv-x="1447" 
d="M791 1336q64 -2 132 -20.5t133 -54t123.5 -88t102 -123t69.5 -158.5t26 -194q0 -127 -29.5 -229.5t-80.5 -182t-119 -137t-144.5 -94.5t-157.5 -55t-159 -18q-147 0 -261 52t-192 142t-118 212.5t-40 263.5q0 152 54.5 277.5t148.5 216t220 140.5t268 50h24zM284 507
q20 -90 61.5 -165.5t100.5 -130t133.5 -84.5t161.5 -30q59 0 122.5 15t131.5 47q81 65 126 155t56 166t11 130q0 46 -9 120t-42 162q-25 66 -66.5 123.5t-97 100t-125 67t-150.5 24.5q-47 0 -96 -8.5t-103 -27.5q-68 -40 -120 -105.5t-82 -151t-32.5 -144.5t-2.5 -75
q0 -89 22 -188z" />
    <glyph glyph-name="P" unicode="P" horiz-adv-x="1087" 
d="M20 68q63 5 99 21t54 46.5t22 76.5t4 110v128q0 23 0.5 43.5t0.5 48.5v432q0 21 0.5 47.5t0.5 68.5q0 48 -7 76.5t-21.5 43.5t-37 19.5t-52.5 4.5q-12 0 -25 -0.5t-27 -0.5l-8 77q38 2 79 4t86 4q76 4 175 7.5t211 7.5h24q101 0 182 -24.5t137.5 -70.5t86.5 -113t30 -152
q0 -113 -38.5 -195t-105.5 -135t-157 -78.5t-194 -25.5q-40 0 -81 2.5t-78 6.5l-3 -105q-2 -45 -3 -94t-2 -86v-29q0 -43 5.5 -74t28 -49.5t64.5 -26t111 -16.5q0 -18 -1.5 -34.5t-1.5 -33.5q-102 0 -192 1t-181 1h-91q-46 0 -94 -2v68zM380 1112v-467q66 -11 119 -11
q159 0 252 81t100 231v16q0 62 -21.5 115t-64 91.5t-103 58t-132.5 19.5q-40 0 -68.5 -5t-46.5 -19.5t-26.5 -41t-8.5 -68.5z" />
    <glyph glyph-name="Q" unicode="Q" horiz-adv-x="1453" 
d="M792 1335q64 -2 132.5 -20.5t133.5 -54t123 -88.5t101.5 -123t69 -158t25.5 -194q0 -148 -40.5 -263t-108 -199t-154.5 -138.5t-181 -82.5q74 -37 134.5 -65t111 -47t93 -28.5t79.5 -9.5h14q36 2 70.5 13t76.5 30q5 -8 12 -17.5t14 -17.5q2 -3 4 -5l8 -9q2 -3 4 -5
q-21 -20 -43.5 -43t-50 -46t-61 -44.5t-76.5 -38.5q-40 4 -93.5 20t-123 50.5t-155.5 90.5t-191 141q-8 -1 -16 -1h-46q-114 3 -219 45t-185.5 124.5t-128.5 206t-48 289.5q0 152 54.5 278.5t148.5 217.5t220 141.5t268 50.5h24zM285 501q21 -91 62.5 -165.5t100 -127
t132 -81.5t158.5 -29q60 0 123.5 15t132.5 47q81 65 125.5 154.5t56 165.5t11.5 131q0 45 -9 118.5t-42 161.5q-25 69 -67 126.5t-98 99.5t-124.5 65.5t-147.5 23.5q-47 0 -96.5 -8.5t-102.5 -27.5q-68 -40 -119.5 -106.5t-81.5 -153t-33 -147t-3 -77.5q0 -89 22 -185z" />
    <glyph glyph-name="R" unicode="R" horiz-adv-x="1263" 
d="M14 0v68q63 6 99 22.5t53 46.5t21 76t4 111v127q0 23 0.5 43.5t0.5 48.5v532v14q0 42 -5.5 71t-19.5 45.5t-36 22t-54 5.5q-12 0 -25.5 -0.5t-27.5 -1.5l-7 78q3 0 47 2.5t117 6t170 7.5t207 7h17q110 0 194 -24t142 -68t87.5 -107.5t29.5 -143.5q0 -75 -20 -137.5
t-57 -111t-89 -83.5t-116 -56q19 -30 48 -75t61.5 -93.5t64 -95.5t56.5 -81q30 -44 58 -74t56.5 -48.5t59.5 -26.5t68 -8h15q7 0 15 1l6 -62q-43 -14 -85.5 -26t-87.5 -20q-8 -1 -15 -1.5t-15 -0.5q-57 0 -110 30t-93 90q-24 34 -55.5 84t-64 103.5t-63 104t-53.5 84.5
q-25 42 -50 60.5t-59 23.5l-84 4q-8 0 -16.5 -0.5t-17.5 -0.5q-3 0 -6 -0.5t-5 -0.5q0 -7 -1 -39t-2 -74t-2.5 -87.5t-2.5 -81.5q-1 -23 -1 -41q0 -14 1 -33t5 -37t10.5 -30.5t15.5 -25.5q15 -23 56 -38.5t122 -16.5q0 -18 -1.5 -34.5t-1.5 -33.5q-102 0 -192 1t-181 1h-91
q-46 0 -94 -2zM373 1005v-234q0 -46 1 -97q30 -5 59 -7.5t56 -2.5q81 0 145.5 20.5t110 59t71.5 93.5t29 124q1 10 1 20q0 56 -21 105t-64 85.5t-102.5 56t-130.5 19.5q-32 0 -64 -5t-58 -24q-11 -5 -21.5 -26t-10.5 -83q0 -16 -0.5 -43t-0.5 -61z" />
    <glyph glyph-name="S" unicode="S" horiz-adv-x="1074" 
d="M64 91q0 36 2.5 75.5t6.5 77.5t8.5 72t8.5 59q4 1 13 1q15 0 29.5 -3t27.5 -8q5 -26 11 -55t15 -56.5t23 -53t34 -44.5q50 -49 114.5 -75t134.5 -26q50 0 99.5 13.5t97.5 42.5q36 21 61 50t39.5 61.5t16.5 53.5t2 30q0 23 -6 43q-26 84 -112.5 146.5t-209.5 111.5
q-84 33 -151.5 69.5t-114.5 82.5t-73 105t-27 138v4q0 75 34 135.5t88 105.5t118 71t121 30q15 2 30 2h30q100 0 196.5 -24t184.5 -69l22 -36q-7 -59 -23 -115t-36 -112q-25 2 -39 4.5t-28 5.5v7q0 61 -36.5 123t-114.5 100q-25 12 -59.5 19.5t-72.5 7.5q-31 0 -62.5 -5.5
t-61.5 -18.5q-45 -32 -80 -76.5t-35 -97.5q0 -35 13.5 -71t47 -72.5t91 -73t145.5 -72.5q132 -54 214 -104t128 -100t63 -103.5t18 -114.5v-5q0 -63 -25 -119.5t-69 -102t-103 -79t-125 -52.5q-45 -12 -94.5 -17.5t-102.5 -5.5q-55 0 -110.5 5.5t-107 14.5t-96.5 21.5
t-80 26.5q-12 13 -18.5 25.5t-14.5 26.5z" />
    <glyph glyph-name="T" unicode="T" horiz-adv-x="1222" 
d="M85 1318l25 23q13 -4 35 -6.5t54 -4.5q54 -4 153.5 -7.5t262.5 -3.5q154 0 248.5 3t148.5 8q31 2 54 4.5t38 6.5l27 -23l47 -343l-95 6q-20 83 -36 131t-43.5 73t-73 33t-124.5 11q-26 1 -55 1.5t-56 0.5q-1 -60 -1.5 -148t-0.5 -188v-479q0 -60 0.5 -105t1.5 -68
q1 -51 6.5 -82.5t24 -50t55 -27.5t99.5 -15v-69q-57 2 -116 2h-273q-75 0 -149 -1v15q0 6 1 13q0 11 0.5 22.5t0.5 19.5q55 4 89.5 9.5t54 20.5t26.5 43.5t7 78.5v101q0 69 0.5 163.5t0.5 198t0.5 207.5t0.5 191v148q-26 0 -54 -0.5t-54 -1.5q-83 -3 -129.5 -11t-73.5 -33
t-42 -73t-35 -131l-96 -6z" />
    <glyph glyph-name="U" unicode="U" horiz-adv-x="1405" 
d="M539 1319v-70q-61 -3 -95 -13t-50.5 -33t-21 -62t-5.5 -101q0 -34 -0.5 -82t-1 -104t-1 -117.5t-0.5 -123.5q0 -155 30.5 -254t80.5 -155.5t115.5 -78t135.5 -21.5q110 0 181.5 44t113 114.5t57.5 160t16 180.5v127q0 94 -1 175t-1 135q-2 61 -6 100t-20.5 62.5t-50 33.5
t-94.5 13v70q60 -2 124 -3t127 -1t120.5 1t103.5 3v-68q-58 -9 -91.5 -19t-50.5 -32.5t-21.5 -63.5t-4.5 -112q-1 -23 -1 -46v-371q0 -324 -142 -478.5t-408 -154.5q-133 0 -225.5 44t-150.5 118t-84 173t-26 208v507q-1 72 -6 113t-22.5 63.5t-51.5 32t-93 18.5v68
q46 -2 110.5 -3t136.5 -1t143.5 1t130.5 3z" />
    <glyph glyph-name="V" unicode="V" horiz-adv-x="1357" 
d="M7 1320q50 -3 103 -4t110 -1q70 0 143.5 1.5t148.5 3.5v-76q-48 -5 -77.5 -11.5t-43.5 -18.5t-14 -30.5t12 -48.5q6 -14 23 -59t40.5 -109t51.5 -140.5t57 -154.5q68 -183 150 -405l19 7l14 38q12 31 31 80t41.5 108.5t47.5 125t49 128t45 117.5t36 94q23 59 37 101
t19.5 69t5.5 44q0 2 -0.5 12.5t-6.5 20.5q-12 16 -47.5 28t-107.5 13v68q26 -1 59 -2t70 -2t76.5 -1.5t77.5 -0.5q53 0 99 1.5t75 3.5v-69q-39 -7 -67.5 -22.5t-52.5 -43t-47 -70t-50 -103.5q-14 -32 -38.5 -92t-55 -136.5t-65 -163t-68.5 -171.5q-40 -101 -82.5 -209
t-88.5 -225l-112 -39q-57 147 -107.5 279.5t-96.5 252.5q-39 102 -77.5 202.5t-71 183.5t-55 142t-29.5 77q-13 34 -28 58t-35 40t-48.5 25.5t-68.5 15.5v68z" />
    <glyph glyph-name="W" unicode="W" horiz-adv-x="1983" 
d="M4 1320q48 -3 97.5 -4t102.5 -1q69 0 140 1.5t143 3.5v-76q-43 -5 -71.5 -10.5t-43 -17t-15 -21.5t-0.5 -12q0 -18 10 -45q6 -15 22 -59.5t38 -107.5t48.5 -139t53.5 -153q32 -91 67 -191t73 -211l16 7q0 1 5 15.5t14 40t21.5 60.5t27.5 75l42 115q17 46 33.5 93t33 92.5
t32 87.5t28.5 78l30 83q-14 37 -23 65t-14 39q-12 34 -24.5 55t-29.5 34.5t-41 21t-59 13.5v68q48 -3 97 -4t100 -1q64 0 129.5 1.5t132.5 3.5v-75q-78 -12 -102.5 -27.5t-24.5 -40.5q0 -16 8 -37q5 -15 20.5 -60t37 -108.5t48 -140.5t53.5 -155q31 -92 65.5 -193.5
t72.5 -213.5l14 7q25 72 49 140.5t47 134.5q19 56 39.5 115t40 114t37 103.5t29.5 83.5q21 60 33 102t16.5 68t4.5 42q0 3 -0.5 13t-5.5 20q-10 17 -44.5 28.5t-94.5 12.5v67q45 -2 110.5 -3.5t131.5 -1.5q53 0 99 1t75 4v-69q-35 -7 -61 -21.5t-47.5 -41t-41.5 -67.5
t-44 -101q-15 -38 -43 -113t-62.5 -169.5t-72 -198t-71.5 -199t-61.5 -172.5t-41.5 -118l-13 -36l-102 -39q-29 81 -56.5 160.5t-55.5 160.5q-24 68 -50 142.5t-51.5 149.5t-50.5 147.5t-47 136.5q-21 -54 -46 -119t-51 -135.5t-52.5 -142.5t-50.5 -139q-29 -79 -58 -159.5
t-58 -162.5l-104 -36q-53 147 -100.5 278.5t-90.5 251.5q-37 102 -73 202t-66 183.5t-51 141.5t-28 76q-14 37 -29 61.5t-35 40t-46.5 24.5t-63.5 15v68z" />
    <glyph glyph-name="X" unicode="X" horiz-adv-x="1391" 
d="M10 -6v74q63 3 105 20.5t77.5 50.5t71 82.5t84.5 117.5q17 24 42.5 58.5t56 76.5t65.5 90t71 98q-47 64 -91.5 126t-81.5 114.5t-63.5 92t-37.5 57.5q-26 42 -52 78t-56.5 62.5t-69 41t-89.5 14.5v71q47 -2 101.5 -3.5t112.5 -1.5q84 0 166 2t150 4v-72
q-81 -4 -103.5 -26t-22.5 -41t14 -43q6 -10 26.5 -40t51.5 -74t70.5 -98.5t83.5 -114.5q43 59 82 113t69.5 97t51 72.5t26.5 39.5q15 25 15 45q0 19 -20 42.5t-101 27.5v72q66 -2 142.5 -4t154.5 -2q54 0 107 1.5t101 3.5v-71q-54 0 -93 -14t-70.5 -39.5t-59 -62
t-59.5 -81.5q-20 -29 -48.5 -68t-63 -85t-73 -97.5t-78.5 -104.5q40 -55 79.5 -108.5t74 -101t62.5 -86t46 -63.5q48 -67 83.5 -116t72 -82t80 -50.5t107.5 -20.5v-74q-83 4 -182.5 5.5t-196.5 1.5q-59 0 -112.5 -0.5t-97.5 -1.5v70q70 8 104 22t38 28t4 21q0 18 -13.5 44
t-43.5 66l-215 298q-36 -48 -69.5 -93.5t-62 -85t-51 -71.5t-36.5 -53q-29 -42 -42 -67t-13 -41q0 -7 4.5 -20.5t38 -26.5t102.5 -21v-70q-45 1 -92 1.5t-97 0.5q-84 0 -169 -1.5t-168 -5.5z" />
    <glyph glyph-name="Y" unicode="Y" horiz-adv-x="1264" 
d="M6 1249v70q48 -2 101.5 -2.5t108.5 -0.5q82 0 159 1.5t134 3.5v-72q-46 -5 -75 -13.5t-37 -23t-8 -29.5q0 -12 6.5 -36.5t36.5 -78.5q30 -57 66 -121.5t68 -119.5q19 -32 37 -64l36 -64h12l40 66q20 33 40 65q34 57 72.5 119.5t70.5 114.5q30 49 42.5 78t12.5 47
q0 8 -4.5 22.5t-34 26t-86.5 14.5v69q47 -3 98 -4t104 -1q66 0 130.5 1.5t122.5 3.5v-72q-50 -6 -90.5 -21.5t-75 -42.5t-65 -65.5t-60.5 -89.5q-34 -54 -68.5 -113t-64.5 -111.5t-52 -92.5t-30 -57q-9 -19 -16.5 -38t-13 -43t-8.5 -55.5t-3 -74.5v-143q0 -26 -0.5 -47.5
t-0.5 -45.5q0 -28 4.5 -52t24.5 -42t60 -29.5t110 -15.5v-71q-65 3 -128.5 4t-130.5 1q-72 0 -149.5 -1t-165.5 -3v68q63 3 102 9.5t60.5 24.5t29 50.5t7.5 87.5q0 123 -1.5 214.5t-25.5 144.5q-10 17 -33 59t-53 96t-64 115t-66 116.5t-59.5 99t-43.5 64.5
q-24 30 -42.5 47.5t-38.5 28t-44 15.5t-58 9z" />
    <glyph glyph-name="Z" unicode="Z" horiz-adv-x="1148" 
d="M850 1225h-85q-43 0 -85 1h-256q-17 0 -31 -1q-59 -2 -94 -13t-58 -37.5t-40 -71t-41 -113.5l-82 9l18 111q7 48 14 103.5t11 104.5l35 22q23 -5 48 -8.5t58 -6t78 -4t108 -1.5h633l25 -47l-832 -1173q42 -1 84 -1h83q72 0 155 1.5t158 5.5q67 4 108 17.5t69.5 42t51 76
t53.5 120.5q13 -4 27.5 -7.5t27.5 -6.5q8 -2 15 -4l14 -4l-56 -314l-42 -28q-79 1 -151.5 2t-140.5 2q-57 1 -115.5 2t-110.5 2t-93 1.5t-63 0.5q-14 1 -28 1h-27q-64 0 -114 -3.5t-111 -6.5l-33 65z" />
    <glyph glyph-name="bracketleft" unicode="[" horiz-adv-x="543" 
d="M45 1503l422 16l26 -40q-4 -4 -7 -9t-7 -10q-7 -10 -14.5 -21t-16.5 -24q-57 -4 -103.5 -10t-80 -12t-52.5 -10t-21 -4v-1579q4 0 24.5 -4t54 -10t80 -12t101.5 -10q9 -13 16.5 -24t14.5 -21q4 -5 7 -10t7 -9l-27 -41l-424 16v1828z" />
    <glyph glyph-name="backslash" unicode="\" horiz-adv-x="899" 
d="M168 1440q13 -5 28 -9q14 -5 32.5 -11.5t41.5 -17.5q12 -36 42 -125t71.5 -210.5t90.5 -264.5t98 -287q58 -171 121.5 -356t133.5 -389l-28 -47q-27 7 -52.5 18t-50.5 23q-8 23 -24.5 71t-39.5 114t-51 147.5t-59.5 172.5t-64.5 187.5t-66 192.5q-117 339 -258 747z" />
    <glyph glyph-name="bracketright" unicode="]" horiz-adv-x="598" 
d="M35 1478l27 41l424 -16v-1828l-422 -17l-26 41q3 4 6.5 9t7.5 10q6 8 14.5 19.5t17.5 24.5q56 4 102.5 10t80.5 12t53.5 10t20.5 4v1580q-5 0 -25.5 4.5t-54.5 10t-80 11.5t-101 9q-11 17 -22.5 32.5t-22.5 32.5z" />
    <glyph glyph-name="underscore" unicode="_" horiz-adv-x="1160" 
d="M90 -136q14 21 29.5 41.5t33.5 38.5h81q53 0 121 0.5t145.5 1.5t153.5 2q180 1 390 3l28 -35q-14 -21 -30 -41t-33 -39h-81q-53 0 -121 -0.5t-145.5 -1.5t-153.5 -2q-91 -1 -187.5 -2t-201.5 -2z" />
    <glyph glyph-name="grave" unicode="`" horiz-adv-x="1468" 
d="M679 1009q27 0 50 -10t40.5 -27t27.5 -40.5t10 -50.5q0 -26 -10 -49t-27.5 -40.5t-40.5 -27.5t-50 -10q-26 0 -49 10t-40.5 27.5t-27.5 40.5t-10 49q0 27 10 50.5t27.5 40.5t40.5 27t49 10zM171 499q25 50 58 92h81q53 0 122 0.5t149 1.5t159 2q94 1 194.5 2t209.5 2
l30 -40q-14 -24 -29.5 -47.5t-32.5 -45.5h-80q-54 0 -123.5 -0.5t-149 -1.5t-158.5 -2q-94 -1 -194 -2t-209 -2zM660 306q54 0 91 -37t37 -91q0 -26 -10 -49t-27.5 -40.5t-40.5 -27.5t-50 -10q-26 0 -49 10t-40.5 27.5t-27.5 40.5t-10 49q0 27 10 50t27.5 40.5t40.5 27.5
t49 10z" />
    <glyph glyph-name="a" unicode="a" horiz-adv-x="947" 
d="M61 246q0 51 27.5 93t72.5 77.5t101 64.5t113.5 53t110 44t89.5 37v60q0 116 -37.5 168t-95.5 52q-28 0 -52 -8q-43 -14 -65 -30t-31.5 -34.5t-11 -39t-3.5 -43.5q-3 -22 -16.5 -38.5t-31.5 -26.5t-36.5 -15t-30.5 -5q-13 0 -28 7t-26 22.5t-13 30.5t-2 22q0 20 7 45
q10 37 46.5 72.5t88 63.5t114 45t123.5 17q81 0 133.5 -25t83 -70t43 -106.5t12.5 -135.5v-326q0 -56 1.5 -90.5t4.5 -54.5t9 -29t15 -15q10 -7 24 -7q20 0 45.5 11t60.5 27q1 -7 7.5 -17t12 -20t7 -15.5t1.5 -6.5q0 -6 -6 -11q-75 -51 -130.5 -73.5t-95.5 -22.5
q-53 0 -80.5 35t-38.5 97q-25 -19 -60 -43.5t-73.5 -46t-78 -36t-72.5 -14.5q-37 0 -78.5 14t-77 45t-59 80.5t-23.5 121.5zM266 177q22 -34 50.5 -48.5t60.5 -14.5q51 0 103.5 29t93.5 67l1 1v308q-52 -19 -100 -39t-88.5 -42t-72.5 -45t-51 -47q-25 -31 -26 -54.5
t-1 -26.5q0 -42 30 -88z" />
    <glyph glyph-name="b" unicode="b" horiz-adv-x="1052" 
d="M17 1362v71q29 6 67 15t79 20t83.5 23.5t79.5 26.5q8 -11 17.5 -20.5t21.5 -26.5q-5 -19 -10 -83.5t-9.5 -156t-7.5 -201t-4 -218.5q33 30 72 59.5t82 53t89.5 38t92.5 14.5q26 -1 61 -11t73.5 -30.5t76 -54t67.5 -82t48.5 -112.5t18.5 -147q0 -129 -41.5 -233
t-112.5 -178t-166.5 -114t-203.5 -40q-54 0 -103 8.5t-90 20.5t-72.5 25t-51.5 22l-11 34q3 296 6 544q1 105 2 209t2 192t1.5 152t0.5 88q0 61 -23 83.5t-58 22.5q-17 0 -37 -4t-40 -10zM332 295v-109q39 -37 96.5 -55.5t117.5 -18.5q48 0 91.5 12t74.5 37q63 51 96.5 130
t33.5 179v12q-2 80 -23.5 143.5t-55.5 108t-75.5 68.5t-82.5 25q-81 0 -153 -48.5t-119 -133.5v-220q0 -42 -0.5 -72.5t-0.5 -57.5z" />
    <glyph glyph-name="c" unicode="c" horiz-adv-x="919" 
d="M386 947q94 40 191 40q69 0 131 -20t107 -62q-5 -64 -19.5 -110t-37.5 -88q-14 2 -33 2t-31 2q-20 67 -63 108.5t-116 41.5h-4q-48 -2 -102.5 -26t-95.5 -75.5t-55 -111.5t-14 -106q0 -53 12 -117q13 -72 40 -126.5t64.5 -91t83 -54.5t94.5 -18q66 0 133 31.5t128 94.5
q7 -8 16.5 -18t18.5 -20q5 -5 10.5 -11t10.5 -12q-34 -43 -76.5 -83t-90.5 -71.5t-100.5 -50.5t-107.5 -19h-12q-6 0 -12 1q-57 5 -118.5 26t-115.5 68t-93.5 124t-53.5 194q-5 42 -5 81q0 70 22 147t71 147t110 115.5t113 67.5z" />
    <glyph glyph-name="d" unicode="d" horiz-adv-x="1105" 
d="M79 412q0 129 37.5 234t104.5 178.5t159 113.5t200 40q45 0 86 -13t75 -30q0 88 1 162t1 120v49q0 61 -22 82.5t-57 21.5q-18 0 -38 -4t-42 -10v75q29 6 69 14.5t84 19t88 23t81 26.5q10 -11 16 -17t18 -23q-4 -16 -7.5 -58.5t-7 -103.5t-6 -137.5t-4.5 -159.5t-3 -169
t-1 -167v-422q0 -58 13 -85t43 -27q29 0 84 29q6 -11 15.5 -27.5t17.5 -33.5q-22 -18 -46.5 -33.5t-56.5 -30.5t-74 -31.5t-98 -37.5l-72 36v119q-53 -46 -101.5 -75.5t-89.5 -46.5t-73 -23.5t-53 -6.5q-26 1 -61 10.5t-73 30.5t-75 53.5t-66.5 80t-47.5 110.5t-18 144z
M234 487q2 -82 27 -147t63.5 -110.5t84.5 -70t90 -24.5q70 0 131.5 34t106.5 103q0 29 0.5 77t1 108.5t1 131t0.5 143.5q-51 64 -113 90t-122 26q-48 0 -87.5 -13.5t-64.5 -33.5q-64 -52 -91.5 -126t-27.5 -174v-14z" />
    <glyph glyph-name="e" unicode="e" horiz-adv-x="910" 
d="M456 976q14 2 29 3.5t29 1.5q66 0 126 -25.5t105 -73t70.5 -112.5t25.5 -143v-12q-21 -41 -83 -89q-13 -2 -45 -4t-76 -4.5t-96.5 -4.5t-106 -4.5t-104.5 -4.5t-93 -4q2 -49 12 -103t32.5 -102t58.5 -85.5t88 -53.5q23 -8 47.5 -11t49.5 -3q71 0 141 27t129 80
q4 -5 10.5 -13t13.5 -18l14 -19q9 -10 12 -16q-106 -109 -195.5 -157.5t-174.5 -48.5q-26 0 -64.5 7.5t-82 26.5t-87 50.5t-79.5 79.5t-60 115t-28 155q-1 18 -1 35q0 110 30 203t84.5 162.5t125 110.5t143.5 54zM241 607l412 21q7 12 11 24t4 28q0 10 -1 22q-3 21 -18.5 50
t-42 55.5t-63 45t-81.5 18.5q-54 0 -93.5 -23.5t-66 -61t-41.5 -84.5t-20 -95z" />
    <glyph glyph-name="f" unicode="f" horiz-adv-x="616" 
d="M-15 887l63 67h124q5 159 42.5 266t92 173.5t117 100.5t116.5 47q19 4 42 4q32 0 65 -8t62 -20t52 -26t36 -26q2 -8 3.5 -15t3.5 -12l2 -6t2 -5q-23 -48 -42.5 -74.5t-37.5 -49.5q-16 -2 -23 -3q-2 -1 -5 -1t-6 -1q-57 54 -109.5 79t-94.5 25q-33 0 -55 -16
q-19 -14 -37 -43t-32 -79.5t-22.5 -125.5t-8.5 -181v-3h250q9 -9 14 -13q6 -6 13.5 -12.5t14.5 -12.5q-19 -24 -40 -46.5t-44 -42.5q-46 13 -94 16t-95 3h-19q0 -100 -0.5 -199t-0.5 -184v-204q0 -23 1 -37q1 -37 6 -63.5t25 -44.5t60.5 -28.5t113.5 -16.5v-70
q-58 1 -108.5 1.5t-98.5 0.5q-79 0 -152 -1.5t-153 -3.5v68q50 9 78.5 18.5t43 25.5t18 41.5t3.5 66.5v630h-161z" />
    <glyph glyph-name="g" unicode="g" horiz-adv-x="931" 
d="M-6 -220q6 19 18 42.5t38 51.5t69 60.5t112 71.5q-55 16 -90 36.5t-54.5 42t-26.5 43t-7 39.5q26 43 68 86t108 78q-104 50 -151 146q-29 60 -30 98.5t-1 43.5q0 66 25 131t80.5 121.5t142.5 87.5q72 25 140 25q54 0 101.5 -15t88.5 -41q61 3 112.5 12.5t89 20t59 19
t22.5 9.5q9 -12 17 -21.5t16 -21.5q-17 -29 -43.5 -59.5t-55.5 -49.5q-8 -1 -15 -1h-15q-23 0 -44.5 1.5t-43.5 3.5l-5 -7q22 -33 33 -65q20 -55 21 -88.5t1 -38.5q0 -56 -19.5 -112t-64.5 -108t-120 -88q-85 -41 -172 -41q-37 0 -77 8q-36 -23 -58 -52t-27 -56
q8 -20 88 -42.5t254 -36.5q95 -8 161 -33.5t106 -62t55.5 -77.5t15.5 -80q0 -6 -1.5 -31.5t-22 -68t-53.5 -76.5q-45 -48 -101 -81.5t-117.5 -54.5t-127 -30.5t-130.5 -9.5q-23 0 -45.5 1t-45.5 3q-101 9 -160 44t-87.5 78t-32 71t-3.5 41q0 20 5 33zM226 564
q32 -97 88 -136t119 -39q42 0 86 14q29 16 53.5 39t39.5 57t15.5 58.5t0.5 26.5q0 45 -18 106q-19 62 -44 101t-53.5 60.5t-58.5 29.5t-59 8q-21 0 -41 -3q-32 -9 -64 -35.5t-54 -68.5t-25 -74.5t-3 -43.5q0 -46 18 -100zM354 -359q48 -7 95 -7q85 0 144.5 18.5t91.5 37.5
q49 42 65.5 80.5t16.5 64.5v3q0 30 -16.5 52.5t-53.5 38.5t-97 26.5t-147 16.5q-63 4 -114 12q-77 -32 -128.5 -82.5t-56 -80t-4.5 -36.5q0 -44 43 -85t161 -59z" />
    <glyph glyph-name="h" unicode="h" horiz-adv-x="1099" 
d="M28 1429q29 6 67 15t80 20t84 23.5t79 26.5q9 -11 17 -19.5t21 -25.5q-2 -9 -4.5 -35t-4.5 -62.5t-4.5 -80t-4.5 -86.5t-3.5 -82.5t-2.5 -67.5q-2 -23 -2.5 -65t-0.5 -97v-78q78 67 165 111.5t193 44.5q70 -3 114 -34.5t68.5 -77t33.5 -99t9 -101.5v-436q0 -41 2.5 -67.5
t16 -44t41.5 -28t79 -19.5v-68q-80 2 -150 3.5t-137 1.5q-40 0 -79 -0.5t-78 -1.5v70q52 6 81 18.5t42.5 32t16.5 47t3 63.5v395q0 40 -9 76t-27.5 64t-47 46t-68.5 21q-4 0 -7.5 0.5t-8.5 0.5q-51 0 -116 -26.5t-138 -95.5v-300q0 -67 0.5 -115.5t0.5 -67.5
q1 -38 3.5 -65.5t15 -46t40 -30t78.5 -17.5v-70q-39 1 -77.5 1.5t-78.5 0.5q-66 0 -137 -1.5t-153 -3.5v69q51 9 80 18t43 25.5t17 45t3 77.5v805q0 60 0.5 102.5t0.5 68.5v43q0 71 -24 97.5t-64 26.5q-29 0 -68 -11v66z" />
    <glyph glyph-name="i" unicode="i" horiz-adv-x="492" 
d="M102 1304q0 24 9.5 46t26 38t38 25.5t46.5 9.5q49 0 82.5 -35t33.5 -84q0 -50 -33.5 -84.5t-82.5 -34.5q-50 0 -85 34.5t-35 84.5zM12 820v72q29 6 65 14t75 17.5t79.5 21.5t77.5 26q10 -12 19 -21.5t22 -26.5q-4 -12 -7 -52t-5 -95.5t-3 -120t-1 -125.5q0 -88 0.5 -165
t1.5 -143q1 -36 4 -62.5t17 -45t42.5 -29.5t80.5 -17v-69q-38 1 -77 1.5t-81 0.5q-68 0 -141.5 -1.5t-155.5 -3.5v68q53 9 82.5 18.5t43.5 26t16.5 42t2.5 65.5v146q0 167 1 252.5t1 116.5q0 59 -23 80.5t-59 21.5q-17 0 -37 -3.5t-41 -9.5z" />
    <glyph glyph-name="j" unicode="j" horiz-adv-x="409" 
d="M127 1304q0 24 9.5 46t25.5 38t37.5 25.5t46.5 9.5t46.5 -9.5t37.5 -25.5t25.5 -38t9.5 -46q0 -51 -34.5 -85.5t-84.5 -34.5t-84.5 34.5t-34.5 85.5zM-129 -441q7 11 17 27t22 31t25 25.5t28 10.5q4 0 12 -2q14 -5 30 -8.5t33 -3.5q38 0 64 18t44 47t28 66t15 75t6.5 73
t1.5 61q0 55 -0.5 120.5t-0.5 122.5q-1 34 -1 67v214q0 63 0.5 108t0.5 74v45q0 60 -24.5 82.5t-60.5 22.5q-17 0 -35.5 -4t-37.5 -10v72q29 6 65 14t75 17.5t79 21.5t77 26q8 -12 18 -21t22 -26q-3 -12 -6 -52t-5 -96t-3.5 -121t-1.5 -126q0 -126 3.5 -217t3.5 -155
q0 -42 -2 -112t-19 -154.5t-60 -151.5q-43 -75 -84 -126t-86 -83.5t-97 -48.5t-117 -20h-7q-23 0 -32.5 11t-9.5 26.5t6 32t14 27.5z" />
    <glyph glyph-name="k" unicode="k" horiz-adv-x="1086" 
d="M8 1361v70q32 7 70.5 16t79.5 20t82 23.5t78 26.5q8 -11 18 -20.5t21 -26.5q-3 -13 -7 -62t-7 -111.5t-5.5 -125.5t-2.5 -105q-1 -19 -1.5 -52.5t-1 -78t-1 -97.5t-0.5 -110v-155q45 13 95.5 41t102.5 83q23 23 53.5 54t54.5 58q25 29 28.5 40t3.5 15q0 9 -8 15.5
t-30.5 8t-53.5 1.5v62q31 -1 78.5 -1.5t104.5 -0.5t117 0.5t114 1.5v-62q-48 -1 -78.5 -9.5t-62.5 -31.5q-24 -17 -51.5 -42t-63 -60t-80.5 -80.5t-103 -103.5q31 -45 70.5 -100.5t79 -109t74 -99t55.5 -70.5q19 -22 40 -43.5t48.5 -38t64 -27t85.5 -10.5v-68
q-50 2 -116.5 2.5t-138.5 0.5q-57 0 -112 -0.5t-105 -2.5q-1 6 -1 12v46q41 1 61.5 9t23 17t2.5 13q0 12 -9 30t-30 45q-45 55 -93 116.5t-96 124.5q-26 33 -44.5 45t-38.5 12q-9 0 -19 -2t-22 -4v-147q0 -32 0.5 -56t0.5 -34q1 -37 4 -64t15.5 -45t38.5 -29t74 -17v-69
q-26 1 -52 1h-158q-54 0 -111 -1t-123 -3v68q52 8 81 18t43.5 27t17.5 43.5t3 66.5v75q0 46 0.5 104.5t0.5 123t0.5 131.5t0.5 130v264q0 61 0.5 102.5t0.5 67.5v42q0 67 -23.5 91t-61.5 24q-17 0 -36 -3.5t-39 -9.5z" />
    <glyph glyph-name="l" unicode="l" horiz-adv-x="496" 
d="M16 1362v71q29 6 66.5 15t78.5 20t83 23.5t80 26.5q9 -11 18.5 -20.5t21.5 -26.5q-3 -12 -7 -59t-7.5 -108.5t-6 -127.5t-2.5 -116v-65q0 -52 -0.5 -130t-1 -163.5t-1 -171.5t-0.5 -155v-152q1 -37 4 -63.5t16.5 -45t41 -29.5t78.5 -17v-69q-38 1 -77 1.5t-81 0.5
q-68 0 -140 -1.5t-153 -3.5v69q51 8 80 17.5t43.5 26t18 43.5t3.5 70q0 120 0.5 250.5t0.5 264.5t0.5 268t0.5 260q0 65 -23 88t-58 23q-17 0 -37 -4t-40 -10z" />
    <glyph glyph-name="m" unicode="m" horiz-adv-x="1670" 
d="M345 968q9 -12 15 -17t17 -22q-3 -11 -5 -38t-4 -65q32 26 68 51.5t74.5 45.5t79 32.5t81.5 12.5q83 0 144.5 -40t98.5 -114q33 29 71.5 56.5t81 49t88 35t93.5 13.5h5l8 -1h5q70 -4 119 -35t80.5 -75.5t46 -97t14.5 -100.5v-441q0 -41 1.5 -67t13.5 -42t40 -25.5
t80 -18.5v-69q-82 2 -155 3.5t-141 1.5q-42 0 -81 -0.5t-77 -1.5v70q46 5 72 15.5t39 29t16 45.5t3 65q1 15 1.5 59t0.5 102v247q0 40 -9.5 75.5t-28 63t-47 45t-66.5 20.5q-5 1 -10 1h-10q-47 0 -104.5 -23t-122.5 -78q9 -39 9 -78v-440q0 -42 1.5 -67.5t14 -41.5t40 -25.5
t79.5 -18.5v-69q-81 2 -155 3.5t-143 1.5q-42 0 -80.5 -0.5t-75.5 -1.5v70q45 6 70.5 17t38.5 29t17 45t5 64q0 16 0.5 59.5t0.5 100.5v246q0 88 -38.5 143.5t-113.5 62.5q-71 0 -132.5 -34.5t-113.5 -79.5q-1 -23 -1.5 -46.5t-0.5 -48.5v-330q0 -36 1 -71q1 -38 2 -65
t12.5 -45.5t38 -29.5t78.5 -17v-70q-43 0 -86 0.5t-88 0.5q-65 0 -134 -1t-146 -3v69q47 7 74 16.5t40.5 26t17 43t3.5 68.5v123q0 60 0.5 121.5t0.5 125.5v134q0 60 -22 81.5t-57 21.5q-18 0 -38 -4t-42 -10v80q29 6 69.5 13.5t85 16.5t89.5 20.5t83 25.5z" />
    <glyph glyph-name="n" unicode="n" horiz-adv-x="1109" 
d="M17 895q61 11 138 30.5t156 48.5q9 -12 19 -19.5t21 -24.5q-3 -11 -5 -40.5t-4 -72.5q34 27 74.5 55t85.5 50t93 36t96 14h5l8 -1h5q72 -4 117.5 -36t71.5 -78t35.5 -100t9.5 -102v-437q0 -42 3.5 -68t17 -42t42 -25.5t77.5 -18.5v-68q-87 2 -161 2.5t-143 0.5h-73
q-36 0 -72 -1v71q49 6 76.5 17t41 29t17.5 44.5t5 64.5q1 15 1.5 57.5t0.5 99.5v247q0 40 -10 76t-30.5 63.5t-50 45t-68.5 20.5q-5 1 -10 1h-10q-55 0 -121 -29t-138 -98q-1 -22 -1 -43v-371q0 -36 1 -69q1 -37 4.5 -64t17 -45t41 -29t76.5 -17v-71q-46 1 -91 1.5t-92 0.5
q-61 0 -126 -1t-139 -3v68q50 9 78.5 19.5t42.5 27t18 42t4 64.5v149q0 57 0.5 118.5t0.5 115.5v125q0 63 -23 86t-59 23q-32 0 -74 -13v74z" />
    <glyph glyph-name="o" unicode="o" horiz-adv-x="1027" 
d="M557 978q67 0 139.5 -27.5t133.5 -84.5t101 -143t41 -203q0 -145 -49 -247.5t-123.5 -167t-163 -94.5t-168.5 -30q-78 0 -153 28.5t-133.5 88t-94 150.5t-35.5 216q0 113 40.5 207.5t109.5 162.5t161 106t194 38zM239 380q12 -64 38 -117t63.5 -91t84.5 -59t102 -21
q72 0 147 36q48 41 75 100t35 113.5t8 97.5q0 27 -4.5 77t-23.5 115q-15 49 -41 91t-61 73t-79.5 48.5t-96.5 17.5q-56 0 -116 -22q-41 -25 -72.5 -68.5t-50 -102.5t-20 -101.5t-1.5 -53.5q0 -63 13 -133z" />
    <glyph glyph-name="p" unicode="p" horiz-adv-x="1082" 
d="M275 986l63 -36v-123q53 47 95.5 75t77 44.5t62 24t48.5 11.5q6 1 12.5 1.5t14.5 0.5q47 0 108.5 -24.5t116.5 -76t93 -133t38 -195.5q0 -127 -38 -231t-105 -177.5t-159 -113.5t-200 -40q-48 0 -90.5 14t-77.5 33v-280q0 -28 1 -44q1 -37 3.5 -63.5t16 -45t42 -29.5
t80.5 -17v-63q-38 1 -77.5 1.5t-80.5 0.5q-68 0 -140 -1.5t-150 -3.5v61q53 9 82.5 19t44 26t17.5 41.5t3 65.5v290q0 117 -0.5 291t-1.5 422q0 114 -59 114q-17 0 -39 -8t-51 -23q-7 12 -12.5 28t-13.5 34q23 18 48 33t57 30t73.5 31t97.5 36zM729 161q120 102 120 295v25
q-2 79 -28 144.5t-66 112t-87.5 72.5t-92.5 26h-2q-149 0 -236 -153l-2 -444q53 -65 119 -90.5t128 -25.5q46 0 84.5 10.5t62.5 27.5z" />
    <glyph glyph-name="q" unicode="q" horiz-adv-x="1027" 
d="M76 418q0 129 39 233t108 177t162.5 112.5t201.5 39.5q59 0 108.5 -11t101.5 -39q24 14 48.5 28t44.5 25l30 -30q-22 -108 -24 -220l-4 -632v-381q1 -38 3.5 -64.5t16 -44.5t42 -29t81.5 -17v-67q-38 1 -77 1.5t-80 0.5q-68 0 -140.5 -1.5t-154.5 -3.5v64q53 10 82.5 20
t43.5 25.5t17 41t3 66.5q0 28 0.5 73.5t1 102t1 120.5t0.5 129q-52 -47 -99 -77t-87 -47t-72 -23.5t-53 -6.5q-26 0 -61.5 8.5t-74 29t-76 53.5t-67 81t-48 113.5t-18.5 149.5zM241 489q3 -84 26.5 -151t59.5 -113t80 -70.5t87 -24.5q79 0 137.5 37t100.5 103v158
q0 55 -0.5 90t-1 59t-1 42.5t-0.5 40.5v54l-1 30q-47 61 -102.5 86t-110.5 25q-45 0 -84 -13.5t-68 -35.5q-69 -54 -95.5 -127.5t-26.5 -168.5v-21z" />
    <glyph glyph-name="r" unicode="r" horiz-adv-x="748" 
d="M15 894q29 5 64 13t73.5 18t78.5 22.5t78 26.5q10 -12 19 -19.5t20 -24.5q-5 -14 -7.5 -56.5t-4.5 -100.5l6 -4q63 94 127.5 151t130.5 57q17 0 32 -4q65 -16 84.5 -52t19.5 -64q0 -24 -11 -50q-15 -35 -41.5 -52t-52.5 -17q-32 0 -52 21q-13 16 -30.5 25t-38.5 9
q-28 0 -55 -15.5t-50 -38.5t-41 -49.5t-30 -49.5v-255q0 -45 0.5 -86t1.5 -76q1 -45 9.5 -72.5t29 -44t54.5 -24.5t87 -14v-70q-46 1 -97 1.5t-105 0.5q-71 0 -143.5 -1t-144.5 -3v68q51 8 80 18t43.5 27t17.5 43.5t3 67.5v126q0 169 0.5 265.5t0.5 128.5q0 60 -21 82.5
t-55 22.5q-17 0 -37.5 -4.5t-42.5 -11.5v65z" />
    <glyph glyph-name="s" unicode="s" horiz-adv-x="768" 
d="M77 302q13 0 28.5 -2t26.5 -7q3 -28 18.5 -66t43.5 -70q36 -38 82 -62t96 -24q25 0 50 7t49 23q56 37 61 64t5 38q0 32 -21.5 69.5t-70.5 76.5t-107 68q-61 31 -109 62t-80.5 67t-49.5 79.5t-17 98.5q1 60 27.5 108t68.5 81t95.5 50.5t108.5 17.5q71 0 136 -20t125 -52
l11 -24q-9 -45 -20.5 -89t-27.5 -86q-19 1 -29.5 2t-24.5 4q0 41 -14 75t-39 59t-59 39t-74 14q-45 0 -83 -18q-35 -26 -49.5 -53t-14.5 -59q1 -51 47 -102.5t157 -103.5q84 -40 137.5 -74.5t84 -70t42.5 -74.5t13 -89v-5q0 -46 -18 -87.5t-49.5 -75t-72.5 -57.5t-85 -37
q-29 -8 -61 -11.5t-67 -3.5q-75 0 -148 14.5t-119 36.5q-4 5 -7.5 9t-5.5 9l-9 19q0 35 2 69.5t4.5 65t6 56t6.5 41.5z" />
    <glyph glyph-name="t" unicode="t" horiz-adv-x="664" 
d="M70 959h124q1 20 1 41v129l110 125l50 -28v-77q0 -36 -0.5 -84.5t-0.5 -105.5h257q8 -8 13 -12q6 -5 12.5 -11.5t13.5 -12.5q-10 -14 -24 -29.5t-27 -29.5l-12 -12l-8 -7l-12 -12q-51 13 -105.5 16t-107.5 4q0 -112 -1 -225t-1 -207v-107q0 -57 9 -96t25 -62t38 -33
t48 -10q35 0 74.5 13.5t79.5 33.5q8 -16 14.5 -33.5t14.5 -36.5q-65 -51 -136.5 -80.5t-128.5 -33.5h-9q-55 0 -92 21.5t-59.5 60.5t-32.5 93.5t-10 121.5q0 81 2 223t4 357h-159l-24 43z" />
    <glyph glyph-name="u" unicode="u" horiz-adv-x="1068" 
d="M25 914q72 19 134 32.5t111 27.5q9 -9 19.5 -20t21.5 -22q-1 -11 -1.5 -27.5t-0.5 -37.5v-165q0 -45 -0.5 -104t-0.5 -126v-127q0 -81 36 -138t110 -63h5l8 -1h5q47 0 110.5 26.5t136.5 103.5q1 42 1.5 83.5t0.5 83.5q0 70 -0.5 135.5t-0.5 125.5q0 42 -3 70.5t-15.5 46
t-38 25.5t-70.5 9v60q64 13 104 21.5t67 14.5t46 11t40 11q10 -9 23 -22t19 -22q-2 -19 -3 -36t-2 -35t-1 -38v-226q0 -78 -0.5 -140t-0.5 -113v-97q0 -62 22.5 -84t57.5 -22q32 0 74 13v-72q-63 -12 -144 -30.5t-156 -46.5q-10 11 -16 17t-17 22q3 10 5.5 40t4.5 73
q-33 -28 -71 -55.5t-80 -49t-86.5 -35t-90.5 -13.5h-5l-8 1h-5q-70 4 -114 36t-68.5 77.5t-33.5 98.5t-9 99v442q0 20 -1 38t-10 32t-30.5 22.5t-62.5 8.5h-16q-1 10 -1 20q0 6 0.5 16.5t0.5 24.5z" />
    <glyph glyph-name="v" unicode="v" horiz-adv-x="1024" 
d="M10 962q42 -2 84 -3t85 -1q65 0 133 1t142 3v-73q-42 -5 -70 -10.5t-42.5 -16t-15.5 -19.5t-1 -11q0 -15 9 -38q5 -13 16.5 -44.5t27 -73.5t33.5 -90.5t36 -96.5q21 -57 44 -119t49 -131l13 -4q12 32 24.5 64.5t25.5 66.5q22 58 48 128t52 137q40 107 50 146t10 57
q0 17 -6 26q-5 8 -11.5 14t-17.5 10t-29 6.5t-46 2.5v65q26 -1 56 -1h62q67 0 133 1.5t111 3.5v-68q-34 -6 -59 -20t-46 -40t-41.5 -67t-45.5 -101q-13 -32 -31 -78t-39 -100t-44 -112.5t-45 -115.5q-26 -67 -52.5 -136.5t-55.5 -144.5l-93 -5q-38 99 -72.5 189t-66.5 173
q-27 70 -53.5 139.5t-49 128.5t-39 102t-22.5 61q-12 33 -24 55.5t-28.5 37t-39.5 23t-58 14.5v65z" />
    <glyph glyph-name="w" unicode="w" horiz-adv-x="1510" 
d="M16 890v69q37 -3 74.5 -4t77.5 -1q61 0 125 1.5t133 3.5v-78q-37 -5 -57.5 -14.5t-27.5 -22.5t-7 -26q0 -5 1.5 -17t10.5 -37q5 -14 14.5 -42.5t21.5 -65t25.5 -79t27.5 -84.5q16 -50 33 -103.5t36 -111.5l17 -4q25 45 54.5 104t56.5 121.5t47 123t24 108.5q2 10 2 21
q0 8 -2 21.5t-3 16.5q-9 23 -16.5 39.5t-19.5 28t-31.5 19t-51.5 13.5v69q40 -2 79 -3t78 -1q60 0 121 1t130 3v-78q-38 -5 -58.5 -14.5t-27 -22.5t-6.5 -26q0 -5 2 -17.5t11 -37.5q5 -14 14 -42t21 -65t25.5 -79t27.5 -84q16 -50 33 -103.5t36 -111.5l10 -4
q36 102 70 203.5t65 205.5q20 64 31 99.5t11 58.5q0 18 -17 31t-74 13v69q19 -1 41 -1.5t46 -0.5q58 0 119 2t106 5v-72q-28 -6 -50 -16t-41 -31.5t-37.5 -57.5t-40.5 -94q-12 -31 -29 -78t-37 -103t-41.5 -117t-42.5 -120q-25 -70 -50.5 -143.5t-52.5 -152.5h-63
q-19 57 -38 112t-39 112q-17 48 -35 100t-36 105t-36 104.5t-34 97.5q-75 -157 -144 -314.5t-138 -316.5h-64q-35 103 -67 196t-61 178q-25 72 -49.5 144t-45.5 132.5t-36 105t-21 61.5q-11 32 -20.5 49t-23 26t-33.5 13.5t-53 10.5z" />
    <glyph glyph-name="x" unicode="x" horiz-adv-x="1047" 
d="M17 -1v66q44 9 84 32.5t84.5 65.5t95.5 105t117 152q18 27 41 51q-18 26 -34 49t-28 42q-46 72 -80 123t-60 86.5t-47.5 57t-43 34t-46 18t-57.5 8.5v67q59 -2 114.5 -3t109.5 -1t108 1t109 3v-67q-47 -3 -69 -14t-22 -33q0 -1 0.5 -14t25.5 -55.5t72 -108.5
q9 -11 24 -31.5t33 -45.5q11 11 20.5 23t18.5 24q60 79 91 128t33 64.5t2 19.5q0 22 -20.5 32t-67.5 13v69q47 -2 98 -3t103 -1t102 1t94 3v-71q-82 -8 -172.5 -88.5t-201.5 -233.5l-44 -56q20 -27 36.5 -51t27.5 -39q66 -94 111 -159.5t84 -107.5t77.5 -63.5t90.5 -28.5
v-66q-57 2 -120.5 3t-124.5 1t-115.5 -1t-94.5 -3v70q53 0 77 8.5t24 30.5q0 2 -1 15.5t-29 59t-82 118.5q-9 11 -26 34.5t-38 52.5q-20 -24 -35.5 -43.5t-24.5 -32.5q-53 -71 -84.5 -118.5t-34.5 -64.5t-3 -21q0 -21 20 -32t74 -12v-61q-35 2 -75 3t-82 1
q-71 0 -135.5 -1.5t-103.5 -3.5z" />
    <glyph glyph-name="y" unicode="y" horiz-adv-x="1026" 
d="M-16 -401q7 15 17.5 33t23 33.5t28 26.5t31.5 11q3 0 11 -2q37 -10 71 -10q36 0 65 12t54 35q42 40 77.5 110t83.5 175q-14 36 -39.5 100t-56 141t-62 159.5t-59 154.5t-48 125.5t-26.5 73.5q-12 33 -23 53.5t-26.5 32.5t-39 19t-60.5 14v65q44 -3 87.5 -4t88.5 -1
q64 0 130.5 1.5t138.5 3.5v-73q-43 -5 -71 -11t-42 -16.5t-14.5 -19.5t-0.5 -11q0 -15 9 -38q5 -15 16.5 -46t27 -72t33.5 -88.5t36 -94.5q21 -56 44 -116.5t48 -126.5l10 -5q12 32 24.5 64t25.5 64q22 57 47.5 122.5t48.5 126.5q21 56 35 96t21.5 68t8 37.5t0.5 11.5
q0 15 -5 25q-5 7 -12 13.5t-18 11t-29 7t-46 2.5v65q26 -2 57 -2h62q69 0 136 2t111 4v-68q-33 -5 -57.5 -18t-45.5 -38t-41 -63.5t-44 -93.5q-11 -27 -31.5 -78t-47.5 -117.5t-58 -143.5t-63 -155t-63 -153t-57 -137.5t-46 -108.5t-30 -66q-30 -63 -72 -107t-89 -71
t-96 -39.5t-93 -12.5q-31 0 -58 6t-39 17t-13.5 20.5t-1.5 13.5q0 10 4 23t12 28z" />
    <glyph glyph-name="z" unicode="z" horiz-adv-x="872" 
d="M86 947l21 19q27 -2 64.5 -3.5t81.5 -2t93 -1t100 -0.5h334q4 -12 11 -26l15 -30q-30 -43 -69 -100t-82.5 -120.5t-89.5 -131t-89 -131.5q-51 -75 -103.5 -153t-107.5 -159q51 -2 96.5 -3t87.5 -1q82 0 143 8t99 34q23 18 38.5 42.5t25.5 48t16 42t10 25.5l62 -19
l-57 -264l-19 -19q-3 -3 -5 -3q-43 0 -102 0.5t-126 1.5t-136.5 1.5t-133.5 0.5t-117.5 -1t-87.5 -3l-19 47q8 12 34.5 53.5t65 101.5t85 133t94.5 147q56 88 117.5 184.5t130.5 204.5q-51 0 -94.5 1t-81.5 1q-79 0 -131 -8.5t-79 -40.5q-28 -34 -47 -72.5t-33 -80.5l-63 16
z" />
    <glyph glyph-name="braceleft" unicode="{" horiz-adv-x="1061" 
d="M451 956q-17 77 -17 141q0 40 12 102.5t58.5 125.5t113 101t136.5 58q4 -7 7.5 -13t5.5 -11q4 -8 5 -12q-86 -38 -129.5 -87t-56 -98.5t-12.5 -94.5q0 -19 4 -62.5t17 -116.5q12 -70 16 -115t4 -66q0 -44 -10.5 -93t-48.5 -94t-113 -70v-6q74 -24 112 -68t49.5 -93.5
t11.5 -95.5q0 -19 -3.5 -63t-16.5 -116q-13 -71 -17.5 -115.5t-4.5 -65.5q0 -43 12 -93t55.5 -100t129.5 -87q-1 -2 -1.5 -5t-2.5 -6q-2 -5 -5 -11.5t-7 -13.5q-72 20 -138.5 59t-112 102t-57.5 125.5t-12 101.5q0 63 17 138q22 96 22 161q0 5 -1 41.5t-21.5 76.5
t-55.5 57.5t-77 22.5q-17 -2 -34.5 -3.5t-34.5 -5.5l-17 54q47 15 97 36t86 64t44.5 92t8.5 78q0 61 -18 144z" />
    <glyph glyph-name="bar" unicode="|" horiz-adv-x="473" 
d="M159 390v508q0 121 0.5 227t0.5 191v223q24 18 49 33.5t51 29.5l47 -31q-1 -383 -1.5 -761.5t-0.5 -761.5v-639q-21 -17 -39 -28.5t-31 -19.5q-8 -5 -15 -9l-13 -6l-49 30v533q0 252 1 481z" />
    <glyph glyph-name="braceright" unicode="}" horiz-adv-x="1082" 
d="M459 109q-12 71 -16.5 116.5t-4.5 67.5q0 42 10.5 90t48 93t113.5 71v5q-74 24 -112 68t-49 93.5t-11 95.5q0 19 3.5 63.5t16.5 116.5q13 71 17.5 115t4.5 64q0 44 -12.5 94t-55.5 100t-129 88q1 2 1.5 5t2.5 6q2 5 4.5 11t7.5 14q72 -20 138.5 -59t111.5 -102.5t57 -126
t12 -101.5q0 -63 -17 -138q-21 -94 -21 -158q0 -6 1.5 -43t21.5 -77.5t55 -58t77 -22.5q15 2 28 3.5t22 3.5q5 1 10 1.5t9 1.5l16 -54q-48 -15 -98 -36t-85.5 -64.5t-43.5 -92t-8 -77.5q0 -61 18 -144q16 -75 16 -138q0 -41 -12 -104.5t-58.5 -126.5t-112.5 -101.5
t-137 -57.5q-8 11 -13 24q-4 8 -5 12q86 37 129.5 86.5t56.5 99.5t13 96q0 19 -4 62t-17 115z" />
    <glyph glyph-name="asciitilde" unicode="~" horiz-adv-x="949" 
d="M38 465q28 35 57.5 69t63 61.5t73 44.5t87.5 17q52 0 97 -16.5t86 -37t81 -37t82 -16.5q34 0 65.5 17t56 38t40.5 39.5t18 20.5l54 -48q-26 -31 -55 -65.5t-62.5 -63t-72.5 -47t-84 -18.5q-37 0 -86 17t-98 37t-92.5 37t-70.5 17q-35 0 -62 -11.5t-49 -29t-39.5 -37
t-32.5 -35.5z" />
    <glyph glyph-name="tilde" unicode="&#x2dc;" horiz-adv-x="967" 
d="M38 465q28 35 57.5 69t63 61.5t73 44.5t87.5 17q52 0 97 -16.5t86 -37t81 -37t82 -16.5q34 0 65.5 17t56 38t40.5 39.5t18 20.5l54 -48q-26 -31 -55 -65.5t-62.5 -63t-72.5 -47t-84 -18.5q-37 0 -86 17t-98 37t-92.5 37t-70.5 17q-35 0 -62 -11.5t-49 -29t-39.5 -37
t-32.5 -35.5z" />
    <glyph glyph-name="uni0964" unicode="&#x964;" horiz-adv-x="842" 
d="M457 0q1 16 1.5 48.5t0.5 77.5v883q0 18 -0.5 40.5t-0.5 44.5t-0.5 40.5t-0.5 26.5q3 4 11.5 12.5t17.5 13.5q5 -5 16 -15.5t23 -22t22.5 -21.5t14.5 -14l-1 -38v-248q0 -82 -0.5 -170.5t-0.5 -178.5v-379q0 -17 0.5 -41.5t1 -47.5t1 -41t0.5 -22q-6 -7 -16.5 -13.5
t-18.5 -11.5q-4 3 -14.5 14t-21.5 23.5t-21 24t-14 15.5z" />
    <glyph glyph-name="uni0965" unicode="&#x965;" horiz-adv-x="842" 
d="M289 11q1 15 1.5 47.5t0.5 77.5v883q0 18 -0.5 41t-0.5 45t-0.5 40t-0.5 26q3 5 11.5 13.5t17.5 13.5q5 -5 16 -15.5t23 -22.5t22.5 -22t14.5 -14l-1 -38v-247q0 -82 -0.5 -170.5t-0.5 -178.5v-379q0 -17 0.5 -41.5t1 -47.5t1 -41t0.5 -22q-6 -7 -16.5 -14t-18.5 -11
q-4 3 -14.5 14t-21.5 23.5t-21 24t-14 15.5zM643 1198q5 -5 16 -15.5t23 -22.5l36 -36v-139q0 -63 -0.5 -145.5t-0.5 -171.5t-0.5 -178t-0.5 -165v-214q0 -17 0.5 -41.5t1 -47.5t1 -41t0.5 -22q-5 -7 -15.5 -14t-19.5 -11q-4 3 -14 14t-21 23.5t-21 24t-14 15.5
q1 15 1.5 47.5t0.5 77.5v883q0 18 -0.5 41t-0.5 45t-0.5 40t-0.5 26q2 5 10.5 13.5t18.5 13.5z" />
    <glyph glyph-name="uni0981" unicode="&#x981;" 
d="M-401 1679q0 32 23.5 55.5t56.5 23.5q32 0 55.5 -23.5t23.5 -55.5q0 -33 -23.5 -56t-55.5 -23q-33 0 -56.5 23t-23.5 56zM-664 1713q5 -1 10 -1h34q10 0 17.5 -0.5t8.5 -1.5q12 -37 35 -77t57.5 -73t80 -54.5t101.5 -21.5q44 0 80.5 17.5t63.5 47.5t43.5 69t21.5 82
q10 -6 26 -16t26 -18q0 -55 -17 -107t-49 -92.5t-79 -65t-108 -24.5q-72 0 -130.5 30t-103 78t-74 108t-44.5 120z" />
    <glyph glyph-name="uni0982" unicode="&#x982;" horiz-adv-x="770" 
d="M154 1149q35 32 82 49t98 17q54 0 104.5 -20t88.5 -62q34 -37 51.5 -82.5t18 -70.5t0.5 -28q0 -44 -15.5 -87t-48.5 -77q-38 -39 -87.5 -59t-101.5 -20q-53 0 -103 20.5t-89 62.5q-37 41 -57.5 87.5t-21.5 71.5t-1 29q0 43 19.5 86.5t62.5 82.5zM202 845q20 -20 46.5 -30
t56.5 -10q34 0 68.5 12.5t62.5 38.5q25 24 41 53t20 52t4 38t-4 37t-24 47q-19 15 -47.5 25t-60.5 10q-33 0 -67.5 -12.5t-66.5 -43.5q-29 -27 -42.5 -57t-14.5 -47t-1 -22q0 -24 7.5 -48t21.5 -43zM110 576q53 -32 130 -92t163 -142.5t174.5 -183.5t163.5 -216q-1 -1 -9 -7
q-6 -4 -13 -9l-8 -6q-7 -5 -13 -10q-8 -5 -9 -6q-71 90 -142 162.5t-142 131t-142.5 105.5t-142.5 85q0 2 -4 17t-9 35.5t-11 42.5t-10 38l-7 28q2 0 14 12t17 15z" />
    <glyph glyph-name="uni0983" unicode="&#x983;" horiz-adv-x="770" 
d="M132 1168q35 32 81.5 48.5t96.5 16.5q54 0 105 -20t90 -62q33 -36 50.5 -81.5t18 -70.5t0.5 -28q0 -44 -15 -87t-48 -78q-38 -38 -87.5 -58t-103.5 -20q-53 0 -102.5 20t-87.5 62q-37 41 -58 87.5t-21.5 71t-0.5 27.5q0 44 19 88.5t63 83.5zM180 864q20 -20 47 -30.5
t57 -10.5q35 0 69 12.5t61 38.5q25 24 41 53.5t20 52t4 37.5t-4.5 38t-23.5 47q-19 15 -47.5 25t-60.5 10q-33 0 -67.5 -12.5t-66.5 -43.5q-29 -27 -42.5 -57t-14.5 -47t-1 -22q0 -24 7.5 -48t21.5 -43zM132 518q35 32 81.5 49t97.5 17q53 0 104 -20t90 -62
q33 -37 50.5 -82.5t18 -70.5t0.5 -28q0 -44 -15 -87t-48 -77q-38 -38 -87.5 -58t-103.5 -20q-53 0 -102.5 20t-87.5 62q-38 41 -58.5 87.5t-21 71t-0.5 26.5q0 45 19.5 89t62.5 83zM180 214q20 -20 46.5 -30t56.5 -10q34 0 68.5 12.5t62.5 38.5q25 24 41 53.5t20 52.5t4 38
t-4 37.5t-24 46.5q-19 15 -47 24.5t-60 9.5q-33 0 -68 -12.5t-67 -43.5q-29 -27 -42.5 -57t-14.5 -47t-1 -21q0 -24 7.5 -48t21.5 -44z" />
    <glyph glyph-name="uni0985" unicode="&#x985;" horiz-adv-x="1538" 
d="M-112 1183l15 25h1553l58 -58l-18 -28h-154v-244q0 -73 0.5 -150.5t0.5 -150.5v-248q1 -125 2.5 -215t7.5 -135l-38 -27q-5 4 -14 12.5t-18 17.5l-18 19q-9 8 -14 12l-1 1v2q-18 50 -44 98.5t-57 92.5t-65.5 81.5t-70.5 66.5q-23 -40 -60 -70.5t-80.5 -51.5t-91 -32
t-91.5 -11q-62 0 -126 19.5t-126 62.5t-120.5 110.5t-108.5 163.5q-33 62 -60 125t-49 121.5t-39 109.5l-30 90q10 6 26.5 11.5t25.5 6.5l37 -75q11 -23 23.5 -46t25.5 -48q39 -127 95 -222t122 -158.5t137 -95.5t140 -32q87 0 161 50q66 34 96 88t34.5 93.5t4.5 60.5
q0 35 -9 77.5t-26 72.5q-31 42 -74 67.5t-96 25.5q-17 0 -32.5 -3.5t-29.5 -8.5q3 -10 5 -19.5t2 -19.5q0 -23 -9 -45t-25.5 -38.5t-40.5 -26.5t-54 -10q-25 0 -48.5 11t-41 29.5t-28 43.5t-10.5 52q0 11 1 14v5l1 3q6 40 28 67.5t53 44t67.5 23.5t71.5 7q36 -1 78 -11.5
t84.5 -32t82.5 -55t73 -81.5q57 -81 69 -149.5t12 -112.5q0 -47 -9 -93q36 -39 67 -83.5t55.5 -87.5t42.5 -81.5t29 -66.5l4 2q-2 13 -3.5 33t-2 43t-1 47t-0.5 46v318q0 82 -0.5 160t-0.5 144v186h-1300z" />
    <glyph glyph-name="uni0986" unicode="&#x986;" horiz-adv-x="1951" 
d="M-112 1183l15 25h1486q59 -2 107.5 -35.5t85.5 -83.5t61.5 -107.5t35.5 -107.5h3q0 53 -2.5 111t-9 115.5t-18.5 114t-31 106.5l61 28q14 -32 35.5 -69.5t43.5 -57.5q18 -6 48 -10t59 -4l58 -60l-18 -26h-13q-46 0 -76.5 8t-67.5 20q3 -31 5.5 -70.5t4 -81t2.5 -82.5
t1 -76q0 -73 1 -170.5t1 -220.5q0 -200 1 -319t2 -164q-5 -6 -16 -16t-19 -15q-17 14 -40 34.5t-36 37.5l4 740q-9 60 -28.5 117.5t-45 106t-56 85t-62.5 53.5q-25 13 -47 13h-102v-244q0 -73 0.5 -150.5t0.5 -150.5t0.5 -137t0.5 -111q0 -125 1.5 -215t7.5 -135l-38 -27
q-5 4 -14 12.5t-18 17.5l-31 31h-1v2q-18 51 -44 99.5t-57.5 93t-66 82.5t-70.5 66q-24 -40 -60.5 -71t-79.5 -52t-90 -32t-93 -11q-62 0 -126 19.5t-126 62.5t-120.5 110.5t-108.5 163.5q-33 62 -60 125t-49 121.5t-39 109.5l-30 90q10 6 26.5 11.5t25.5 6.5l37 -75
q11 -23 23.5 -46t25.5 -48q39 -127 95 -222t122 -158.5t137 -95.5t140 -32q87 0 161 50q66 34 96 88t34.5 93.5t4.5 60.5q0 35 -9 77.5t-26 72.5q-30 42 -74 67.5t-96 25.5q-17 0 -32.5 -3.5t-29.5 -8.5q3 -10 5 -19.5t2 -19.5q0 -23 -9 -45t-25.5 -38.5t-40.5 -26.5
t-54 -10q-25 0 -48.5 11t-40.5 29.5t-27.5 43.5t-10.5 52q0 45 20 76.5t52 51t71 28t78 8.5q37 -1 78.5 -11.5t84 -32t82.5 -55t74 -81.5q57 -81 69 -150.5t12 -112.5q0 -48 -9 -93q36 -39 66.5 -83t55 -87t42.5 -81.5t29 -66.5l4 2q-2 13 -3.5 33t-2 43t-1 47t-0.5 46v318
q0 82 -0.5 160t-0.5 144v186h-1279z" />
    <glyph glyph-name="uni0987" unicode="&#x987;" horiz-adv-x="1000" 
d="M-112 1183l15 25h774q24 15 45 33.5t34.5 40t15.5 37t2 21.5q0 20 -9 42q-12 17 -30.5 26t-40 14t-43.5 6t-41 1q-75 0 -166.5 -10.5t-188.5 -10.5q-61 1 -107 11t-80.5 26.5t-59.5 39.5t-44 51q-24 35 -30 66t-6 53q0 16 4 43t20.5 61t39.5 58q2 -2 10 -8.5t17.5 -14.5
t18.5 -15.5t14 -12.5q-18 -14 -36 -44.5t-18 -60.5q9 -43 40 -69.5t71.5 -40.5t84.5 -18.5t80 -4.5q33 0 73 2.5t80.5 5t77.5 5t64 2.5q75 0 138 -26.5t102 -80.5q42 -60 43.5 -93.5t1.5 -38.5q0 -54 -26 -96h92l59 -57l-18 -29h-542q42 -60 43 -119h22q65 0 124.5 -16
t108.5 -44t84.5 -64.5t52.5 -78.5q7 -18 13.5 -46t7 -46.5t0.5 -20.5q0 -32 -8 -71.5t-30 -82.5q-27 -54 -71 -96t-98 -73t-114 -50t-119 -26v-7q105 -36 203.5 -90t188 -116t167 -126.5t140.5 -122.5l-47 -53q-115 101 -220.5 174t-212 126.5t-219.5 92.5t-244 71
q-10 20 -22.5 43t-25.5 45t-24.5 41.5t-18.5 31.5q4 8 14.5 19t15.5 15q45 -18 89.5 -26t93.5 -8q76 0 145.5 17.5t127.5 48.5t101.5 74t67.5 95q18 42 18 93q0 5 -1 36.5t-33 76.5q-27 26 -71 42.5t-95 16.5q-55 0 -93 -12.5t-70 -36.5q2 -8 2 -19q0 -9 -2 -25.5t-16 -34.5
q-27 -36 -66.5 -53t-80.5 -17q-13 0 -26 2t-25 5q-20 6 -33 20t-18 29.5t-5 30.5q0 4 1 16t9 30q10 23 31 47.5t53 47.5t73.5 41t92.5 27q-16 83 -104 126h-352z" />
    <glyph glyph-name="uni0988" unicode="&#x988;" horiz-adv-x="1211" 
d="M-112 1183l15 25h1008q25 14 46.5 32.5t35.5 40.5t16 37.5t2 21.5q0 20 -9 42q-14 17 -36.5 27t-49 15t-53 6t-47.5 1q-54 0 -112.5 -3.5t-118 -8t-118.5 -8t-113 -3.5q-49 0 -95.5 4.5t-89 18.5t-79.5 39.5t-67 68.5q-23 33 -29 63t-6 53q0 15 3.5 41t20 60.5t41.5 61.5
q3 -2 10.5 -8.5t16.5 -14.5l19 -16q11 -7 15 -12q-18 -17 -36.5 -45t-18.5 -62q12 -58 78 -94.5t200 -38.5q140 0 254.5 9t205.5 9q75 0 143 -27.5t110 -87.5q36 -52 39 -86t3 -43q0 -49 -27 -93h65l58 -58l-17 -28h-825q27 -26 51.5 -63t33.5 -79h9q57 0 109.5 -22.5
t90.5 -62.5t56 -89.5t18 -99.5q0 -15 -1 -30q78 103 166 178.5t170 115.5q7 -6 20.5 -19t29.5 -29l31 -33q15 -17 26 -31q-72 -61 -114 -140.5t-61.5 -164.5t-20.5 -133t-1 -61q0 -68 7 -126q9 -77 21.5 -132t27 -94.5t29 -68t27.5 -52.5l-71 -41q-47 79 -77 183.5t-40 197
t-10 163.5q0 39 4.5 113.5t31.5 164.5q-2 1 -3.5 1.5t-3.5 0.5q-60 -49 -111 -109t-105 -126q-33 -40 -59 -71t-50 -56t-48.5 -46t-54.5 -40q-74 -45 -134 -45q-71 0 -134.5 58.5t-128.5 183.5q3 2 11.5 7.5t18 12.5t18.5 12.5t13 7.5q15 -25 31.5 -49.5t35.5 -45
t40.5 -35.5t45.5 -21q45 0 89.5 25t85 61.5t75 78t58.5 74.5q29 73 31 113t2 47q0 64 -27 115q-26 25 -60.5 36t-69.5 11q-33 0 -64.5 -8.5t-54.5 -24.5q16 -23 16 -52q0 -30 -12.5 -56.5t-33.5 -46t-48 -30.5t-57 -11q-24 0 -45.5 9t-37 25t-24.5 36.5t-9 42.5q0 28 10 61
t37 64t75.5 57t124.5 40q-2 16 -14 36t-31 40t-44 39t-52 33h-267z" />
    <glyph glyph-name="uni0989" unicode="&#x989;" horiz-adv-x="1234" 
d="M-112 1183l15 25h956q25 14 46.5 32.5t35.5 40.5t16 37.5t2 21.5q0 20 -9 42q-14 17 -36.5 27t-49 15t-53 6t-47.5 1q-54 0 -112.5 -3.5t-118 -8t-118.5 -8t-113 -3.5q-49 0 -95.5 4.5t-89 18.5t-79.5 39.5t-67 68.5q-23 33 -29 63t-6 53q0 15 3.5 41t19.5 60.5t42 61.5
q3 -2 10.5 -8.5t16.5 -14.5l19 -16q11 -7 15 -12q-18 -17 -36.5 -45t-18.5 -62q12 -58 78 -94.5t200 -38.5q140 0 254.5 9t205.5 9q75 0 143 -27.5t110 -87.5q36 -52 39 -86t3 -43q0 -49 -27 -93h141l58 -58l-17 -28h-621v-415q0 -26 5 -49t13 -35q11 -9 21.5 -12.5
t19.5 -3.5q11 0 23 4q11 3 36.5 17t59.5 43.5t72.5 76t75.5 113.5l48 12q115 -91 159 -183.5t44 -175.5q0 -37 -7 -76q-15 -81 -54.5 -149t-98.5 -117t-134.5 -76.5t-162.5 -27.5h-5q-106 0 -191 38.5t-151.5 105.5t-115.5 155.5t-84.5 187t-60.5 200.5t-43 195q9 4 25.5 7
t27.5 3q17 -46 34 -89.5t40 -100.5q27 -116 63.5 -203t78 -149.5t86.5 -103.5t89 -65.5t86 -35.5t77 -13q7 -1 13 -1h12q45 0 84.5 9t73.5 23t61.5 32t47.5 37q32 28 58 67t42 84t18.5 75.5t2.5 42.5q0 36 -9 70q-19 39 -44.5 59.5t-40.5 26.5q-72 -97 -153.5 -154.5
t-154.5 -67.5q-4 -1 -13 -1q-19 0 -43.5 10t-52.5 39q-40 42 -58 86t-18 96v389h-532z" />
    <glyph glyph-name="uni098A" unicode="&#x98a;" horiz-adv-x="1301" 
d="M-112 1183l15 25h1022q62 32 96.5 75t34.5 88q0 10 -1 20q-13 16 -35 25t-47 13.5t-51 5.5t-46 1q-52 0 -113 -5t-124 -10.5t-125 -10.5t-117 -5q-52 0 -97.5 5.5t-86 21t-75.5 43t-67 70.5q-18 26 -25 55.5t-7 55.5q0 10 2 33t18 60t46 69q9 -7 30 -24t33 -29
q-22 -16 -39 -44t-17 -55v-6q12 -60 79 -96t196 -38q22 0 58 1.5t79 3.5t90 5t91 5.5t81 4.5t61 3q97 -3 158.5 -32t101.5 -83q24 -34 30.5 -58.5t6.5 -41.5q0 -12 -4 -32t-19.5 -45.5t-37.5 -48.5h138l59 -58l-18 -28h-610v-411q0 -57 17 -89q8 -6 18.5 -10.5t25.5 -4.5
q10 0 22 3q11 3 36.5 17t58.5 43t71 75t74 112q5 2 22.5 5.5t25.5 5.5q43 -32 83.5 -76.5t69.5 -99.5t39 -104t10 -85q0 -33 -6 -68q-15 -81 -56 -150.5t-102 -120.5t-137 -79.5t-162 -28.5q-165 0 -292 67t-217 183t-143 272.5t-70 335.5q6 2 22 5.5t24 3.5
q11 -42 24.5 -90t29.5 -90q15 -74 42 -148t66.5 -139.5t92 -117.5t119.5 -82q-14 13 -24.5 26t-18.5 24q-43 61 -77 136t-59 156.5t-41 167t-22 166.5q8 3 22.5 4.5t26.5 1.5q11 -46 24 -85.5t24 -76.5q20 -120 49 -206.5t81 -161.5q28 -40 65 -77.5t79.5 -66t89.5 -45.5
t95 -17h6q5 0 8 -1q81 2 149.5 37t114.5 85q60 66 73.5 128.5t13.5 101.5q0 43 -11 84q-14 26 -34 48t-50 36q-30 -45 -69 -85t-82 -70t-87 -48t-83 -18h-3q-21 0 -46.5 14.5t-48.5 40.5q-32 35 -51.5 75.5t-19.5 100.5v391h-610z" />
    <glyph glyph-name="uni098B" unicode="&#x98b;" horiz-adv-x="1460" 
d="M112 1187h5q28 0 48.5 -10t32.5 -26t14 -28.5t2 -18.5q0 -13 -5 -26q13 -4 30 -4q39 0 79.5 23.5t75 57.5t60 73.5t33.5 70.5l38 9q46 -27 87.5 -63.5t77.5 -78t65.5 -85.5t52.5 -87q14 5 29 9.5t31 9.5v76q0 53 -6 100.5t-33 94.5q7 5 23.5 15.5t25.5 16.5
q19 -20 36 -50t34 -66q3 -19 5 -35.5t3 -35.5t1.5 -42t0.5 -55v-89t0.5 -134.5t1.5 -229.5q44 -39 79 -80.5t62 -80.5t46.5 -74t31.5 -62l9 2v0q-2 35 -4 80.5t-2 85.5v618q-6 74 -28 124t-60 98l53 39q15 -13 30 -31t28.5 -35.5t25 -32.5t19.5 -22h135l65 -68l-15 -18h-28
q-48 0 -86 2.5t-67 4.5q18 -54 18 -114.5t2 -145.5v-47q0 -19 0.5 -45t0.5 -66v-108q0 -77 0.5 -153t1.5 -142.5t3 -120t5 -86.5q-5 -5 -17.5 -13t-19.5 -12q-12 11 -27.5 23.5t-27.5 27.5l-1 2q-40 103 -102.5 177.5t-128.5 128.5v-166q0 -36 0.5 -79.5t2 -86t3 -79.5
t3.5 -59q-5 -5 -16.5 -10.5t-19.5 -9.5q-9 11 -24 22.5t-29 25.5q-28 94 -94.5 171t-153.5 132.5t-186.5 86t-193.5 30.5q-20 29 -46.5 63.5t-50.5 63.5l-28 35q33 34 87 82t129.5 102t173.5 108.5t219 100.5q-14 26 -32.5 53t-41.5 51.5t-49 44.5t-55 32
q-25 -46 -64.5 -86.5t-87.5 -70.5t-101.5 -47.5t-106.5 -17.5q-78 0 -127.5 34.5t-60.5 85.5q-2 13 -2 25q0 14 4 33t17.5 37.5t34.5 30.5t47 14zM302 539q59 -14 136 -41t155.5 -72t150.5 -110.5t120 -157.5l9 3q-2 28 -2.5 56.5t-0.5 73.5q0 139 -1 287.5t-1 299.5
q-70 -26 -141.5 -56t-143 -69.5t-142.5 -91.5t-139 -122z" />
    <glyph glyph-name="uni098F" unicode="&#x98f;" horiz-adv-x="1340" 
d="M210 938q13 -5 35 -20.5t32 -25.5q-56 -63 -75.5 -129.5t-19.5 -120.5q0 -22 6 -70t48 -109.5t117 -90.5q32 -11 65 -14.5t70 -3.5q35 0 73.5 2t84.5 4q13 1 25 1.5t25 0.5q60 0 115 -10.5t104 -36t89.5 -66.5t70.5 -103l4 3q-3 11 -4 34.5t-1 47.5v32l1 746q0 54 -22 82
t-44 30h-3q-22 0 -59 -14.5t-78.5 -40.5t-82.5 -60.5t-71.5 -72.5t-42 -69.5t-11.5 -52.5q0 -16 5 -32q4 1 12 1q21 0 42.5 -9t36.5 -26.5t18 -34t3 -24.5q0 -20 -8 -43q-12 -36 -46.5 -53.5t-72.5 -17.5q-29 0 -49 8q-48 18 -73 66t-25 102q0 26 5 56q11 64 47.5 128.5
t111.5 131.5q37 34 78.5 62.5t82.5 49t79.5 32.5t70.5 13q39 -3 73.5 -26t60.5 -53.5t41 -63.5t15 -56l2 -745v-54q0 -38 1 -82.5t2.5 -88.5t4.5 -72l-39 -27l-55 55q-32 122 -128.5 176.5t-242.5 54.5q-51 0 -108 -6q-24 -2 -46.5 -3.5t-43.5 -1.5q-82 0 -146.5 17.5
t-113 49.5t-83 77.5t-57.5 101.5q-20 48 -22 83.5t-2 47.5q0 48 11 104t38.5 117t68.5 112z" />
    <glyph glyph-name="uni0990" unicode="&#x990;" horiz-adv-x="1469" 
d="M210 938q13 -5 35 -20.5t32 -25.5q-57 -63 -76.5 -129t-19.5 -118q0 -23 3 -46q10 -75 52 -136.5t117 -90.5q32 -11 65 -14.5t70 -3.5q35 0 73.5 2t84.5 4q13 1 25 1.5t25 0.5q60 0 115 -10.5t104 -36t89.5 -66.5t70.5 -103l4 3q-3 11 -4 34.5t-1 47.5v32l1 746
q0 54 -22 82t-44 30h-3q-22 0 -59 -14.5t-78.5 -40.5t-82.5 -60.5t-71.5 -72.5t-42 -69.5t-11.5 -52.5q0 -16 5 -32q4 1 12 1q21 0 42.5 -9t36.5 -26.5t18 -34t3 -24.5q0 -20 -8 -43q-12 -36 -46.5 -53.5t-72.5 -17.5q-29 0 -49 8q-48 18 -73 66t-25 102q0 26 5 56
q11 64 47.5 128.5t111.5 131.5q37 34 78.5 62.5t82.5 49t79.5 32.5t70.5 13q39 -3 73.5 -26t60.5 -53.5t41 -63.5t15 -56v-120q69 13 107.5 59t44.5 104q-5 38 -22 70t-40.5 58t-51 46.5t-52.5 35.5q-42 26 -82.5 42t-83.5 29.5t-91.5 27t-106.5 35.5q-122 45 -187.5 106
t-81.5 130q-3 18 -3 36t5 45t23 58.5t45 57.5t60 43q7 -10 20 -29l8 -10q13 -18 20 -29q-33 -12 -64 -39.5t-39 -63.5q0 -48 50 -96t174 -95q40 -15 81 -27l81 -25q40 -13 79 -27t76 -33q39 -20 80 -48.5t76 -65t61.5 -81t36.5 -96.5q5 -28 5 -55q0 -28 -8.5 -68t-38.5 -85
t-76 -80t-104 -57l1 -498v-54q0 -38 1 -82.5t2.5 -88.5t4.5 -72l-39 -27l-55 55q-32 122 -128.5 176.5t-242.5 54.5q-51 0 -108 -6q-24 -2 -46.5 -3.5t-43.5 -1.5q-82 0 -146.5 17.5t-113 49.5t-83 77.5t-57.5 101.5q-20 48 -22 83.5t-2 47.5q0 48 11 104t38.5 117t68.5 112
z" />
    <glyph glyph-name="uni0993" unicode="&#x993;" horiz-adv-x="1215" 
d="M-3 1023h1l24 8q9 3 17 6t10 3q6 -17 17.5 -45t25 -59.5t27 -63.5t24.5 -58q44 -164 110 -285t144 -201.5t163 -120.5t167 -41h7q82 0 146.5 25t108 66t61.5 87.5t18 89.5q0 12 -1 25q-8 48 -38.5 85t-68.5 52q-18 -22 -43 -38t-60 -16q-42 0 -72 28.5t-30 74.5
q0 45 32 76t80 31q28 0 55 -11q45 34 69.5 74t29.5 69.5t5 46.5q0 25 -8.5 58.5t-34.5 70.5q-25 20 -58.5 29.5t-72.5 9.5q-49 0 -102 -16.5t-100 -45.5t-84 -69t-54 -88q25 -14 40 -38t15 -53q0 -21 -8 -39.5t-22.5 -33t-33 -23t-39.5 -8.5h-2q-37 0 -63 18t-38.5 47.5
t-12.5 65.5q0 3 0.5 24.5t17.5 65.5q21 56 66.5 107.5t106.5 90.5t132 62t144 23q64 0 120.5 -18.5t101.5 -63.5q35 -35 58 -79.5t24 -107.5q-1 -63 -25.5 -128t-75.5 -122q27 -17 53 -43t46.5 -61t33.5 -80.5t13 -102.5q-1 -72 -32 -136.5t-85 -113t-127 -76.5t-159 -28
q-112 0 -223 53t-211.5 171.5t-185 308t-144.5 461.5z" />
    <glyph glyph-name="uni0994" unicode="&#x994;" horiz-adv-x="1386" 
d="M-25 1023q1 0 9 3q6 1 13 4l8 3q7 3 13 5q8 2 10 2q7 -17 18.5 -45.5t25 -60.5t27.5 -65t26 -59q45 -168 110.5 -291.5t143 -205t162 -122t167.5 -41.5h7q81 0 147 24.5t111.5 66.5t64 89.5t18.5 89.5q0 15 -2 29q-8 48 -37.5 85.5t-69.5 53.5q-18 -23 -44 -40t-62 -17
q-42 0 -73 29t-31 77q0 46 32 78t83 32q29 0 56 -12q46 35 71 76t30 71.5t5 47.5q0 26 -8 59.5t-33 70.5q-51 40 -132 40q-57 0 -118 -21t-116 -64q-37 -29 -65 -63.5t-40 -70.5q24 -14 39.5 -38.5t15.5 -53.5q0 -43 -31 -73.5t-74 -30.5q-37 0 -63 18t-38.5 47.5
t-12.5 65.5q0 3 0.5 24.5t17.5 65.5q21 56 66.5 107.5t106.5 90.5t132 62t144 23q64 0 120.5 -18.5t101.5 -63.5q35 -35 57.5 -80.5t23.5 -108.5q-2 -68 -30 -137q55 48 89 118t34 148v12q0 37 -11.5 72t-31.5 65t-45.5 53t-50.5 38q-56 34 -120.5 58t-129 45.5t-125.5 43.5
t-110.5 51t-84 68.5t-44.5 95.5q-4 20 -4 40q0 52 30.5 106t96.5 90q7 -9 25 -28t29 -34q-15 -6 -31 -15.5t-30 -22.5t-25 -29t-15 -35v-3q0 -41 27 -73.5t71.5 -58.5t102.5 -46.5t118.5 -39.5t118.5 -38.5t104 -43.5q38 -20 73.5 -50.5t64 -67t48.5 -78t28 -83.5
q6 -37 6 -76q0 -23 -4 -67t-32.5 -108.5t-82 -126t-138.5 -115.5q24 -19 46.5 -45t40 -60.5t28 -77t10.5 -93.5q-1 -73 -33 -138.5t-87 -115t-129.5 -78t-161.5 -28.5q-114 0 -225.5 54.5t-211.5 175t-185 313.5t-146 470z" />
    <glyph glyph-name="uni0995" unicode="&#x995;" horiz-adv-x="1344" 
d="M-97 1208h1360l59 -58l-18 -28h-508v-138q103 -4 179.5 -34.5t139.5 -84.5q78 -66 113.5 -149.5t35.5 -166.5q0 -17 -1 -35q-4 -54 -22.5 -97t-45.5 -73t-61 -45.5t-70 -15.5h-3q-23 1 -42.5 11.5t-33.5 26t-22 35.5t-8 40q0 48 29 77.5t71 29.5q25 0 47 -10t36 -27
q23 21 34 55.5t11 76.5v14q-13 57 -50.5 103.5t-90 79.5t-116.5 51.5t-130 20.5v-305q0 -73 0.5 -137t1.5 -115q1 -114 2.5 -192t9.5 -141q-5 -3 -18.5 -13t-21.5 -14q-3 3 -12.5 12t-20.5 19.5t-21.5 20t-15.5 13.5q-28 90 -85 164.5t-132 129.5t-162 87t-175 37
q-8 11 -27 36.5t-39.5 53.5t-38.5 51.5t-24 30.5q48 51 122 111.5t164 115t191 95.5t204 53v142h-753l-56 61zM188 567q8 -9 9 -13q81 -24 157 -62t142 -89t119.5 -114.5t90.5 -139.5q-2 38 -4 85t-2 92v129q0 69 -0.5 137t-0.5 137v131q-73 -13 -147.5 -44.5t-142.5 -72
t-125 -87t-96 -89.5z" />
    <glyph glyph-name="uni0996" unicode="&#x996;" horiz-adv-x="1250" 
d="M165 1136q48 0 78.5 -30.5t30.5 -75.5q0 -5 -0.5 -9t-1.5 -9q35 0 64.5 8.5t58.5 28.5q23 16 43.5 36.5t37 42.5t28 44.5t16.5 42.5q6 2 18 4.5t23 4.5l13 3q42 -18 89 -54t83 -86t50 -98.5t14 -85.5q0 -30 -7 -63q-12 -57 -51.5 -104t-92 -83t-110.5 -60.5t-108 -36.5
l1 -5q78 -35 154.5 -79.5t146.5 -98t129.5 -114.5t103.5 -128q-2 21 -4.5 60.5t-2.5 100.5v601q0 57 -3 108.5t-13 100.5t-28.5 97.5t-49.5 98.5l57 39q26 -36 47.5 -60.5t42 -40t42 -22t47.5 -6.5h67l66 -63l-16 -23h-27q-21 0 -46.5 1.5t-49.5 4.5t-44.5 7t-32.5 8
q18 -48 26.5 -114t9.5 -168q0 -63 1 -156.5t1 -205.5v-175q0 -39 1.5 -92t3.5 -104t4.5 -93t4.5 -59l-38 -27l-48 48q-10 10 -18 16l-1 1q-49 93 -126.5 168t-169.5 131t-191.5 92t-192.5 51q-1 3 -14 21.5t-30.5 42.5t-35 48.5t-28.5 39.5l-11 17q2 2 10.5 15t8.5 15
q35 -9 74 -9q51 0 104 13t102 34.5t89.5 49.5t66.5 57q40 39 54 79t14 74q0 7 -1.5 30t-21 54.5t-49.5 45.5q-11 8 -17 9.5t-11 3.5q-16 -31 -42 -66t-62.5 -66t-85 -53.5t-110.5 -29.5q-37 -8 -66 -8q-40 0 -72.5 11.5t-55.5 31t-36 46.5t-13 58v2q0 24 8.5 45t23.5 36
t35 24t42 9z" />
    <glyph glyph-name="uni0997" unicode="&#x997;" horiz-adv-x="1179" 
d="M900 805h6q-1 69 -5.5 135t-15.5 127t-31 117t-52 106l58 41q10 -13 22.5 -29.5t27.5 -32.5t30.5 -30t31.5 -22q17 -5 45 -7t82 -2l71 -63l-17 -23h-47q-49 0 -90.5 6.5t-64.5 15.5q20 -54 30.5 -129t10.5 -192q0 -66 0.5 -152t0.5 -207v-89q0 -60 0.5 -125.5t1.5 -123.5
t2.5 -102t3.5 -61q-6 -7 -17.5 -17t-18.5 -15q-9 6 -20.5 15.5t-22.5 20.5t-21 22t-16 19q1 72 3 153t3.5 165.5t2.5 170.5t1 168q-22 77 -65 155t-103 141t-136 103t-163 40q-62 0 -112 -22.5t-84 -57.5t-49.5 -74.5t-15.5 -73.5v-12l16 -17q87 31 178 31q51 0 95 -11
t73 -35q52 -46 59.5 -94t7.5 -72q0 -53 -22 -123.5t-84 -155t-157 -152.5q-9 10 -20.5 24.5t-23 30.5t-21.5 32t-16 28q72 41 125.5 99.5t82.5 119.5t30 90.5t1 33.5q0 51 -29 86q-28 9 -60 9q-63 0 -130 -28.5t-120 -65.5q-12 9 -29 23t-35 30.5t-35 34.5t-31 33v22
q0 74 26 143.5t78.5 122.5t124.5 83t154 30q96 0 172.5 -33.5t136.5 -90t106 -131t80 -156.5z" />
    <glyph glyph-name="uni0998" unicode="&#x998;" horiz-adv-x="1103" 
d="M-97 1208h1120l59 -57l-18 -29h-148v-244q0 -73 0.5 -150.5t0.5 -150.5v-248q1 -125 2.5 -215t7.5 -135l-38 -27q-5 4 -14.5 13t-19.5 19l-18 19q-9 8 -13 11v1q-30 77 -84.5 136.5t-123 99.5t-146 60.5t-153.5 20.5q-12 0 -23.5 -0.5t-23.5 -1.5q-21 21 -42.5 46
t-39.5 47t-29 37t-11 16q65 75 134.5 143t147.5 129q0 4 -4 5q-22 -8 -57 -14t-76 -6q-56 0 -111.5 17t-92.5 64q-19 25 -30 58.5t-11 71.5q0 1 0.5 22t14 65.5t44.5 90.5h-163l-56 61zM220 855q23 -25 54.5 -36t69.5 -11q56 0 117.5 22t119.5 60l10 -12q14 -17 38 -46
t42 -49q-45 -33 -93.5 -76.5t-94 -88t-85 -86.5t-67.5 -73q84 -14 158 -43.5t136.5 -69.5t112.5 -88.5t86 -100.5q-3 22 -4 52.5t-1 62.5v360q0 82 -0.5 160t-0.5 144v186h-504q-39 -18 -68.5 -51.5t-43 -68.5t-13.5 -67q0 -7 2 -29.5t29 -50.5z" />
    <glyph glyph-name="uni0999" unicode="&#x999;" horiz-adv-x="1071" 
d="M73 870q12 -35 27.5 -83t34.5 -96q21 -88 56 -178.5t89 -163.5t130 -119t178 -46q81 0 149 32t113.5 84.5t60 103t14.5 85.5q0 33 -9 67q-11 26 -26.5 54t-38.5 46q-30 -46 -64 -81.5t-69 -61.5t-68.5 -42.5t-62.5 -25.5q-12 -3 -26 -3q-42 0 -77 21t-59.5 54t-38 73
t-13.5 79v104q0 27 0.5 53.5t0.5 47.5q-57 30 -103.5 69t-82 76.5t-59.5 69t-35 47.5q3 5 12.5 14.5t21.5 20t25 21t24 16.5q13 -25 31 -56t43 -62.5t56.5 -61t70.5 -52.5q9 57 34.5 104t64.5 81.5t89 53.5t108 19q62 0 105.5 -27t63.5 -64q19 -35 19 -71q0 -16 -8 -50.5
t-56 -94.5q-39 -49 -103.5 -75t-136.5 -26q-42 0 -81 9l-2 -90v-26q0 -51 3.5 -99.5t17.5 -65.5q15 -8 37 -8q31 0 67 17.5t70.5 49t65 74.5t51.5 94l55 14q37 -29 70.5 -68t58 -84.5t38 -94t13.5 -95.5v-7q-3 -71 -32.5 -140t-80.5 -123.5t-121 -88.5t-155 -35h-13
q-98 0 -178 30.5t-143 87.5t-109 134t-80 167t-57.5 187.5t-41.5 194.5q3 1 11 3t18 3.5t19 2.5t14 1zM479 935q17 -5 35.5 -7t35.5 -2q53 0 100 24t79.5 57t42 58.5t9.5 38.5q0 15 -9 27q-9 13 -25.5 19t-36.5 6q-34 0 -74 -15.5t-75 -44t-58.5 -69.5t-23.5 -92z" />
    <glyph glyph-name="uni099A" unicode="&#x99a;" horiz-adv-x="994" 
d="M-97 1208h1012l59 -57l-18 -29h-696q0 -2 0.5 -3t0.5 -2q16 -66 51.5 -124t83.5 -100q50 -42 118.5 -63.5t137.5 -37.5q42 -10 89 -27.5t92 -59.5q30 -29 38 -64.5t8 -62.5q0 -9 -1 -18q-5 -47 -30 -106.5t-63.5 -121t-87 -120.5t-102.5 -104.5t-109.5 -73.5t-106.5 -28
q-37 0 -72.5 19t-65.5 54q-24 27 -40 53t-26 59.5t-14 78.5t-4 110v91q0 65 0.5 146.5t1 168t1 173.5t0.5 163h-216l-56 61zM258 401q0 -68 2 -114t8 -77.5t16 -52t25 -36.5q5 -2 11 -2h12q41 0 87 25.5t92 66.5t89 94t77 107q32 53 48 94t17 60t1 23q0 27 -10 49t-31 40
q-51 1 -112 17t-121.5 49t-114 85.5t-89.5 127.5q-1 1 -1.5 1t-1.5 1q-1 0 -3 2l-1 1v-561z" />
    <glyph glyph-name="uni099B" unicode="&#x99b;" horiz-adv-x="1113" 
d="M-97 1208h1130l59 -57l-19 -29h-817v-66q19 -48 51 -74.5t69 -40.5t73.5 -19t64.5 -9q5 -1 10.5 -1.5t10.5 -0.5q32 0 68.5 7.5t78.5 7.5q41 0 86 -13.5t94 -53.5q47 -36 75 -81.5t39 -89.5t11 -84q0 -6 -1 -32.5t-13 -62.5t-41.5 -80.5t-79 -87.5t-119 -79t-161.5 -54
v-4q83 -21 167 -60.5t164.5 -94t155.5 -122t140 -144.5q-3 -5 -11 -12.5t-17 -16t-17 -15.5t-12 -11q-103 117 -216 194t-226.5 124.5t-223 71.5t-207.5 36q-10 17 -19.5 32.5t-18.5 29.5q-15 24 -28.5 45.5t-16.5 26.5q4 6 11 16t12 15q88 -28 182 -28q121 0 231.5 46.5
t190.5 135.5q35 39 49.5 80t15 61.5t0.5 24.5q0 34 -10 65.5t-26 53.5q-9 10 -21.5 20.5t-30.5 19.5t-41.5 15t-54.5 6q-21 0 -47 -3q-5 0 -5 -3q29 -29 29 -66q0 -8 -1 -17q-3 -14 -11.5 -39t-28 -55.5t-52 -64t-83.5 -64.5q-57 -29 -96 -42.5t-69 -13.5q-26 0 -48 9.5
t-45 27.5q-24 18 -39.5 35.5t-24.5 39t-12.5 49t-3.5 66.5q0 18 1 51.5t2.5 75.5t3 88t3.5 89t3.5 80t2.5 60h-229l-56 61zM252 724v-61q0 -37 5.5 -59t21.5 -44q5 -1 9.5 -1h9.5q39 0 78 16.5t72.5 41t58.5 52t35 49.5q12 23 15 39.5t3 23.5q0 17 -9 30q-12 9 -32 13
t-44 6.5t-51 5.5t-54 11q-38 11 -67 37t-49 60q-1 -60 -1.5 -119t-0.5 -101z" />
    <glyph glyph-name="uni099C" unicode="&#x99c;" horiz-adv-x="1498" 
d="M-95 1208h1510l58 -58l-17 -28h-592q-20 -6 -40 -15t-42 -20q14 -33 32.5 -63t41.5 -51q54 -51 123.5 -73t141.5 -22q48 0 95 5t82 13q32 -28 57.5 -72.5t39.5 -78.5q-57 -73 -98.5 -166t-57 -181.5t-15.5 -164.5q0 -37 6 -113.5t50 -194.5q-3 -2 -13.5 -6t-22.5 -8
t-23 -7.5t-16 -4.5q-40 99 -55 197.5t-15 185.5q0 26 3 95.5t31 180t79 207.5h-8l-15 -1h-8q-93 0 -173 21.5t-145 59t-115 87.5t-83 106q-37 -26 -71.5 -55t-63.5 -58q-37 -38 -65.5 -80t-45 -83.5t-18.5 -65.5t-2 -33q0 -30 9 -56q39 -26 82 -26q54 0 106 39t100 105
l39 19q17 -8 49.5 -24.5t60.5 -40.5q20 -24 41 -52.5t37.5 -63t24.5 -69t8 -67.5q0 -13 -1 -28q-5 -49 -27 -105t-65.5 -103t-109.5 -77t-157 -30h-6q-120 1 -220.5 58.5t-174 162t-117 252.5t-49.5 329l51 4q8 -35 19 -78.5t26 -104.5q12 -85 45.5 -173t88.5 -159.5
t131 -116.5t173 -45q81 0 142 32.5t98.5 82t45 91t7.5 62.5q0 37 -12 72q-16 25 -38.5 40t-36.5 19q-26 -28 -52 -53t-55 -44t-62 -29.5t-74 -10.5q-55 0 -103 24t-77 70q-27 42 -32.5 79.5t-5.5 60.5q0 27 5 53q6 36 24 77.5t50.5 87.5t81.5 95t117 100h-676l-56 61z" />
    <glyph glyph-name="uni099D" unicode="&#x99d;" horiz-adv-x="1420" 
d="M-97 1208h885q16 -17 36 -52t34 -70q3 -13 5.5 -25.5t4 -29.5t2.5 -42t1 -63q0 -78 0.5 -160t1.5 -185q73 -64 130 -147t99 -170l8 2q-2 11 -3 37t-2 56t-1 59v47q-1 49 -1 96v512q-6 69 -34 125t-63 98l62 37q25 -26 52.5 -58.5t53.5 -67.5l125 1l71 -63l-17 -23h-31
q-45 0 -75.5 2.5t-66.5 5.5q16 -44 18 -101.5t2 -108.5q0 -57 1 -146.5t1 -229.5q0 -155 2 -260.5t6 -185.5q-4 -4 -17.5 -14t-18.5 -15q-5 3 -13.5 10.5t-17.5 16t-17 16t-12 10.5l-1 1q-48 109 -111 187t-129 132v-172q0 -36 0.5 -74.5t1.5 -76t2.5 -72.5t3.5 -63l-36 -31
q-16 14 -36.5 32.5t-26.5 26.5q-33 86 -102.5 161t-157.5 130.5t-186.5 87.5t-188.5 32q-26 38 -56 77t-54 70q52 54 123.5 114t163 117.5t204 109t245.5 88.5q-1 25 -3.5 44.5t-6.5 33.5q-4 11 -8 22.5t-9 22.5h-802l-56 61zM231 539q57 -17 129 -45.5t146 -74.5
t144 -112.5t123 -159.5l6 2q-2 20 -3 38.5t-1 37.5v223q0 69 -0.5 134.5t-0.5 134.5v150q-173 -61 -303.5 -142t-239.5 -186z" />
    <glyph glyph-name="uni099E" unicode="&#x99e;" horiz-adv-x="1793" 
d="M139 927q6 -2 14.5 -8t17.5 -13.5t17.5 -15t13.5 -12.5q-26 -32 -42.5 -72.5t-21.5 -75.5t-5 -61q0 -18 3 -49.5t17 -73.5q11 -30 33.5 -64t61.5 -60q39 -34 92 -44t113 -10q53 0 108 3q11 1 22 1h21q63 0 119.5 -12t103.5 -37.5t83.5 -65.5t58.5 -97l5 3q-3 25 -4 66
t-1 73v37q-1 114 -1 225q0 56 0.5 166t0.5 280q0 32 -5.5 52t-14 31.5t-18.5 17t-19 8.5h-2l-2 1h-2q-18 0 -53.5 -15t-77 -41t-83 -61.5t-71.5 -75.5t-39 -71t-9 -50q0 -23 9 -47q11 4 26 4q17 0 33.5 -6t30.5 -18.5t22.5 -31t8.5 -43.5q0 -31 -11 -54t-29 -38.5t-41 -23
t-47 -7.5q-27 0 -54.5 11.5t-49.5 35t-36 60.5t-14 88q0 78 37 161t128 167q69 64 136 100.5t116 47.5q18 3 35 3q32 0 62 -12.5t54.5 -33.5t41.5 -49t23 -58q5 -36 6 -84t1 -90v-119q24 60 60 116.5t83.5 100t106.5 69.5t129 26q53 0 96 -19t74.5 -50.5t50.5 -73t23 -87.5
q1 -10 1 -20q0 -8 -1 -22t-4 -32q-5 -34 -16 -60.5t-24.5 -46.5t-27 -35.5t-23.5 -27.5q48 -43 72.5 -95.5t26.5 -109.5v-5q0 -45 -16 -87.5t-47.5 -75t-75 -52t-96.5 -19.5q-71 0 -132.5 30t-111.5 78.5t-87 109.5t-60 122v-107q0 -19 1 -38q0 -11 0.5 -45t1.5 -77.5
t1.5 -89.5t0.5 -80q0 -21 1 -48t3 -47q-5 -3 -16.5 -9t-19.5 -9q-8 19 -20 38.5t-24 36.5t-23.5 31.5t-18.5 23.5q-18 42 -44 73t-62.5 51t-86 30t-114.5 10q-20 0 -42.5 -1t-47.5 -3q-22 -2 -42.5 -3t-40.5 -1q-128 0 -215.5 39t-139.5 114q-12 16 -27.5 44.5t-21.5 48.5
q-15 45 -19 82.5t-4 60.5q0 31 6 76t28 104.5t63 118.5zM1072 632q6 -11 13 -30q24 -65 57.5 -124.5t76 -104.5t95.5 -72t116 -27h13q38 3 72 23t56.5 50t28 56t5.5 41q0 24 -8 48q-12 23 -29.5 37t-37.5 25q-20 -19 -41 -30.5t-56 -11.5q-51 0 -81.5 34t-30.5 84q0 20 8 39
t22.5 33.5t34 23.5t41.5 9q27 0 49 -12t30 -20q26 10 47.5 34t34.5 54t14.5 49.5t1.5 24.5q0 27 -10 51q-20 32 -58 49t-85 17q-70 0 -131 -32t-109.5 -82t-84 -112.5t-54.5 -123.5z" />
    <glyph glyph-name="uni099F" unicode="&#x99f;" horiz-adv-x="938" 
d="M-97 1208h774q24 15 45 33.5t34.5 40t15.5 37t2 21.5q0 20 -9 42q-12 17 -30.5 26t-40 14t-43.5 6t-41 1q-75 0 -166.5 -10.5t-188.5 -10.5q-61 1 -107 11t-80.5 26.5t-59.5 39.5t-44 51q-24 35 -30 66t-6 53q0 16 4 43t20.5 61t39.5 58q2 -2 10 -8.5t17.5 -14.5
t18.5 -15.5t14 -12.5q-18 -14 -36 -44.5t-18 -60.5q9 -43 40 -69.5t71.5 -40.5t84.5 -18.5t80 -4.5q33 0 73 2.5t80.5 5t77.5 5t64 2.5q75 0 138 -26.5t102 -80.5q42 -60 43.5 -93.5t1.5 -38.5q0 -54 -26 -96h36l59 -57l-18 -29h-669v-764q0 -75 21.5 -123.5t39.5 -66.5
q25 -16 61 -16q34 0 74 16.5t84 54.5q79 67 126 141t65 137q9 29 9 62q0 4 -0.5 24t-14.5 49q-33 -30 -80 -30q-48 0 -80.5 32.5t-32.5 80.5q0 46 32.5 80.5t89.5 34.5q39 0 76.5 -15t67 -45t47.5 -74t18 -101q0 -42 -8 -90t-28.5 -99.5t-55.5 -107.5t-89 -115
q-23 -24 -55 -50.5t-68 -48.5t-74 -36.5t-73 -14.5q-50 0 -95.5 32t-80 79t-55 102t-20.5 100l1 772h-194l-56 61z" />
    <glyph glyph-name="uni09A0" unicode="&#x9a0;" horiz-adv-x="1004" 
d="M-112 1183l15 25h543l-2 2l-5 6l-2 2l-8 10q-105 117 -157 209.5t-59.5 142t-7.5 72.5q0 46 19 95t63 99q10 -7 24 -17t28.5 -21t28.5 -22t24 -20v-11q-62 -47 -67.5 -85t-5.5 -55q0 -46 21 -104t68.5 -127t96.5 -134l31 -42h388l59 -57l-18 -29h-365
q69 -96 127.5 -192.5t95.5 -194t43.5 -161t6.5 -91.5q0 -71 -19 -143q-21 -78 -65 -140t-101.5 -105t-124.5 -65.5t-134 -22.5q-83 0 -157 36q-68 37 -112 89.5t-66.5 108.5t-24.5 88.5t-2 41.5q0 43 12 78q105 46 189.5 118t140 160.5t71.5 164.5t16 128q0 51 -10 102h-542
zM182 227q39 -54 93.5 -78t115.5 -24q54 0 108.5 18t103 51.5t87 81t60.5 106.5q26 71 26 146q0 11 -2.5 60t-30 135.5t-74 169.5t-100.5 159q10 -56 10 -109q0 -30 -6 -84t-33.5 -124t-69.5 -130t-91.5 -109.5t-103 -88t-103.5 -65.5q-3 -9 -4 -20t-1 -20q0 -6 0.5 -17
t4 -27.5t10.5 -30.5z" />
    <glyph glyph-name="uni09A1" unicode="&#x9a1;" horiz-adv-x="1236" 
d="M-112 1183l15 25h1253l59 -57l-18 -29h-623v-415q0 -26 5 -49t13 -35q11 -9 21.5 -12.5t19.5 -3.5q11 0 23 4q11 3 36.5 17t59.5 43.5t72.5 76t75.5 113.5l48 12q115 -91 159 -183.5t44 -175.5q0 -37 -7 -76q-15 -81 -54.5 -149t-98.5 -117t-134.5 -76.5t-162.5 -27.5h-5
q-106 0 -191 38.5t-151.5 105.5t-115.5 155.5t-84.5 187t-60.5 200.5t-43 195q9 4 25.5 7t27.5 3q17 -46 34 -89.5t40 -100.5q27 -116 63.5 -203t78 -149.5t86.5 -103.5t89 -65.5t86 -35.5t77 -13q7 -1 13 -1h12q45 0 84.5 9t73.5 23t61.5 32t47.5 37q32 28 58 67t42 84
t18.5 75.5t2.5 42.5q0 36 -9 70q-19 39 -44.5 59.5t-40.5 26.5q-72 -97 -153.5 -154.5t-154.5 -67.5q-4 -1 -13 -1q-19 0 -43.5 10t-52.5 39q-40 42 -58 86t-18 96v389h-532z" />
    <glyph glyph-name="uni09A2" unicode="&#x9a2;" horiz-adv-x="939" 
d="M-97 1208h957l59 -57l-18 -29h-665v-764q0 -75 21.5 -123.5t39.5 -66.5q25 -16 61 -16q34 0 74 16.5t84 54.5q79 67 126 141t65 137q9 29 9 62q0 4 -0.5 24t-14.5 49q-33 -30 -80 -30q-48 0 -80.5 32.5t-32.5 80.5q0 46 32.5 80.5t89.5 34.5h4q39 -1 75.5 -16.5
t65.5 -45.5t46.5 -73t17.5 -100q0 -42 -8 -90t-28.5 -99.5t-55.5 -107.5t-89 -115q-23 -24 -55 -50.5t-68 -48.5t-74 -36.5t-73 -14.5q-50 0 -95.5 32t-80 79t-55 102t-20.5 100l1 772h-194l-56 61z" />
    <glyph glyph-name="uni09A3" unicode="&#x9a3;" horiz-adv-x="1068" 
d="M68 967q20 57 57 100.5t84.5 73t100 45t102.5 15.5q69 0 128.5 -34.5t107 -88t83.5 -117t58 -120.5h7q-2 64 -7 124.5t-16 117t-30.5 108.5t-49.5 99l58 41q10 -13 22.5 -29.5t27.5 -32.5t30.5 -30t31.5 -22q17 -5 45 -7t82 -2l71 -63l-17 -23h-47q-49 0 -90.5 6.5
t-64.5 15.5q20 -54 30.5 -129t10.5 -192q0 -66 0.5 -152t0.5 -207v-89q0 -60 0.5 -125.5t1.5 -123.5t2.5 -102t2.5 -61q-5 -7 -16.5 -17t-18.5 -15q-9 6 -20.5 15.5t-22.5 20.5t-21 22t-16 19q1 72 2.5 153.5t3 167t2.5 172t1 169.5q-14 81 -42.5 149t-66.5 120.5t-82 89
t-89 54.5q-25 5 -52 5q-26 0 -55.5 -5t-59 -16.5t-58.5 -31t-53 -48.5q-38 -44 -52.5 -95t-14.5 -95q0 -11 2.5 -44.5t25.5 -80.5t63 -73q32 -14 64 -14q25 0 50 10q-28 35 -28 83t33 73.5t76 25.5q23 0 44 -9.5t37 -25.5t26 -37t10 -44q3 -12 3 -21q-1 -44 -20 -77
t-48.5 -55.5t-67 -34t-77.5 -11.5q-59 0 -109 22.5t-87 60.5q-32 31 -59.5 73.5t-42 94t-14.5 110.5q0 4 0.5 37.5t26.5 106.5z" />
    <glyph glyph-name="uni09A4" unicode="&#x9a4;" horiz-adv-x="1247" 
d="M-97 1208h1263l59 -58l-18 -28h-1263l-56 61zM44 927l89 -185q35 -112 89.5 -212.5t126.5 -176.5t159.5 -120.5t189.5 -44.5q105 0 186.5 47t126.5 128q21 37 32.5 83t12 73t0.5 31q0 45 -9 91.5t-31 90.5q-39 51 -99.5 78t-123.5 27q-29 0 -57 -7t-51 -24
q17 -18 27 -42.5t10 -51.5q0 -57 -39 -89.5t-96 -32.5q-28 0 -52.5 12t-42.5 32t-28 47.5t-10 58.5v12q3 49 28.5 87t65 64.5t88.5 40t98 13.5q93 0 171 -36t134.5 -96.5t87.5 -139t31 -163.5v-6q0 -103 -32.5 -188.5t-91 -147.5t-139 -95.5t-175.5 -33.5q-60 0 -113 13
t-100 36t-89.5 54t-80.5 66q-69 65 -123.5 152t-97 181t-74 187.5t-55.5 169.5q3 2 10.5 5t16.5 5.5t17.5 4.5t12.5 2z" />
    <glyph glyph-name="uni09A5" unicode="&#x9a5;" horiz-adv-x="1181" 
d="M46 939q1 56 30.5 108t77 92t107.5 63.5t122 23.5q60 0 119.5 -18.5t119.5 -67.5q39 -32 62.5 -71t34.5 -79.5t11.5 -63t0.5 -29.5q0 -31 -4 -58q-9 -64 -45 -117t-85 -95.5t-104.5 -74.5t-104.5 -54q0 -4 1 -5q81 0 158.5 -29.5t145 -79t122 -113t90.5 -132.5
q-2 23 -4 59.5t-2 93.5v601q0 57 -3 108.5t-13 100.5t-28.5 97.5t-49.5 98.5l57 39q26 -36 47.5 -60.5t42 -40t42 -22t47.5 -6.5h67l66 -63l-16 -23h-26q-22 0 -47.5 1.5t-49.5 4.5t-44.5 7t-32.5 8q18 -48 26.5 -114t9.5 -168q0 -63 1 -156.5t1 -205.5v-175q0 -39 1.5 -92
t3.5 -104t4.5 -93t4.5 -59l-38 -27l-48 48q-10 10 -18 16l-1 1v2q-29 69 -84 137t-131.5 121t-172 86t-205.5 33q-20 0 -40.5 -1.5t-41.5 -3.5q-6 8 -23 30.5t-35.5 46.5t-33.5 44t-17 23q2 2 7 11.5t7 12.5q39 4 81.5 11.5t87.5 22.5t92.5 40.5t97.5 65.5q49 39 80.5 88.5
t40 89t8.5 66.5q0 23 -7 59t-40 74q-25 20 -57 30t-67 10q-28 0 -55.5 -6t-52.5 -20q-40 -19 -66 -44t-40 -51q26 -15 43 -42t17 -59q0 -45 -30 -76.5t-73 -35.5q-2 -1 -9 -1h-10q-31 1 -55.5 14t-41.5 34.5t-25 49t-8 56.5v7z" />
    <glyph glyph-name="uni09A6" unicode="&#x9a6;" horiz-adv-x="1082" 
d="M-112 1183l15 25h1098l59 -57l-18 -29h-802q0 -21 -0.5 -55.5t-0.5 -77t-0.5 -90.5t-0.5 -95v-168l1 -94l5 -2q46 57 111 114t140.5 106.5t158.5 88t165 59.5q16 -9 35 -23t37.5 -30t36 -33.5t30.5 -32.5q-25 -38 -49 -88t-43.5 -110t-33 -127.5t-16.5 -140.5
q-1 -26 -1 -52q0 -34 3 -79.5t12 -96.5t22.5 -93.5t30.5 -72.5l-71 -32q-27 41 -45.5 101.5t-29.5 132.5t-12.5 124t-1.5 76q0 55 4.5 122t18.5 143.5t37 141.5q-1 2 -2 2.5t-2 1.5q-72 -20 -146.5 -59.5t-144 -94.5t-130.5 -123t-105 -144h-8q-28 20 -61.5 49.5t-56.5 51.5
q4 23 7 49t5 52t3 51t1 46v74q0 97 0.5 161t0.5 86q0 87 -2 181h-198z" />
    <glyph glyph-name="uni09A7" unicode="&#x9a7;" horiz-adv-x="1018" 
d="M996 1147l-18 -25h-21h-24q-21 1 -48.5 2t-58.5 4q1 -27 2 -79t1.5 -119t0.5 -143v-403q0 -94 0.5 -156.5t2 -105.5t2.5 -73.5t3 -59.5q-6 -3 -18 -13t-19 -15q-8 6 -17.5 14t-19.5 16.5t-18.5 15.5t-12.5 10q-30 88 -86 159t-132.5 122.5t-172 81.5t-204.5 36
q-14 16 -30.5 37t-31 40t-25.5 33.5t-13 18.5q30 33 68 70.5t80.5 76.5t88 77t92.5 70q-23 -2 -44 -2q-55 0 -104 18.5t-82 55.5t-45 79.5t-12 78.5q0 8 1 16q2 31 17 66t41.5 65t64 49t82.5 19h5q30 0 56.5 -12t44 -32t21.5 -38t4 -29q0 -16 -5 -33q-9 -21 -24.5 -33
t-28 -15t-21.5 -3t-22.5 3t-26.5 14q-17 6 -25.5 15.5t-12.5 17.5q-21 -2 -38 -19t-25.5 -40t-8.5 -48q0 -4 1 -20.5t19 -43.5q18 -29 47 -45t58.5 -21.5t56.5 -5.5q11 0 35.5 1.5t61.5 9.5q56 36 128.5 74t142.5 73q-1 49 -7.5 87.5t-26.5 60.5l55 42q19 -13 36 -22t39 -11
q28 -2 54.5 -2.5t61.5 -0.5zM738 160q-1 13 -2 32.5t-2 41.5t-1.5 45t-0.5 44q-1 63 -1.5 137.5t-0.5 151t0.5 151t1.5 137.5v6q-61 -28 -132.5 -72.5t-141 -96.5t-130.5 -107.5t-101 -106.5q64 -14 138 -43t143.5 -74t129 -107t95.5 -142z" />
    <glyph glyph-name="uni09A8" unicode="&#x9a8;" horiz-adv-x="1107" 
d="M-97 1208h1122l59 -57l-18 -29h-147v-674q0 -103 0.5 -180.5t2 -134t3.5 -95t5 -63.5q-1 -1 -7 -5t-12.5 -8.5t-12 -8.5t-6.5 -5q-9 9 -19.5 20.5t-16.5 16.5q-13 145 -58 274.5t-108.5 227t-140 154.5t-154.5 57q-54 -1 -90.5 -26.5t-52.5 -58.5q46 -7 74.5 -39.5
t28.5 -83.5q0 -22 -9 -43.5t-26.5 -38.5t-43 -27.5t-58.5 -10.5h-8q-37 0 -64.5 18.5t-45.5 47t-26.5 63.5t-8.5 67q0 46 21.5 91t59 80t88.5 57t109 22q103 0 181 -47.5t136.5 -121t99.5 -162.5t70 -173l1 1q-3 23 -6 51t-3 76v216q0 109 -0.5 201.5t-0.5 162.5v102h-877
l-56 61z" />
    <glyph glyph-name="uni09AA" unicode="&#x9aa;" horiz-adv-x="1253" 
d="M-3 872q25 70 72 129t108 101.5t133 66.5t148 24q101 0 180 -36.5t141 -98.5t109.5 -143.5t86.5 -171.5q2 0 4 0.5t3 0.5q0 78 -3 152.5t-14 143.5t-31.5 132t-56.5 118l59 41q10 -13 22.5 -29.5t27 -32.5t30 -30t31.5 -22q17 -5 45 -7t82 -2l71 -63l-17 -23h-47
q-49 0 -90 6.5t-64 15.5q20 -53 30 -129t10 -192q0 -66 0.5 -152t0.5 -207v-89q0 -60 0.5 -125.5t1.5 -123.5t2.5 -102t3.5 -61q-6 -7 -17.5 -17t-18.5 -15q-9 6 -20.5 15.5t-22.5 20.5t-21 22t-16 19q2 133 6 290.5t4 311.5q-25 60 -51.5 115t-55.5 103
q-51 -41 -111.5 -93.5t-124.5 -110.5t-127.5 -117t-120.5 -113l-105 71v8l31 29q19 27 29 65t10.5 60t0.5 27q0 34 -7 69t-22 61q-18 10 -38.5 14t-42.5 4q-36 0 -70.5 -10t-58.5 -25q-13 6 -28.5 17t-30.5 25.5t-28 30.5t-22 32zM179 889q0 -1 3 -4q8 1 16 1.5t16 0.5
q54 0 96 -21.5t70.5 -57.5t43.5 -82.5t15 -97.5q37 34 84 75.5t96 83t94.5 79t79.5 63.5q-60 72 -130 113t-160 42q-51 0 -99 -13.5t-90.5 -39t-77 -61.5t-57.5 -81z" />
    <glyph glyph-name="uni09AB" unicode="&#x9ab;" horiz-adv-x="1418" 
d="M-112 1183l15 25h1442l58 -58l-17 -28h-1186q37 -25 84 -54t86 -58q30 -23 60.5 -48t58 -54t51 -63.5t38.5 -76.5q-54 -49 -129 -119t-163 -149l4 -8q73 -10 146.5 -38t139.5 -70.5t120.5 -98.5t88.5 -122l2 1q-1 2 -2 20.5t-2 48t-1.5 67.5t-0.5 78v587q56 10 113 10
q72 0 134.5 -16.5t114 -45t91.5 -68t67 -85.5l2 -3q36 -66 40 -114t4 -66q0 -56 -17.5 -114.5t-63.5 -103t-114 -46.5h-6q-51 0 -79.5 34.5t-28.5 77.5q0 21 8 40.5t21.5 34.5t32 23.5t38.5 8.5q25 0 45 -10.5t33 -27.5q25 20 37.5 49.5t14.5 62.5q-1 32 -11 60t-23.5 51
t-28.5 40t-26 27q-42 38 -95.5 57t-112.5 19q-44 0 -91 -11v-264q0 -70 0.5 -143.5t0.5 -145.5t1 -133t2.5 -106.5t3.5 -64.5q-1 -2 -7.5 -6t-13.5 -9t-13 -9.5t-7 -5.5q-3 4 -11.5 13t-18.5 19t-19 18t-12 10q-31 96 -91 162.5t-134 108.5t-153 60.5t-147 18.5h-22
q-14 13 -31 32t-34.5 40t-34 41.5t-29.5 37.5q30 27 71 64t86 77.5t91.5 81.5t87.5 77q-16 24 -41.5 45.5t-55.5 40t-61.5 33.5t-60.5 26q-23 9 -48.5 19.5t-49 20t-42.5 18.5t-29 15q-7 6 -23 28.5t-25 52.5h-66z" />
    <glyph glyph-name="uni09AC" unicode="&#x9ac;" horiz-adv-x="1052" 
d="M-112 1183l15 25h1068l59 -57l-18 -29h-158v-649q0 -55 0.5 -102.5t1.5 -83.5q0 -111 3.5 -187.5t8.5 -121.5q-5 -4 -18.5 -14t-19.5 -13q-4 4 -13.5 12.5t-20.5 18.5t-21 19t-15 14q-42 104 -111.5 181t-151.5 129t-169 78.5t-165 28.5q-14 19 -32 43l-37 47
q-19 23 -36 44t-28 35q62 64 142.5 124t174 110.5t197 89.5t212.5 62v135h-812zM218 569q2 -2 5.5 -7.5t5.5 -6.5q55 -12 127 -42t145.5 -80t141.5 -121.5t115 -167.5l6 2q-2 20 -4 60t-2 85v133q0 72 -0.5 145.5t-0.5 146.5v140q-81 -20 -159.5 -51t-148.5 -68.5
t-129 -80.5t-102 -87z" />
    <glyph glyph-name="uni09AD" unicode="&#x9ad;" horiz-adv-x="1300" 
d="M-97 1208h1316l59 -57l-18 -29h-1316l-56 61zM67 933q8 -15 18 -37t21 -47.5t23 -52t24 -50.5q30 -102 80 -206.5t121.5 -189.5t166.5 -138.5t216 -53.5q76 0 135 20t103 53t74 75t48 86t24 82t6 65v15q-3 33 -8.5 64t-17.5 58t-32 50t-51 41q-31 -45 -70.5 -89t-86 -79
t-99.5 -56.5t-111 -21.5q-48 0 -90.5 14.5t-74.5 41.5t-51.5 65t-20.5 85q0 35 12.5 64.5t34.5 51t50.5 34t59.5 13.5h9q26 -1 48.5 -11t39.5 -27t27 -39.5t10 -48.5q0 -35 -18.5 -63.5t-47.5 -44.5h9q85 1 162 70.5t137 198.5l53 11q26 -21 67.5 -65.5t79 -108.5t59.5 -135
t22 -140q0 -22 -2 -45q-7 -83 -41.5 -160t-91 -136t-133.5 -94.5t-169 -36.5h-6q-110 0 -202.5 35.5t-170 99t-139.5 150t-111 187t-87.5 210t-68.5 218.5q11 5 29 10.5t32 7.5z" />
    <glyph glyph-name="uni09AE" unicode="&#x9ae;" horiz-adv-x="1126" 
d="M-97 1208h1143l59 -57l-18 -29h-147v-109q0 -61 0.5 -135t0.5 -150.5t0.5 -151t0.5 -137.5v-110q1 -125 2.5 -215t7.5 -135q-8 -5 -20.5 -14t-18.5 -13q-5 4 -14.5 13t-19 19t-18 18.5t-12.5 11.5l-1 1q-23 73 -68 130.5t-99.5 99t-112 66.5t-105.5 33q-20 -37 -55 -66
t-94 -29q-67 0 -102 40t-35 97q0 30 11 55.5t31 44t47 29.5t59 11q17 0 33 -3.5t32 -8.5q44 45 52.5 78t8.5 54q0 39 -16 92q-26 46 -69.5 90.5t-110.5 84.5q-21 12 -45 22.5t-47 20.5t-43 20t-34 21q-10 8 -22 21.5t-22.5 30.5t-18.5 36t-11 37h-68l-56 61zM181 1122
q29 -33 73 -67.5t92 -75.5t93.5 -91t77.5 -115q42 -84 42 -160q0 -1 -0.5 -40t-39.5 -108q97 -45 182.5 -130.5t146.5 -191.5l3 2q-2 13 -3.5 33t-2 43t-1 47t-0.5 46v318q0 82 -0.5 160t-0.5 144v186h-662z" />
    <glyph glyph-name="uni09AF" unicode="&#x9af;" horiz-adv-x="1059" 
d="M-97 1208h1074l59 -57l-18 -29h-149v-244q0 -73 0.5 -150.5t0.5 -150.5t0.5 -137t0.5 -111q0 -125 1.5 -215t7.5 -135l-38 -27q-5 4 -13 12l-33 33q-8 8 -14 13h-3q-28 87 -82.5 158.5t-126.5 122t-158 78t-176 27.5q-17 20 -36 42.5t-37 43.5t-32.5 38t-21.5 25
q26 25 63.5 59.5t82.5 75t95 85t100 88.5q-26 40 -77 73t-108 56q-27 11 -57.5 21.5t-59.5 20t-54 18.5t-41 17q-11 9 -22 26t-19 37h-68l-56 61zM376 1039q18 -13 47.5 -38.5t60.5 -58.5t57 -71t37 -76q-55 -48 -127.5 -114.5t-160.5 -147.5l3 -3q1 -1 1 -1.5t1 -1.5
q72 -15 142 -47.5t133 -80t116 -109t91 -133.5q-2 29 -3.5 73t-1.5 84v318q0 82 -0.5 160t-0.5 144v186h-524q35 -23 70 -44.5t59 -38.5z" />
    <glyph glyph-name="uni09B0" unicode="&#x9b0;" horiz-adv-x="1097" 
d="M-101 1208h1072l59 -57l-18 -29h-158v-649q0 -55 0.5 -102.5t1.5 -83.5q0 -111 3.5 -187.5t8.5 -121.5q-5 -4 -18.5 -14t-19.5 -13q-4 4 -13.5 12.5t-20.5 18.5t-21 19t-15 14q-42 104 -111.5 181t-151.5 129t-169 78.5t-165 28.5q-14 19 -32 43l-37 47q-19 23 -36 44
t-28 35q62 64 142.5 124t174 110.5t197 89.5t212.5 62v135h-816l-56 61zM218 569q2 -2 5.5 -7.5t5.5 -6.5q55 -12 127 -42t145.5 -80t141.5 -121.5t115 -167.5l6 2q-2 20 -4 60t-2 85v133q0 72 -0.5 145.5t-0.5 146.5v140q-81 -20 -159.5 -51t-148.5 -68.5t-129 -80.5
t-102 -87zM256 63q0 44 31 75t75 31q45 0 75 -31t30 -75q0 -45 -30 -75t-75 -30q-44 0 -75 30t-31 75z" />
    <glyph glyph-name="uni09B2" unicode="&#x9b2;" horiz-adv-x="1331" 
d="M-112 1183l15 25h1346l58 -58l-18 -28h-145q0 -33 0.5 -87.5t0.5 -119.5t1 -136t1 -137.5t0.5 -123.5t0.5 -94l4 -457q-7 -8 -18 -18t-19 -14q-3 3 -13 11.5t-22 19.5t-23.5 22t-17.5 19q2 97 3.5 217.5t2.5 251.5q-4 43 -19 90t-37.5 90t-50 79t-56.5 57q-4 1 -13 1
q-23 0 -45.5 -14.5t-35.5 -32.5q-21 -32 -31 -68t-10 -72q0 -18 2 -38q-3 0 -11.5 -2t-17.5 -4.5t-17 -5t-11 -3.5q-31 72 -75.5 133.5t-104.5 100.5q-42 14 -88 14q-63 0 -117 -25t-90 -64q-45 -49 -58.5 -97.5t-13.5 -87.5q0 -14 3.5 -47t27 -76t57.5 -67q35 -18 73 -18
q48 0 81 27q-25 14 -40.5 38.5t-15.5 55.5q0 45 30.5 74.5t72.5 29.5q7 0 9 -1q39 -3 68.5 -28.5t41.5 -58t12 -63.5q0 -10 -2.5 -36t-30.5 -63q-27 -34 -72 -54.5t-99 -20.5q-45 0 -93 17.5t-93 55.5q-48 42 -78 98t-38.5 104.5t-8.5 84.5q0 26 5.5 69.5t33.5 96.5
q22 44 54.5 77t70.5 55t79.5 33.5t81.5 11.5q8 0 15 -0.5t15 -1.5q71 -12 138 -56.5t122 -139.5q4 21 14 47.5t25.5 52t36 46.5t46.5 32q5 1 10.5 1.5t11.5 0.5q38 0 77.5 -20.5t66.5 -47.5q20 -26 45 -71t41 -109h7q1 58 1 112v354h-1103z" />
    <glyph glyph-name="uni09B6" unicode="&#x9b6;" horiz-adv-x="1220" 
d="M-120 1182l17 26h43q68 0 133.5 -11.5t123.5 -40t105 -78t77 -124.5h6q16 44 43 82t56 67.5t57 50t46 28.5q15 6 34 6q26 0 56 -11t62 -34q30 -21 60 -54.5t57 -75t50 -88.5t39 -96q2 0 3 1q-2 66 -6.5 128t-16 119.5t-31 111t-50.5 101.5l58 41q10 -13 22.5 -29.5
t27.5 -32.5t30.5 -30t31.5 -22q17 -5 45 -7t82 -2l71 -63l-17 -23h-47q-49 0 -90.5 6.5t-64.5 15.5q20 -54 30.5 -129t10.5 -192q0 -66 0.5 -152t0.5 -207v-89q0 -60 0.5 -125.5t1.5 -123.5t2.5 -102t2.5 -61q-5 -7 -16.5 -17t-18.5 -15q-9 6 -20.5 15.5t-22.5 20.5t-21 22
t-16 19q1 73 2.5 155.5t3 168.5t2.5 173.5t1 170.5q-13 77 -46 148t-73.5 126.5t-83.5 91t-78 39.5q-21 -6 -45.5 -24.5t-46.5 -43t-39.5 -53t-24.5 -55.5q27 -12 58.5 -37t56.5 -57q60 -74 61.5 -102t1.5 -33q0 -44 -25 -67q-25 -25 -59 -25q-28 0 -56 16t-51.5 40
t-41.5 52t-27 52q-2 0 -4.5 -0.5t-3.5 -0.5q-10 -25 -53 -80q-31 -36 -65.5 -54.5t-64.5 -18.5q-27 0 -45 15q-24 18 -31 39t-7 38q0 10 3.5 29.5t20.5 49.5t44 59q60 60 110 83q-19 58 -57 99.5t-87.5 68t-106 39t-113.5 12.5h-18z" />
    <glyph glyph-name="uni09B7" unicode="&#x9b7;" horiz-adv-x="1120" 
d="M-97 1208h1137l59 -57l-18 -29h-149v-244q0 -73 0.5 -150.5t0.5 -150.5t0.5 -137t0.5 -111q0 -125 1.5 -215t7.5 -135l-38 -27q-5 4 -14 12.5t-18 17.5l-30 30h-1q-39 90 -111 156.5t-159 110.5t-180.5 66t-174.5 24q-28 32 -60 74.5t-52 74.5q67 67 155 156t194 182
q-62 42 -106 64.5t-89 44.5q-49 24 -87 37t-68 31q-16 14 -34.5 37.5t-31.5 51.5h-94l-56 61zM233 1122q50 -38 122 -86.5t153.5 -109.5t166.5 -135t160 -162q0 85 -0.5 163.5t-0.5 144.5v185h-601zM840 144q1 1 2 1q-2 13 -3.5 33t-2 43t-1 47t-0.5 46v224
q-33 33 -63.5 62.5t-61.5 58t-64.5 56.5t-72.5 57q-29 -22 -66 -55.5t-75.5 -71.5t-74 -77t-62.5 -73q82 -15 162.5 -50.5t152.5 -83.5t131.5 -104.5t98.5 -112.5z" />
    <glyph glyph-name="uni09B8" unicode="&#x9b8;" horiz-adv-x="1238" 
d="M-112 1183l15 25h1255l59 -57l-18 -29h-150v-182q0 -98 0.5 -198t1.5 -197t2 -180q2 -168 3.5 -263.5t4.5 -135.5q-7 -9 -18.5 -20t-18.5 -15q-7 6 -19 15.5t-24 20.5t-22 22t-15 20q0 28 1 81.5t2 120t2.5 140.5t2.5 144q-15 33 -33.5 67.5t-40.5 64t-47.5 51.5
t-55.5 31q-31 0 -64 -24.5t-70 -65t-78.5 -93t-90.5 -108.5q-48 -55 -86 -85t-76 -30q-30 0 -63 20t-74 64q-20 21 -40.5 49t-38 54t-29 45.5t-13.5 23.5l81 56q9 -21 22 -47t30 -49.5t37.5 -42t43.5 -25.5q24 8 49.5 27.5t51.5 46t53 57t54 60.5q1 18 1 49.5t-3.5 67.5
t-11.5 71.5t-23 61.5q-26 34 -71 53.5t-94.5 32t-98 23t-81.5 26.5q-17 16 -35 41t-29 54h-84zM252 1122q30 -18 64.5 -35.5t68 -37.5t63 -45.5t49.5 -59.5q26 -45 33 -88.5t7 -92.5q0 -23 -1 -49l1 -1q21 24 42.5 46.5t46.5 40.5t53 29t62 11q22 0 48 -11.5t54 -39t57 -73
t57 -112.5q0 18 -0.5 42.5t-1 50t-1 49.5t-0.5 40v253q0 42 -1 83h-701z" />
    <glyph glyph-name="uni09B9" unicode="&#x9b9;" horiz-adv-x="1000" 
d="M-112 1183l15 25h1019l59 -57l-18 -29h-544q42 -60 43 -119h22q65 0 124.5 -16t108.5 -44t84.5 -64.5t52.5 -78.5q7 -18 13.5 -46t7 -46.5t0.5 -20.5q0 -32 -8 -71.5t-30 -82.5q-27 -54 -71 -96t-98 -73t-114 -50t-119 -26v-7q105 -36 203.5 -90t188 -116t167 -126.5
t140.5 -122.5l-47 -53q-115 101 -220.5 174t-212 126.5t-219.5 92.5t-244 71q-10 20 -22.5 43t-25.5 45t-24.5 41.5t-18.5 31.5q4 8 14.5 19t15.5 15q45 -18 89.5 -26t93.5 -8q76 0 145.5 17.5t127.5 48.5t101.5 74t67.5 95q18 42 18 93q0 5 -1 36.5t-33 76.5
q-27 26 -71 42.5t-95 16.5q-55 0 -93 -12.5t-70 -36.5q2 -8 2 -19q0 -9 -2 -25.5t-16 -34.5q-27 -36 -66.5 -53t-80.5 -17q-13 0 -26 2t-25 5q-20 6 -33 20t-18 29.5t-5 30.5q0 4 1 16t9 30q10 23 31 47.5t53 47.5t73.5 41t92.5 27q-16 83 -104 126h-352z" />
    <glyph glyph-name="uni09BC" unicode="&#x9bc;" horiz-adv-x="1136" 
d="M119 72q0 24 9 45.5t25 37.5t37.5 25.5t45.5 9.5t45 -9.5t37 -25.5t25 -37.5t9 -45.5t-9 -44.5t-25 -35.5t-37 -24t-45 -9q-49 0 -83 32.5t-34 80.5z" />
    <glyph glyph-name="uni09BE" unicode="&#x9be;" horiz-adv-x="481" 
d="M-89 1208h4q59 0 108 -34t87 -84t63 -108.5t36 -107.5h3q0 53 -2.5 111t-9 115.5t-18.5 114t-31 106.5l61 28q14 -31 35.5 -69t42.5 -58q19 -6 49 -10t59 -4l58 -60l-19 -26h-13q-46 0 -76.5 8t-66.5 20q3 -31 5.5 -70.5t4 -81t2.5 -82.5t1 -76q0 -73 1 -170.5t1 -220.5
q0 -200 1 -319t2 -164q-5 -6 -16 -16t-19 -15q-17 14 -40 34.5t-37 37.5q1 71 2 162.5t1.5 190.5t1 199t0.5 188q-9 60 -28.5 117.5t-45 106t-56 85t-62.5 53.5q-26 13 -47 13q-3 2 -11.5 10.5t-18 19t-18 19.5t-10.5 11z" />
    <glyph glyph-name="uni09BF" unicode="&#x9bf;" horiz-adv-x="480" 
d="M-115 1181l15 27h296q-2 38 -17 66t-29 42q-17 14 -38.5 34t-33.5 43q0 64 38 129t104.5 117.5t156 86t191.5 33.5q101 0 199 -28t188.5 -75t171 -109t146.5 -130l-24 -47q-57 52 -128 102t-150 89.5t-164.5 63.5t-172.5 24q-88 0 -165 -24.5t-134 -65.5t-88.5 -91.5
t-31.5 -103.5v-6q22 -26 42 -62.5t31 -87.5h111l59 -57l-19 -29h-145v-86q0 -53 0.5 -119t1 -136t1 -138t0.5 -125v-94l4 -457q-7 -8 -18 -18t-19 -14q-3 3 -13 11.5t-22 19.5t-23.5 22t-17.5 19q3 90 4.5 205.5t2 237t1 241t0.5 218.5v213h-253z" />
    <glyph glyph-name="uni09C0" unicode="&#x9c0;" horiz-adv-x="485" 
d="M-1007 1606q5 60 42.5 106.5t100.5 81.5q45 24 131 45.5t211 21.5q42 0 89 -3q148 -10 277 -70.5t226 -151t156.5 -202.5t68.5 -226h111l59 -57l-18 -29h-148v-86q0 -53 0.5 -119t1 -136t1 -138t0.5 -125v-94l4 -457q-6 -8 -17.5 -18t-19.5 -14q-3 3 -13 11.5t-21 19.5
l-23 22q-12 11 -18 19q1 90 2.5 205.5t2.5 237t1.5 241t0.5 218.5v213h-258l-58 59l15 27h298q-7 80 -47 168.5t-112 165.5t-175.5 132t-237.5 67q-74 6 -137 6q-143 0 -234.5 -27.5t-133.5 -70.5q-31 -24 -34 -44t-3 -27q0 -23 13 -42q29 -14 61 -18t64 -4q63 4 133 11.5
t130 7.5q46 0 87.5 -10.5t75.5 -27.5t60.5 -39.5t43.5 -46.5q34 -48 54 -99.5t20 -116.5v-18q-2 -9 -13.5 -12.5t-25.5 -3.5q-20 0 -39.5 5.5t-23.5 12.5q0 18 1.5 35t2 28t0.5 14q0 16 -2.5 36t-10.5 47q-28 35 -80 57.5t-134 22.5q-25 0 -55 -3q-41 -4 -75 -5.5t-63 -1.5
q-51 0 -87 4.5t-63 12.5t-46.5 19t-37.5 24q-12 12 -27 26.5t-27.5 31.5t-19.5 35t-7 37v9z" />
    <glyph glyph-name="uni09C1" unicode="&#x9c1;" 
d="M-556 15q60 29 128 29q77 0 167 -40q-2 30 -6 60t-12 42q2 0 10 -0.5t18 -2t20.5 -4.5t17.5 -9q6 -7 12.5 -24t11.5 -36.5t8.5 -38.5t4.5 -31q55 -34 109.5 -78.5t105.5 -94t98.5 -101.5t88.5 -101l-49 -47q-81 88 -168.5 172t-188.5 148q-13 -63 -46 -105.5t-75 -67.5
q-42 -26 -81 -37.5t-74 -11.5q-41 0 -76.5 13t-62.5 35t-45 50.5t-25 59.5q-4 18 -4 38q0 9 1.5 28.5t14 50.5t36.5 58.5t61 45.5zM-582 -224q16 -23 43 -35t59 -12q39 0 74.5 13.5t64 37t48 56t27.5 70.5q-92 43 -164 43q-55 0 -96 -26q-26 -15 -40 -34t-19.5 -37t-5.5 -34
q0 -4 1 -15.5t8 -26.5z" />
    <glyph glyph-name="uni09C2" unicode="&#x9c2;" 
d="M-549 -80q42 68 105.5 101t137.5 33q22 0 45 -3q1 12 1 27q0 11 -1 32.5t-7 41.5q8 -2 22.5 -7.5t22.5 -8.5q11 -24 19.5 -49.5t11.5 -45.5t3 -35q0 -9 -1.5 -24t-11.5 -31q-38 9 -73 9q-46 0 -87.5 -16t-77.5 -52q-34 -35 -40 -59.5t-6 -38.5q0 -23 8 -47
q46 -53 123 -53q53 0 112.5 24t119.5 66q35 -20 78.5 -56t92.5 -86.5t101.5 -113t105.5 -135.5q-2 -2 -10 -7.5t-17 -12t-16 -11.5t-8 -6q-33 41 -69.5 84t-75.5 83.5t-80.5 76.5t-83.5 63q-50 -32 -114 -48.5t-123 -16.5q-75 3 -123.5 33t-81.5 78q-30 45 -30.5 74t-0.5 30
q0 57 29 107z" />
    <glyph glyph-name="uni09C3" unicode="&#x9c3;" 
d="M-326 31q0 12 -5.5 32t-10.5 32l-3 9q4 4 16.5 13t17.5 12q13 -14 28.5 -35t30.5 -44.5t28 -46t21 -39.5q-18 -13 -50 -35.5t-72.5 -52.5t-87 -66t-93.5 -76q86 -39 163 -90t139.5 -101t107 -92t65.5 -62q-3 -2 -9.5 -7.5t-15 -13t-17.5 -15.5t-16 -14q-79 82 -156 138.5
t-145 94t-124 58t-93 30.5q-5 4 -14.5 13.5t-20.5 21.5l-22 24q-11 12 -19 22q35 36 78 73.5t89.5 75t95 73t94.5 68.5z" />
    <glyph glyph-name="uni09C7" unicode="&#x9c7;" horiz-adv-x="694" 
d="M-97 1208h711l59 -57l-18 -29h-74q-68 -42 -127 -99.5t-105.5 -119t-79 -122t-47.5 -109.5q-33 -101 -37.5 -161.5t-4.5 -87.5q0 -61 12.5 -127t43.5 -126.5t73 -97.5q38 -24 78 -24q35 0 64 17q-3 10 -5 19.5t-2 20.5q0 51 35 83t84 32q24 0 45.5 -9.5t37.5 -26
t25.5 -37.5t9.5 -45q0 -35 -16 -66.5t-45.5 -55t-70 -37t-89.5 -13.5q-95 0 -171.5 51t-127 139.5t-67 182t-16.5 166.5q0 55 7 114q8 70 31.5 143t60 143.5t84 135.5t102.5 117h-419l-56 61z" />
    <glyph glyph-name="uni09C8" unicode="&#x9c8;" horiz-adv-x="694" 
d="M-46 1866q10 -8 30.5 -24.5t30.5 -26.5q-18 -16 -36 -44t-18 -56v-6q12 -60 73.5 -93.5t185.5 -45.5q61 -5 108.5 -10t89.5 -11q27 -3 56 -12.5t57 -25t52 -37t41 -48.5q18 -30 27.5 -62t10.5 -50.5t1 -23.5q0 -26 -7 -52t-22 -49l39 -38l-18 -29h-74q-68 -42 -127 -99.5
t-105.5 -119t-79 -122t-47.5 -109.5q-33 -101 -37.5 -161.5t-4.5 -87.5q0 -61 12.5 -127t43.5 -126.5t73 -97.5q38 -24 78 -24q35 0 64 17q-3 10 -5 19.5t-2 20.5q0 51 35 83t84 32q24 0 45 -9.5t37 -25.5t25.5 -37t10.5 -44v-2q0 -35 -16 -66.5t-45.5 -55t-70 -37
t-89.5 -13.5q-95 0 -171.5 51t-127 139.5t-67 182t-16.5 166.5q0 55 7 114q8 70 31.5 143t60 143.5t84 135.5t102.5 117h-419l-56 61l15 25h593q45 30 66.5 61.5t21.5 61.5q0 11 -2 22q-23 30 -61.5 49.5t-96.5 24.5q-21 3 -42.5 5t-46 3.5t-55 4t-69.5 6.5q-64 6 -111 19.5
t-81 33t-57 44t-40 52.5q-20 31 -24.5 59.5t-4.5 48.5q0 16 3 42t18.5 60t39.5 61z" />
    <glyph glyph-name="uni09CB" unicode="&#x9cb;" horiz-adv-x="2070" 
d="M1484 1182l16 26h4q59 0 108 -34t87 -84t63 -108.5t36 -107.5h3q0 53 -2.5 111t-9 115.5t-18.5 114t-31 106.5l61 28q14 -31 35.5 -69t42.5 -58q19 -6 49 -10t59 -4l58 -60l-19 -26h-13q-46 0 -76.5 8t-66.5 20q3 -31 5.5 -70.5t4 -81t2.5 -82.5t1 -76q0 -73 1 -170.5
t1 -220.5q0 -200 1 -319t2 -164q-5 -6 -16 -16t-19 -15q-17 14 -40 34.5t-37 37.5q1 71 2 162.5t1.5 190.5t1 199t0.5 188q-9 60 -28.5 117.5t-45 106t-56 85t-62.5 53.5q-25 13 -47 13q-3 2 -11.5 10.5t-18 19t-18 19.5t-10.5 11zM-112 1183l15 25h783l59 -57l-18 -29h-146
q-68 -42 -127 -99.5t-105.5 -119t-79 -122t-47.5 -109.5q-33 -101 -37.5 -161.5t-4.5 -87.5q0 -61 12.5 -127t43.5 -126.5t73 -97.5q38 -24 78 -24q35 0 64 17q-3 10 -5 19.5t-2 20.5q0 51 35 83t84 32q24 0 45.5 -9.5t37.5 -26t25.5 -37.5t9.5 -45v-5q-1 -34 -17.5 -64.5
t-45.5 -53t-69.5 -36t-88.5 -13.5q-95 0 -171.5 51t-127 139.5t-67 182t-16.5 166.5q0 55 7 114q8 70 31.5 143t60 143.5t84 135.5t102.5 117h-419z" />
    <glyph glyph-name="uni09CC" unicode="&#x9cc;" horiz-adv-x="2119" 
d="M-156 1866q10 -8 30.5 -24.5t30.5 -26.5q-18 -16 -36 -44t-18 -56v-6q12 -60 73 -93.5t185 -45.5q63 -5 110 -10t89 -11q27 -3 56 -12.5t57 -25t52 -37t41 -48.5q32 -54 35.5 -90t3.5 -47q0 -45 -18 -81h189l59 -57l-18 -29h-184q-68 -42 -127 -99.5t-105.5 -119
t-79 -122t-47.5 -109.5q-33 -101 -37.5 -161.5t-4.5 -87.5q0 -61 12.5 -127t43.5 -126.5t73 -97.5q38 -24 78 -24q35 0 64 17q-3 10 -5 19.5t-2 20.5q0 51 35 83t84 32q24 0 45.5 -9.5t37.5 -26t25.5 -37.5t9.5 -45q0 -35 -16 -66.5t-45.5 -55t-70 -37t-89.5 -13.5
q-95 0 -171.5 51t-127 139.5t-67 182t-16.5 166.5q0 55 7 114q8 70 31.5 143t60 143.5t84 135.5t102.5 117h-419l-56 61l15 25h483q45 30 66.5 61.5t21.5 61.5q0 11 -2 22q-23 30 -61.5 49.5t-96.5 24.5q-21 3 -42.5 5t-46 3.5t-55 4t-69.5 6.5q-64 6 -111 19.5t-81 33
t-57 44t-40 52.5q-20 31 -24.5 59.5t-4.5 48.5q0 16 3 42t18.5 60t39.5 61zM1548 1208h4q59 0 108 -34t87 -84t63 -108.5t36 -107.5h3q0 53 -2.5 111t-9 115.5t-18.5 114t-31 106.5l61 28q14 -31 35.5 -69t42.5 -58q19 -6 49 -10t59 -4l58 -60l-19 -26h-13q-46 0 -76.5 8
t-66.5 20q3 -31 5.5 -70.5t4 -81t2.5 -82.5t1 -76q0 -73 1 -170.5t1 -220.5q0 -200 1 -319t2 -164q-5 -6 -16 -16t-19 -15q-17 14 -40 34.5t-37 37.5q1 71 2 162.5t1.5 190.5t1 199t0.5 188q-9 60 -28.5 117.5t-45 106t-56 85t-62.5 53.5q-25 13 -47 13q-3 2 -11.5 10.5
t-18 19t-18 19.5t-10.5 11z" />
    <glyph glyph-name="uni09CD" unicode="&#x9cd;" horiz-adv-x="842" 
d="M-78 -422l-30 -70l-402 241l39 143z" />
    <glyph glyph-name="uni09CE" unicode="&#x9ce;" horiz-adv-x="919" 
d="M66 822q3 86 39 158t93 124t129.5 81.5t149.5 30.5q78 0 137 -24t98.5 -61.5t58.5 -83.5t19 -89v-4q-2 -61 -24 -106.5t-57.5 -76.5t-80.5 -46.5t-92 -15.5h-5l-8 1h-5q-58 2 -105 27t-79 67.5t-46 92.5t-14 99q0 15 1 31q-49 -34 -83 -86.5t-35 -127.5q1 -54 17.5 -99
t51.5 -84t90.5 -74.5t134.5 -71.5q62 -28 126.5 -52.5t125.5 -53t113.5 -65.5t89.5 -90t52.5 -116t15.5 -128q0 -28 -2 -59q-20 2 -49.5 7.5t-45.5 11.5q7 20 12 47.5t5 54.5q0 10 -1 21q-13 50 -46 84.5t-84.5 62.5t-120.5 54.5t-154 59.5q-102 41 -182 90.5t-134 111
t-80 131.5t-26 149v17zM540 819h4l7 -1h4q38 0 71.5 14.5t54 40.5t22.5 47t2 26q0 32 -18 71q-38 42 -85.5 62t-110.5 20q-26 0 -62.5 -7t-75.5 -23v-7q0 -46 13 -88.5t38 -76.5t59.5 -54.5t76.5 -23.5z" />
    <glyph glyph-name="uni09D7" unicode="&#x9d7;" horiz-adv-x="502" 
d="M-702 1805q4 -3 11.5 -9.5t16.5 -14.5l17 -15q4 -4 7.5 -7t6.5 -6q-28 -22 -41 -55t-13 -56v-7q17 -56 80 -84t191 -29q60 0 122.5 6t120 13.5t107 13.5t84.5 6q88 -2 156.5 -38t113.5 -93q21 -27 31.5 -55.5t13 -52t2.5 -42.5q0 -9 -1 -27.5t-4 -44.5h102l59 -57
l-18 -29h-145v-86q0 -53 0.5 -119t1 -136t1 -138t0.5 -125v-94l4 -457q-6 -8 -17.5 -18t-19.5 -14q-3 3 -13 11.5t-21 19.5l-23 22q-12 11 -18 19q1 90 2.5 205.5t2.5 237t1.5 241t0.5 218.5v213h-277l-58 59l15 27h314q14 35 20.5 64.5t6.5 45.5q0 22 -7 43q-16 24 -41 39
t-53.5 23.5t-59 11.5t-57.5 3q-47 0 -95 -6.5t-102 -14t-116.5 -14t-136.5 -6.5q-62 0 -110 10t-85 27t-64.5 41t-48.5 52q-23 31 -28 60.5t-5 48.5t4.5 47t21 63t40.5 59z" />
    <glyph glyph-name="uni09DC" unicode="&#x9dc;" horiz-adv-x="1240" 
d="M-112 1183l15 25h1256l59 -57l-18 -29h-623v-414q0 -26 5.5 -49t12.5 -34q11 -10 22 -13t21 -3q14 0 21 3q11 4 36.5 18t59 43t72.5 75t76 114l48 11q115 -91 159 -182t44 -173q0 -38 -8 -78q-15 -81 -54.5 -148.5t-98 -116.5t-134 -76.5t-162.5 -27.5h-5
q-106 0 -191 38.5t-151.5 105t-115.5 154.5t-84.5 186t-60 200t-42.5 195q8 4 25 7t28 4q17 -46 33.5 -89.5t39.5 -100.5q40 -173 100.5 -282t127 -171.5t133 -87t118.5 -27.5q7 -1 13 -1h13q45 0 84.5 9t73.5 23t61.5 32t47.5 37q32 28 58 67t42 83.5t18 74t2 40.5
q0 36 -9 72q-8 20 -19.5 34.5t-23.5 25t-23 17t-18 9.5q-72 -97 -153.5 -154t-154.5 -68h-2l-6 -1h-2q-20 0 -45 10.5t-54 39.5q-76 80 -76 181v388h-535zM609 -101q45 0 75.5 -31t30.5 -75q0 -45 -30.5 -74.5t-75.5 -29.5q-44 0 -75 29.5t-31 74.5q0 44 31 75t75 31z" />
    <glyph glyph-name="uni09DD" unicode="&#x9dd;" horiz-adv-x="921" 
d="M-97 1208h937l59 -57l-18 -29h-645v-759q0 -74 21.5 -122.5t39.5 -66.5q27 -16 60 -16q34 0 74 17t85 54q79 67 126 140.5t65 136.5q8 29 8 61q0 3 -0.5 23t-13.5 49q-33 -30 -80 -30q-24 0 -44.5 9t-35.5 24.5t-24 36t-9 43.5q0 45 32.5 79.5t89.5 34.5q39 0 76.5 -15
t67 -44.5t47 -73.5t17.5 -101q0 -42 -8 -89t-28 -98.5t-55 -107t-89 -114.5q-22 -24 -54 -50.5t-68.5 -48t-74.5 -35.5t-73 -14q-50 0 -95.5 31.5t-80 78t-55 101t-20.5 99.5l1 767h-194l-56 61zM394 -79q45 0 75.5 -31t30.5 -75q0 -45 -30.5 -75t-75.5 -30t-75 30t-30 75
q0 44 30 75t75 31z" />
    <glyph glyph-name="uni09DF" unicode="&#x9df;" horiz-adv-x="1057" 
d="M-112 1183l15 25h1074l59 -57l-18 -29h-149v-244q0 -73 0.5 -150.5t0.5 -150.5t0.5 -137t0.5 -111q0 -125 1.5 -215t7.5 -135l-38 -27q-5 4 -13 12l-33 33q-8 8 -14 13h-3q-28 87 -82.5 158.5t-126.5 122t-158 78t-176 27.5q-17 20 -36 42.5t-37 43.5t-32.5 38t-21.5 25
q26 25 63.5 59.5t82.5 75t95 85t100 88.5q-26 40 -77 73t-108 56q-27 11 -57.5 21.5t-59.5 20t-54 18.5t-41 17q-11 9 -22 26t-19 37h-68zM247 1122q35 -23 70 -44.5t59 -38.5q18 -13 47.5 -38.5t60.5 -58.5t57 -71t37 -76q-55 -48 -127.5 -114.5t-160.5 -147.5l3 -3
q1 -1 1 -1.5t1 -1.5q72 -15 142 -47.5t133 -80t116 -109t91 -133.5q-2 29 -3.5 73t-1.5 84v318q0 82 -0.5 160t-0.5 144v186h-524zM313 29q0 44 31 75t75 31q45 0 75 -31t30 -75q0 -45 -30 -74.5t-75 -29.5q-44 0 -75 29.5t-31 74.5z" />
    <glyph glyph-name="uni09E6" unicode="&#x9e6;" horiz-adv-x="1214" 
d="M279 924q70 71 157.5 109t182.5 38q88 0 176.5 -35.5t169.5 -110.5q63 -60 98.5 -150t36.5 -143t1 -59q0 -95 -33 -194.5t-108 -185.5q-73 -83 -168.5 -126.5t-197.5 -43.5q-89 0 -174.5 34.5t-158.5 107.5q-80 80 -114 173t-34 184q0 11 2.5 68t45 156t118.5 178z
M393 166q37 -21 75.5 -31t76.5 -10q51 0 101.5 16.5t96.5 47.5t86 74.5t71 97.5q22 39 39 87t24.5 94t7.5 88q0 12 -1.5 45t-18 82.5t-49 93t-84.5 75.5q-35 19 -71.5 27.5t-72.5 8.5q-54 0 -106 -17.5t-98.5 -49t-86.5 -75t-69 -96.5q-34 -61 -51 -131t-17 -131
q0 -17 3 -64t37.5 -117t106.5 -115z" />
    <glyph glyph-name="uni09E7" unicode="&#x9e7;" horiz-adv-x="968" 
d="M136 90q0 5 0.5 9.5t1.5 9.5q5 22 18.5 44t35.5 39.5t51 28.5t65 11q35 0 65.5 -9.5t54 -26t39 -38t21.5 -45.5h22q41 0 84 18t78 48.5t58 70t24 81.5q0 45 -17.5 90.5t-45 87.5t-62 78t-67.5 62q-82 58 -154 115t-125 111t-82 103t-29 91v6q0 52 33.5 84t84.5 32
q25 0 44 -9.5t31.5 -24t18 -31t5.5 -31.5v-5q-1 -32 -16 -52t-28 -28q36 -50 127 -120.5t212 -173.5q94 -81 138.5 -172.5t44.5 -184.5v-8q-2 -91 -44 -170t-110.5 -137.5t-156.5 -91.5t-181 -33q-52 0 -96 14t-76 37t-49.5 54.5t-17.5 65.5z" />
    <glyph glyph-name="uni09E8" unicode="&#x9e8;" horiz-adv-x="1009" 
d="M135 522q46 -27 98 -51t106 -42t108 -28t104 -10q46 0 87 9.5t74.5 30t58 54t36.5 81.5q-1 59 -20.5 104t-52 79t-75.5 59.5t-90.5 45t-97.5 35t-97 30.5q-62 20 -100.5 45.5t-58.5 52.5t-23.5 47.5t-3.5 32.5t2 23q7 35 34.5 55.5t62.5 20.5q26 -2 44 -13.5t28.5 -29
t13 -33.5t2.5 -27q0 -10 -1 -19q93 -37 187.5 -80.5t169.5 -100t121 -129t46 -165.5v-8q-1 -60 -27 -115.5t-71 -98t-107 -68t-137 -25.5q-36 0 -81 8q69 -36 145.5 -82t156.5 -102t161.5 -124t160.5 -147l-9 -9q-11 -11 -27 -26t-19 -17q-102 98 -214 178t-225 143.5
t-222.5 112t-206.5 83.5q-16 47 -36 102.5t-40 97.5z" />
    <glyph glyph-name="uni09E9" unicode="&#x9e9;" horiz-adv-x="1323" 
d="M52 917q3 1 11 4t18 6t19 5.5t14 3.5q18 -40 37.5 -86t44.5 -100q31 -113 83 -223t124 -196.5t163 -139.5t200 -53q84 0 151.5 30.5t115 82.5t73.5 121.5t27 110.5t1 45q0 74 -24.5 153t-78.5 155q-48 49 -102.5 72.5t-106.5 23.5q-40 0 -75.5 -13.5t-61.5 -41.5
q42 -18 64.5 -58.5t22.5 -88.5q0 -31 -11.5 -55.5t-31 -41.5t-44.5 -26t-52 -9q-42 0 -74 18t-53.5 47.5t-32.5 66.5t-11 76q0 57 23 105t61.5 82.5t88.5 54t105 19.5q92 0 176.5 -35.5t152 -101.5t112.5 -160.5t58 -213.5q4 -40 4 -77q0 -87 -28 -176.5t-90.5 -162
t-146.5 -112t-172 -42.5h-16q-152 0 -270 76.5t-207.5 205t-153.5 297t-107 352.5z" />
    <glyph glyph-name="uni09EA" unicode="&#x9ea;" horiz-adv-x="1022" 
d="M366 572q-70 35 -122.5 76.5t-87.5 107.5q-26 48 -26.5 72.5t-0.5 26.5q0 46 16 89t43 78.5t57 59.5q52 42 121.5 66t145.5 24q86 0 169.5 -35t149.5 -115q58 -72 65 -118t7 -66q0 -48 -21.5 -100t-75 -98t-123.5 -67q102 -52 161 -123t68 -120t9 -72q0 -52 -27 -114
t-106 -118q-56 -40 -128 -61t-149 -21q-50 0 -100 9.5t-95.5 29t-84.5 49t-68 69.5q-42 58 -50.5 103.5t-8.5 68.5q0 43 19 96t79.5 109.5t163.5 93.5zM336 744q48 -38 100.5 -65.5t124.5 -55.5q78 13 134.5 47t75.5 73t19 73q0 21 -10 62t-73 105q-49 49 -114 72t-128 23
q-49 0 -91.5 -13t-70.5 -39q-55 -61 -55 -125q0 -11 6.5 -53.5t81.5 -103.5zM298 135q47 -48 114 -78.5t141 -30.5q55 0 109.5 20t102.5 66q38 50 38 103.5t-31.5 104t-90.5 95.5t-139 78l-67 29q-76 -13 -126 -39.5t-78 -61t-35 -66t-7 -54.5q0 -16 4 -43t22 -62t43 -61z
" />
    <glyph glyph-name="uni09EB" unicode="&#x9eb;" horiz-adv-x="1096" 
d="M529 1124q29 8 60.5 10.5t58.5 2.5q20 0 36.5 -1t26.5 -2q2 -5 3 -9t3 -8q2 -7 3.5 -12t2.5 -7q-47 -32 -56 -64t-9 -50q0 -25 14 -58t61.5 -62t120.5 -29q17 0 36.5 1.5t39.5 6.5q13 -5 30.5 -12t33.5 -13t28.5 -11t15.5 -6v-50q-95 -68 -164 -143.5t-110.5 -149
t-50.5 -122.5t-9 -75q0 -37 14 -81.5t62 -84t129 -54.5q0 -2 1 -11q1 -8 1 -16l1 -10q0 -8 1 -16q1 -9 1 -11q-62 -19 -121 -28t-116 -9q-121 0 -225 38t-182 106.5t-123.5 164t-49.5 210.5v20q0 95 26.5 188.5t82 180t137 157t186.5 119.5zM220 457q3 -95 38.5 -173.5
t93 -134.5t131.5 -87t153 -31q26 0 51.5 3t51.5 11q-57 24 -90 68t-43 88.5t-10 80.5q0 22 5 64t29 99q22 51 50.5 98t59.5 87t62 72.5t58 54.5q-65 1 -122.5 19.5t-99 51t-59.5 71t-18 74.5q0 14 2 28q-93 -46 -158.5 -111t-107.5 -138.5t-59.5 -146.5t-17.5 -135v-13z" />
    <glyph glyph-name="uni09EC" unicode="&#x9ec;" horiz-adv-x="1264" 
d="M56 878q3 1 11.5 2.5t17.5 2.5t17.5 2t11.5 1q5 -17 13 -41t18 -51l20 -54q10 -27 19 -51q14 -62 35 -131t51 -137t69.5 -130t90.5 -109.5t114.5 -75.5t139.5 -28t148.5 26.5t122.5 72.5q36 33 62 76.5t40.5 91.5t15 75t0.5 30q0 46 -12 91q-24 55 -77 102
q-81 -121 -161.5 -180.5t-155.5 -61.5q-24 0 -57.5 19.5t-58.5 51.5q-33 42 -51 88.5t-18 112.5q-1 70 -1.5 114.5t-1 71t-0.5 40.5t-1 22.5t-3 16t-5 22.5q-15 -9 -32 -9q-15 0 -29.5 6.5t-26.5 18t-19.5 28.5t-7.5 38q0 42 28 72.5t79 30.5q21 0 43.5 -10t41 -29.5
t30 -48.5t11.5 -68q0 -75 -0.5 -121.5t-1.5 -78.5t-1.5 -59t-0.5 -63q0 -8 1 -26.5t4 -40t9 -42.5t16 -34q19 -8 36 -8t34 7q33 13 65.5 39.5t62.5 62.5t55 78.5t42 85.5q1 1 8.5 3.5t17 5.5t18.5 5t13 2q112 -94 158 -195.5t46 -197.5q0 -32 -4 -64q-10 -79 -45.5 -152.5
t-94 -130t-139 -91t-180.5 -35.5h-5q-105 0 -189.5 40.5t-151.5 111t-117 164t-86.5 198t-61 214t-40.5 211.5z" />
    <glyph glyph-name="uni09ED" unicode="&#x9ed;" horiz-adv-x="960" 
d="M334 1146q34 11 65 16t60 5q60 0 109 -18.5t86 -47.5q62 -48 92.5 -117.5t40.5 -138t10 -127.5q0 -16 -2 -61.5t-6 -105.5q-11 -138 -14 -213.5t-3 -113.5q0 -47 3 -81h3q23 0 42.5 -8.5t34.5 -23.5t23.5 -34.5t8.5 -41.5q0 -45 -30.5 -74.5t-75.5 -31.5h-7q-49 2 -86 43
t-37 117q0 33 2 80t5 100.5t6.5 110t6.5 107.5q-50 -2 -105.5 -4t-111.5 -2q-86 0 -160 7t-113 28q-19 10 -40.5 32.5t-41.5 53t-35.5 67t-21.5 74.5q-4 26 -4 50q0 48 19.5 102.5t64 107t101.5 89t111 54.5zM176 660q42 -42 118 -55t170 -13q53 0 107.5 2.5t108.5 4.5l3 35
q4 47 4 89q0 40 -5.5 92.5t-22 103.5t-39 81.5t-44.5 41.5q-51 17 -98 17q-76 0 -143.5 -36t-112 -93t-54.5 -105t-10 -73q0 -46 18 -92z" />
    <glyph glyph-name="uni09EE" unicode="&#x9ee;" horiz-adv-x="1119" 
d="M61 1056q0 38 25 68t67 30q11 0 23 -3q43 -7 74.5 -45.5t33.5 -114.5q1 -58 1 -117q0 -30 -0.5 -90t-2.5 -147q24 18 53.5 40t62 40.5t66 31t64.5 12.5q26 0 51 -6t50 -14l50 -17q25 -9 52 -14q38 -7 81 -7q79 0 144.5 28t100.5 85l52 -43q-17 -48 -42.5 -75.5
t-54.5 -44.5q-37 -29 -79 -39.5t-82 -10.5q-30 0 -56.5 3.5t-45.5 8.5q39 -32 62 -69t35 -73t14 -59.5t2 -37.5q0 -11 -1 -19q-4 -37 -29.5 -97.5t-92.5 -141.5q-46 -55 -92 -90.5t-89.5 -56.5t-83.5 -29t-75 -8q-34 1 -67.5 16t-61.5 37.5t-48 50t-28 52.5q-11 32 -15.5 66
t-5.5 74.5t-1 78.5q0 26 0.5 77t0.5 162q0 140 1.5 213t1.5 105q0 52 -2 82h-10q-42 0 -72.5 28.5t-30.5 79.5zM323 54q24 -10 54 -10q53 0 110 31.5t106 80t85 108t48 114.5q5 26 5 52q0 22 -6.5 56.5t-32 71.5t-66.5 60.5t-94 27.5q-35 -3 -70.5 -13.5t-68.5 -25.5
t-62 -32.5t-51 -33.5v-43q0 -111 -0.5 -154.5t-0.5 -52.5q0 -64 3.5 -112.5t12.5 -78.5t28 -46z" />
    <glyph glyph-name="uni09EF" unicode="&#x9ef;" horiz-adv-x="1199" 
d="M137 210q2 65 23.5 126t60 108t94 75.5t124.5 28.5q74 0 143 -33.5t116.5 -94t60.5 -119.5t13 -97q0 -53 -15 -111q14 2 34 9t42 17.5t43.5 25t39.5 31.5q27 42 34 82t7 68q0 26 -4 53q-9 65 -46.5 115t-95.5 90t-132 70.5t-155 55.5q-103 31 -176.5 70.5t-120 84.5
t-68 92.5t-21.5 93.5q0 49 31 81.5t81 32.5q48 0 75 -28.5t30 -70.5q0 -26 -14 -45t-24 -21q15 -38 45.5 -66.5t70 -49.5t84.5 -37t89 -30q120 -40 202 -86.5t134 -96.5t78.5 -101.5t33.5 -94.5t7 -76q0 -16 -2.5 -47.5t-11.5 -73.5q-13 -51 -47 -103t-88.5 -95.5
t-129.5 -73t-170 -35.5q22 49 35.5 99.5t16.5 84.5t3 52q0 30 -5.5 67t-23.5 76q-13 30 -34 56t-47.5 44.5t-58 29.5t-64.5 11q-56 0 -109 -31q-36 -33 -53.5 -75.5t-19.5 -68.5t-2 -35q0 -32 10 -67t31 -61q23 18 52 18q41 0 70.5 -30t29.5 -71q0 -35 -26 -63
q-14 -18 -35 -30t-48 -12q-47 0 -84.5 26.5t-63 67.5t-37.5 87.5t-12 87.5v13z" />
    <glyph glyph-name="uni09F0" unicode="&#x9f0;" horiz-adv-x="1035" 
d="M-112 1183l15 25h1052l59 -57l-18 -29h-154v-573q0 -78 0.5 -146t0.5 -116q0 -111 3.5 -187.5t8.5 -121.5q-4 -4 -18 -14.5t-20 -12.5q-3 4 -12.5 12.5t-20.5 18.5t-21.5 19t-15.5 14q-42 104 -111.5 181t-151.5 129t-169 78.5t-164 28.5q-13 20 -33 42l-37 47
q-18 24 -35.5 45t-28.5 35q63 64 143.5 124t173.5 110.5t196.5 89.5t212.5 62v135h-799zM745 474q0 97 -0.5 194t-0.5 188q-78 -20 -151.5 -48t-140.5 -63q73 -40 150 -105.5t143 -165.5zM205 569q2 -2 5.5 -7.5t5.5 -6.5q55 -12 127 -42t146 -80t142 -121.5t115 -167.5l6 2
q-2 20 -4.5 60t-2.5 85v100q-53 99 -153 179.5t-223 126.5q-49 -31 -90.5 -63t-73.5 -65z" />
    <glyph glyph-name="uni09F1" unicode="&#x9f1;" horiz-adv-x="1035" 
d="M-112 1183l15 25h1052l59 -57l-18 -29h-154v-573q0 -78 0.5 -146t0.5 -116q0 -111 3.5 -187.5t8.5 -121.5q-4 -4 -18 -14.5t-20 -12.5q-3 4 -12.5 12.5t-20.5 18.5t-21.5 19t-15.5 14q-42 104 -111.5 181t-151.5 129t-169 78.5t-164 28.5q-13 20 -33 42l-37 47
q-18 24 -35.5 45t-28.5 35q63 64 143.5 124t173.5 110.5t196.5 89.5t212.5 62v135h-799zM216 555q55 -12 127 -42t146 -80t142 -121.5t115 -167.5l6 2q-2 20 -4.5 60t-2.5 85v133q0 72 -0.5 145.5t-0.5 146.5v140q-81 -20 -159.5 -51t-148.5 -68.5t-129 -80.5t-102 -87
q2 -2 5.5 -7.5t5.5 -6.5zM209 236l25 17q48 -15 106.5 -42t115.5 -65t107.5 -86t83.5 -106q3 -18 4.5 -37t3.5 -45l-18 -5q-20 30 -58.5 70t-92 80t-119 74t-138.5 52q-7 34 -12.5 61t-7.5 32z" />
    <glyph glyph-name="uni09F3" unicode="&#x9f3;" horiz-adv-x="984" 
d="M10 1200q18 22 56 45t88 23q63 0 106.5 -31.5t61.5 -103.5q8 -36 14 -93.5t6 -142.5q0 -23 -0.5 -45.5t-0.5 -34.5q0 -23 1 -46h79l64 -70l-14 -26h-135l-3 -382q0 -67 33.5 -98.5t93.5 -31.5q55 0 106.5 24t94.5 63t75 88t48 99q17 47 17 95q0 11 -1 23
q-14 -9 -30 -14.5t-36 -5.5q-63 0 -101 37.5t-38 98.5q0 29 9.5 56.5t28.5 49.5t47.5 35t65.5 13q46 0 85 -21.5t67.5 -56t45 -77.5t16.5 -87q0 -197 -149 -361q-151 -168 -340 -168q-43 0 -87 20.5t-79 53.5t-57.5 75t-22.5 85v387h-134l-65 67l14 25h195v268
q0 58 -29.5 91.5t-72.5 33.5h-3q-17 0 -42.5 -10.5t-38.5 -21.5q-11 17 -22.5 36.5t-16.5 35.5z" />
    <glyph glyph-name="uni09F4" unicode="&#x9f4;" horiz-adv-x="1" 
d="M188 1797l22 17q18 -9 33 -15q13 -6 25 -10.5t15 -6.5q-24 -22 -49.5 -44.5t-51.5 -46.5l-106 -95q-53 -47 -102 -91.5t-89 -81.5t-67.5 -62.5t-37.5 -34.5q-11 1 -32.5 2t-45 1.5t-43.5 0.5h-28q-2 5 -7 20t-7 19q18 13 61 44.5t98 72.5t117 87.5t119.5 90t104 79
t71.5 54.5z" />
    <glyph glyph-name="uni09F5" unicode="&#x9f5;" horiz-adv-x="515" 
d="M-100 1208h534l59 -57l-18 -29h-55q-48 -10 -95.5 -51.5t-73.5 -98.5q-11 -42 -11 -92q0 -28 6.5 -84.5t30.5 -143.5q19 -64 35.5 -127t24 -118t7.5 -103q0 -14 -1.5 -52t-20.5 -100q-17 -55 -51 -99t-79.5 -74.5t-99 -46.5t-109.5 -16l-9 80q63 0 123 27.5t103 90.5
q22 51 24 83.5t2 45.5q0 40 -8 90t-26 113.5t-39 136.5q-27 93 -31.5 142.5t-4.5 71.5q0 49 12 102.5t46.5 110t88.5 112.5h-321l-58 59z" />
    <glyph glyph-name="uni200B" unicode="&#x200b;" 
 />
    <glyph glyph-name="endash" unicode="&#x2013;" horiz-adv-x="937" 
d="M111 562q14 25 28.5 49t31.5 47h482q62 0 129 1l30 -40q-11 -23 -29 -48.5t-33 -45.5q-27 0 -68 -0.5t-89 -0.5h-456z" />
    <glyph glyph-name="emdash" unicode="&#x2014;" horiz-adv-x="2182" 
d="M111 558q12 24 26 47.5t31 44.5h1394q217 0 458 1l30 -43q-7 -15 -18 -30q-9 -14 -19.5 -29t-21.5 -31q-18 0 -66.5 -0.5t-120.5 -0.5h-1667z" />
    <glyph glyph-name="quoteleft" unicode="&#x2018;" horiz-adv-x="609" 
d="M59 1252q9 32 26.5 65.5t44.5 65.5t63.5 60t82.5 49l6 -9q7 -8 15 -17.5t14 -18.5q4 -5 7 -8q-96 -82 -96 -172q0 -10 1 -19q4 -45 33 -75.5t60 -38.5q1 -15 1 -28t-1 -23q-10 -14 -25.5 -28t-34 -25.5t-38.5 -19t-39 -8.5q-38 12 -65.5 37.5t-43 59.5t-17.5 58.5
t-2 34.5q0 30 8 60z" />
    <glyph glyph-name="quoteright" unicode="&#x2019;" horiz-adv-x="620" 
d="M113 1128q96 83 96 172q0 10 -1 19q-4 42 -32 72.5t-61 41.5q-1 17 -1 28.5t2 21.5q9 14 24.5 28.5t34 26t38.5 19t39 7.5q38 -12 65.5 -37.5t43.5 -59t18 -57.5t2 -32q0 -32 -9 -64t-26.5 -65.5t-44.5 -65.5t-63.5 -60t-82.5 -49z" />
    <glyph glyph-name="quotesinglbase" unicode="&#x201a;" horiz-adv-x="624" 
d="M263 -16q-4 41 -32 72t-60 41q-1 16 -1 29q0 12 1 21q10 15 25.5 29.5t34 26t38.5 19t38 7.5q38 -12 65.5 -37.5t43.5 -59t18 -57.5t2 -32q0 -32 -9 -64q-18 -65 -71 -131t-145 -109l-4.5 5t-10 12t-11.5 14.5t-11 13.5l-6 8q96 84 96 175q0 8 -1 17z" />
    <glyph glyph-name="quotedblleft" unicode="&#x201c;" horiz-adv-x="1107" 
d="M55 1252q9 32 27 65.5t45.5 65.5t63.5 60t81 49l43 -54q-97 -82 -97 -174q0 -8 1 -16q4 -42 33 -74t60 -40q1 -17 1 -30q0 -12 -1 -21q-10 -14 -25.5 -28t-34 -25.5t-38.5 -19t-39 -8.5q-38 12 -65.5 37t-43.5 59t-18 58t-2 32q0 32 9 64zM527 1252q9 32 27 65.5t45 65.5
t63.5 60t81.5 49l43 -54q-97 -82 -97 -173q0 -8 1 -17q4 -40 32 -73t61 -41q1 -17 1 -29t-2 -22q-9 -14 -24.5 -28t-34 -25.5t-38.5 -19t-39 -8.5q-38 12 -65.5 37t-43 59t-17.5 58.5t-2 34.5q0 30 8 61z" />
    <glyph glyph-name="quotedblright" unicode="&#x201d;" horiz-adv-x="1126" 
d="M573 1128q96 83 96 172q0 10 -1 19q-4 42 -32 72.5t-61 41.5q-1 17 -1 28.5t2 21.5q9 14 24.5 28.5t34 26t38.5 19t39 7.5q38 -12 65.5 -37.5t43.5 -59t18 -57.5t2 -32q0 -32 -9 -64t-26.5 -65.5t-44.5 -65.5t-63.5 -60t-82.5 -49zM208 1319q-4 42 -32 72.5t-61 41.5
q-1 17 -1 28.5t2 21.5q9 14 24.5 28.5t34 26t38.5 19t39 7.5q38 -12 65.5 -37.5t43.5 -59t18 -57.5t2 -32q0 -32 -9 -64t-26.5 -65.5t-44.5 -65.5t-63.5 -60t-82.5 -49l-42 54q96 83 96 172q0 10 -1 19z" />
    <glyph glyph-name="quotedblbase" unicode="&#x201e;" horiz-adv-x="1111" 
d="M687 -215q96 83 96 174q0 8 -1 17q-4 42 -32 73t-60 41q-2 14 -2 24q0 3 0.5 10t1.5 16q10 15 25.5 29t34 25.5t38.5 19t38 8.5q38 -12 65.5 -37t43.5 -59t18 -58t2 -32q0 -32 -9 -64q-18 -64 -71 -131t-145 -110zM322 -24q-4 42 -32 73t-60 41q-2 14 -2 24q0 3 0.5 10
t1.5 16q10 15 25.5 29t34 25.5t38.5 19t38 8.5q38 -12 65.5 -37t43.5 -59t18 -58t2 -32q0 -32 -9 -64q-18 -64 -71 -131t-145 -110l-43 54q96 83 96 174q0 8 -1 17z" />
    <glyph glyph-name="dagger" unicode="&#x2020;" horiz-adv-x="1058" 
d="M125 948q0 42 25 64.5t67 22.5q13 0 38 -8t61 -27q36 -17 83.5 -26.5t105.5 -12.5q0 71 -10.5 132.5t-32.5 128.5q-12 30 -21 56.5t-9.5 39.5t-0.5 15q0 21 8 41t31 40q15 6 26 10.5t26 4.5q17 0 33.5 -8.5t28.5 -21.5q28 -22 28 -71q0 -15 -9 -46t-29 -76
q-19 -45 -27 -106t-8 -139q57 6 105 15.5t84 25.5q38 17 62.5 25t44.5 8q43 0 64 -28q21 -25 21 -64t-16 -64t-61 -25q-37 0 -122 38q-83 37 -160 37q-6 0 -11.5 -0.5t-10.5 -0.5q0 -47 1.5 -99.5t9.5 -104.5t24.5 -100.5t46.5 -87.5q-25 -62 -52 -228v1q-28 -153 -28 -315
v-309h-36v213q-5 162 -22.5 323.5t-67.5 316.5l15 17q25 34 40 81.5t22.5 98.5t10 101.5t2.5 91.5q-45 0 -90.5 -8t-85.5 -28q-42 -15 -73.5 -24t-49.5 -9q-42 0 -61.5 25t-19.5 64z" />
    <glyph glyph-name="daggerdbl" unicode="&#x2021;" horiz-adv-x="1149" 
d="M166 946q0 19 5 35t17 28q29 26 70 26q11 0 36 -9.5t60 -25.5q32 -17 79 -25t113 -14q0 66 -9.5 124.5t-28.5 112.5q-16 52 -25.5 86.5t-9.5 48.5q0 49 26 72q8 11 24.5 16t39.5 8q45 0 67.5 -29.5t22.5 -71.5q0 -39 -37 -122q-20 -45 -28 -106t-8 -139q60 3 106.5 14
t83.5 27q37 17 62 25t44 8q48 0 66 -30q11 -15 15 -30.5t4 -31.5q0 -39 -16 -64t-61 -25q-15 0 -46 9.5t-73 28.5q-39 17 -78.5 27t-80.5 10h-13q-6 0 -13 -1q0 -82 2.5 -136t11.5 -87q5 -35 23 -76t45 -80q-28 -42 -45.5 -77.5t-22.5 -68.5q-9 -30 -11.5 -85t-2.5 -143
q5 0 10.5 -0.5t11.5 -0.5q42 0 80.5 9.5t78.5 26.5q83 39 123 39q37 0 59 -27q10 -14 14 -30.5t4 -32.5q0 -37 -23.5 -63t-61.5 -26q-19 0 -44 7t-56 23q-37 17 -83.5 28t-112.5 16q0 -169 38 -253q17 -35 26 -64t12 -50q0 -49 -30 -74q-35 -26 -63 -26q-42 0 -67.5 28.5
t-25.5 68.5q0 16 10 47.5t28 86.5q38 106 38 236q-103 0 -177 -38q-71 -36 -119 -36q-42 0 -63 24.5t-21 64.5q0 16 5.5 32.5t14.5 28.5q12 11 28.5 18.5t35.5 7.5q41 0 123 -33q42 -16 71 -24.5t55 -11.5l47 -2q0 39 -2 92t-10.5 106t-26 100.5t-49.5 76.5q19 32 34.5 61
t25.5 59q12 40 18.5 103.5t9.5 154.5q-45 0 -91 -8t-85 -28q-38 -15 -69.5 -24t-50.5 -9q-40 0 -62 24.5t-22 62.5z" />
    <glyph glyph-name="bullet" unicode="&#x2022;" horiz-adv-x="930" 
d="M176 704q0 60 21.5 112t59.5 90.5t89.5 60.5t111.5 22q59 0 110 -22.5t88 -61.5t58 -90.5t21 -110.5q0 -126 -82 -207q-38 -43 -88 -63.5t-107 -20.5q-61 0 -113 23t-89.5 62.5t-58.5 92.5t-21 113z" />
    <glyph glyph-name="ellipsis" unicode="&#x2026;" horiz-adv-x="1977" 
d="M1661 231q26 0 49.5 -10t41 -27.5t27.5 -40.5t10 -50q0 -26 -10 -49t-27.5 -40.5t-41 -27.5t-49.5 -10t-49.5 10t-41 27.5t-27.5 40.5t-10 49q0 27 10 50t27.5 40.5t41 27.5t49.5 10zM295 231q26 0 49.5 -10t41 -27.5t27.5 -40.5t10 -50q0 -26 -10 -49t-27.5 -40.5
t-41 -27.5t-49.5 -10t-49.5 10t-41 27.5t-27.5 40.5t-10 49q0 27 10 50t27.5 40.5t41 27.5t49.5 10zM839 103q0 27 10 50t27.5 40.5t40.5 27.5t49 10q54 0 91 -37t37 -91q0 -26 -10 -49t-27.5 -40.5t-40.5 -27.5t-50 -10q-26 0 -49 10t-40.5 27.5t-27.5 40.5t-10 49z" />
    <glyph glyph-name="perthousand" unicode="&#x2030;" horiz-adv-x="2153" 
d="M248 -92q113 171 216 325t197 296q81 120 161 240q19 28 37 55l5 7q16 26 33 50l4 7l32 48l4 6q17 25 33 49q68 102 118.5 178t71.5 108q26 5 44.5 7.5t31.5 3.5q5 1 14 1q8 0 11 -1l22 -48q-233 -343 -462.5 -683t-460.5 -685q-52 -11 -75 -12q-6 -1 -18 -1h-6z
M362 1267q42 13 86 13q43 0 84 -12.5t77 -36t64 -56.5t46 -75q20 -53 20 -111q0 -6 -1 -40.5t-25.5 -92.5t-71 -104t-113.5 -69q-54 -18 -105 -18q-93 0 -164 57t-97 162q-9 36 -9 73q0 22 5.5 63t32 94.5t70.5 94.5t101 58zM310 920q11 -35 29 -65.5t42 -53t53 -35
t60 -12.5h3l7 1h3q29 10 49.5 36.5t31.5 62.5t11 79t-14 86q-15 45 -36.5 78.5t-46 55.5t-50 33t-47.5 11q-6 0 -12.5 -1t-11.5 -3q-24 -16 -43.5 -44.5t-30.5 -64.5t-11 -78t14 -86zM1085 601q42 13 86 13t85.5 -12.5t77.5 -36t64 -57t45 -75.5q20 -54 20 -112
q0 -6 -1 -40.5t-25 -92.5t-70 -104t-114 -68q-55 -18 -107 -18q-94 0 -163 56t-95 162q-10 37 -10 77q0 19 5 59.5t31.5 94.5t70 95.5t100.5 58.5zM1691 601q42 13 86 13t86 -12.5t78 -36t64 -57t45 -75.5q20 -53 20 -112q0 -5 -1 -40t-25.5 -93t-71 -104t-113.5 -68
q-54 -18 -106 -18q-93 0 -162.5 56t-95.5 162q-10 37 -10 76q0 20 5 60.5t31.5 94.5t69.5 95.5t100 58.5zM1035 252q10 -34 28 -64.5t41.5 -52.5t51.5 -35t59 -13q11 0 17 1q28 10 48.5 36.5t32 62.5t11.5 79t-14 86q-15 46 -36.5 79.5t-46.5 55.5t-50.5 32.5t-48.5 10.5
q-12 0 -23 -3q-24 -16 -43 -44.5t-29.5 -65t-11 -58.5t-0.5 -23q0 -42 14 -84zM1641 252q10 -34 28 -64.5t41.5 -52.5t52 -35t58.5 -13q11 0 17 1q29 10 49.5 36.5t31.5 62.5t11 79t-14 86q-15 46 -37 79.5t-47 55.5t-50 32.5t-48 10.5q-11 0 -22 -3q-24 -16 -43.5 -44.5
t-30 -65t-11 -58.5t-0.5 -23q0 -42 14 -84z" />
    <glyph glyph-name="guilsinglleft" unicode="&#x2039;" horiz-adv-x="800" 
d="M168 481q30 33 87 86.5t121.5 113t126 116t100.5 95.5q6 -6 14 -15t13 -15q-24 -35 -59.5 -83t-74.5 -99t-77.5 -101.5t-68.5 -91.5q47 -58 91.5 -120.5t81 -116.5t61.5 -93t33 -50q-3 -5 -8.5 -11t-9.5 -10q-58 53 -109.5 101.5t-102.5 96t-104.5 96t-114.5 101.5z" />
    <glyph glyph-name="guilsinglright" unicode="&#x203a;" horiz-adv-x="727" 
d="M156 797h-1q4 7 11 7q4 0 18 -14l7 -8q5 -4 17 -16l19 -19q48 -48 98.5 -97t110.5 -103q45 -42 75.5 -71t48.5 -46l-3 -1q-2 -3 -5 -5l-6 -4l-89 -78l-205 -190l-12 -13q-6 -7 -13.5 -15t-14.5 -14q-6 -8 -14.5 -16t-15.5 -14q-2 -3 -2.5 -3t-2.5 -1l-10 -5q-4 0 -10 6
v-1q-3 5 -3 13q18 35 45 79.5t58 86.5q14 20 33 45t41 54q24 29 40 49.5t24 31.5q-3 4 -7 8l-4 5q-4 4 -7 8q-20 25 -42.5 55t-47.5 63q-3 5 -6.5 9t-5.5 8l-61 81q-63 93 -63 113q0 4 5 12z" />
    <glyph glyph-name="arrowleft" unicode="&#x2190;" horiz-adv-x="1407" 
d="M22 544l788 788l136 -134l-560 -560h975v-191h-973l560 -559l-135 -135z" />
    <glyph glyph-name="arrowright" unicode="&#x2192;" horiz-adv-x="1390" 
d="M1360 541l-787 -788l-136 134l560 560h-975v191h972l-559 559l135 135z" />
    <glyph glyph-name="uni25CC" unicode="&#x25cc;" horiz-adv-x="1156" 
d="M596 1089q28 0 55.5 -4.5t57.5 -10.5l-22 -120q-41 10 -90 10q-23 0 -46.5 -2.5t-45.5 -7.5l-21 120q60 15 112 15zM154 840q59 96 161 157l71 -98q-81 -49 -131 -129zM807 899l72 98q97 -60 160 -157l-103 -70q-25 39 -56 72t-73 57zM974 482q11 52 11 92q0 22 -2.5 46
t-8.5 45l123 22q12 -58 12 -113q0 -54 -12 -113zM96 687l121 -22q-5 -21 -7.5 -45t-2.5 -46q0 -48 10 -92l-121 -21q-12 51 -12 113t12 113zM936 380l103 -71q-30 -49 -69.5 -89.5t-90.5 -70.5l-72 102q83 48 129 129zM255 380q49 -79 131 -129l-71 -102q-98 60 -161 160z
M484 75l21 121q49 -11 92 -11q41 0 90 11l22 -121q-28 -7 -56 -10.5t-57 -3.5q-26 0 -54 3t-58 11z" />
    <glyph glyph-name="asciicircum" horiz-adv-x="1077" 
d="M926 425l-41 -37l-141 52l-224 605h-17l-263 -636l-54 -12l-63 161l325 660l38 18l111 -52z" />
    <glyph glyph-name="bn_k_uni043A" horiz-adv-x="1252" 
d="M-97 1208h1269l58 -58l-17 -28h-459v-94q91 -6 168.5 -40t137.5 -89q57 -55 77 -114t20 -106q0 -13 -4 -48.5t-37 -76t-88 -45.5h-7q37 -40 52.5 -81t17.5 -90v-6q0 -27 -8.5 -54t-27 -49t-45 -35.5t-59.5 -14.5h-8q-37 2 -62 27.5t-25 63.5t24.5 62t62.5 24q34 0 58 -21
q4 12 6 26q-3 23 -19 50.5t-46.5 52t-77 42.5t-110.5 21v-291q0 -36 0.5 -76t0.5 -86v-102q0 -34 3.5 -71t8.5 -52l-43 -34q-3 3 -13.5 11.5t-22 17.5t-21 17t-11.5 10q-26 58 -74.5 115.5t-109.5 104.5t-130 79t-136 40q-11 16 -24.5 37t-25.5 40.5t-20.5 33.5t-9.5 16
q23 26 56 59t78 66q-36 17 -76.5 30.5t-83.5 20.5q-1 5 -15.5 27t-31.5 47.5t-31 47t-15 24.5q56 71 125.5 131.5t151.5 107.5t174.5 79.5t195.5 46.5v98h-710l-56 61zM754 636q92 -7 165 -48v12q0 38 26.5 64.5t65.5 26.5q31 0 56 -18q9 15 9 33q0 6 -1 12
q-5 32 -27.5 65.5t-62.5 61.5t-98 46.5t-133 20.5v-276zM165 619q42 -16 89 -41.5t93 -55.5q69 42 147 73.5t159 39.5h1v271q-72 -10 -145 -39.5t-139 -70t-119.5 -87t-85.5 -90.5zM655 10v25q0 12 0.5 25.5t0.5 29.5v39q-1 69 -1.5 171t-0.5 223q-53 -8 -105 -28.5
t-99.5 -49t-88.5 -63.5t-72 -72q50 -17 100 -46.5t97 -68.5t90 -86t79 -99z" />
    <glyph glyph-name="bn_k_uniA99B" horiz-adv-x="1172" 
d="M-97 1208h955q25 14 46.5 32.5t35.5 40.5t16 37.5t2 21.5q0 20 -9 42q-14 17 -36.5 27t-49 15t-53 6t-47.5 1q-54 0 -112.5 -3.5t-118 -8t-118.5 -8t-113 -3.5q-49 0 -95.5 4.5t-89 18.5t-79.5 39.5t-67 68.5q-23 33 -29 63t-6 53q0 15 3.5 41t19.5 60.5t42 61.5
q3 -2 10.5 -8.5t16.5 -14.5l19 -16q11 -7 15 -12q-18 -17 -36.5 -45t-18.5 -62q12 -58 78 -94.5t200 -38.5q140 0 254.5 9t205.5 9q75 0 143 -27.5t110 -87.5q36 -52 39 -86t3 -43q0 -49 -27 -93h80l58 -58l-17 -28h-438q21 -53 34 -111q55 -2 106.5 -16t95 -39.5t78 -63
t55.5 -86.5q18 -53 19 -77.5t1 -31.5q0 -31 -7 -59t-22 -49.5t-32 -36.5q-20 -18 -44.5 -26t-48.5 -8q-26 0 -46 7q-36 14 -51 40.5t-15 47.5q0 17 7 35q10 23 32.5 36.5t48.5 13.5q15 0 30 -5.5t27 -18.5q29 11 32 33.5t3 28.5q0 33 -25 69q-11 29 -35 49.5t-55.5 33.5
t-67.5 19.5t-72 7.5q1 -16 1 -31q0 -93 -33 -190t-118 -197q-36 -43 -71 -84.5t-65.5 -78t-53.5 -66t-35 -48.5q-18 -28 -18 -50q0 -2 1 -15t11 -30q13 -30 44.5 -44t61.5 -15q5 -1 11 -1h12q40 0 95.5 9.5t111.5 28.5q48 17 84.5 45.5t50.5 71.5q-33 0 -51 21t-21 53v5
q0 31 26 59.5t72 33.5q6 1 17 1q19 0 38.5 -6t36 -19.5t27.5 -33.5t14 -49q2 -13 2 -26q0 -69 -59 -137.5t-190 -117.5q-65 -23 -129.5 -33.5t-118.5 -10.5q-59 0 -100 11q-28 10 -55.5 35t-49 58t-34.5 71t-13 74q15 60 59 117.5t104 126.5v7q0 44 -23.5 76t-62 53.5
t-83.5 31t-84 9.5h-9q-4 5 -19 25t-32 43t-33 44t-23 29q49 44 114 83.5t140.5 71t158.5 52.5t168 29q-5 29 -12 57.5t-17 57.5h-647l-56 61zM216 728l4 -8q44 -9 83 -27t70.5 -44.5t53 -61.5t29.5 -79l47 55q66 79 95.5 166t29.5 178q-62 -9 -121.5 -26.5t-112.5 -41.5
t-98.5 -52.5t-79.5 -58.5z" />
    <glyph glyph-name="bn_k_uniA9A0" horiz-adv-x="1673" 
d="M-97 1208h1689l58 -58l-17 -28h-1689l-56 61zM52 863q15 -27 32.5 -56.5t34 -57t30.5 -51t23 -39.5q115 -300 264.5 -442.5t325.5 -143.5q86 0 156.5 32t115 83.5t53 93.5t8.5 61q0 45 -21 90q-26 30 -54 40.5t-51 10.5h-3l-6 -1h-3q-42 -61 -115 -61q-49 0 -79.5 30
t-30.5 69q0 23 9 42.5t25 34t36.5 23t44.5 8.5q28 0 58 -11q40 21 68 53t39 64t11 61q0 9 -2.5 33t-26.5 58q-38 26 -81 37.5t-88 11.5q-52 0 -102 -14.5t-91.5 -40t-71.5 -60t-42 -74.5q23 -13 38 -35t15 -50q0 -44 -30 -73.5t-72 -29.5q-60 0 -94.5 40.5t-35.5 98.5
q0 62 33.5 122t94 107t143 75t179.5 28h7q57 0 120 -17.5t105 -51.5q55 -43 72.5 -93.5t17.5 -92.5q0 -17 -2 -34q24 21 56 46.5t69 47.5t76.5 37t78.5 15q38 -1 78.5 -18.5t74 -49t55.5 -76t24 -99.5v-6q0 -56 -18.5 -100t-48.5 -74.5t-67 -46t-72 -15.5q-24 0 -44 7
q-36 3 -65.5 22.5t-42.5 52.5q-13 22 -13 47q0 39 27 66.5t69 27.5q39 0 65.5 -25.5t26.5 -64.5q0 -12 -5 -29q18 6 35.5 20t31 34t20.5 43t7 47v6q-2 17 -13 38.5t-31.5 41t-49.5 33t-67 13.5t-83 -19.5t-89.5 -48t-84.5 -60.5t-69 -58q-18 -20 -41 -37q26 -9 58 -25
t61 -43t51.5 -67t29.5 -98q1 -11 1 -22q0 -59 -24.5 -122.5t-76.5 -118.5t-126.5 -89.5t-166.5 -34.5h-14q-55 0 -115.5 11t-125 44t-132 94.5t-136.5 162.5t-138.5 247.5t-138.5 349.5q7 2 24.5 7.5t21.5 7.5z" />
    <glyph glyph-name="bn_k_t_uniA9AB" horiz-adv-x="1672" 
d="M-112 1183l15 25h1460l58 -58l-17 -28h-1460zM75 867q15 -27 32 -56t33.5 -56t30.5 -50.5t22 -38.5q115 -296 263 -437t323 -141q85 0 155 31.5t114.5 82t52.5 91.5t8 60q0 45 -21 89q-26 29 -53 39.5t-50 10.5q-4 0 -7 -0.5t-6 -0.5q-17 -25 -46.5 -42t-60.5 -18
q-51 0 -83.5 28.5t-32.5 69.5q0 23 9 42t24.5 33.5t36.5 22.5t44 8q27 0 57 -11q40 21 68 53t39 63.5t11 60.5q0 9 -2.5 32.5t-26.5 56.5q-39 26 -82 37t-87 11q-51 0 -100.5 -14t-90.5 -39t-70.5 -59t-41.5 -74q23 -12 37.5 -34.5t14.5 -49.5q0 -42 -29 -71.5t-71 -29.5
q-21 0 -42 8q-45 13 -66 48t-21 80q0 62 33 121t93 105.5t142 74t178 27.5h7q28 0 58.5 -4t59.5 -12.5t56 -21t48 -29.5q55 -43 72.5 -92t17.5 -92q0 -16 -2 -33q24 21 56 46t68.5 46.5t75.5 36t78 14.5q38 -1 78 -18t73.5 -48t55.5 -75t23 -98v-6q0 -55 -18 -99t-47.5 -74
t-66 -45t-71.5 -15q-25 0 -45 7q-36 2 -65 21.5t-42 51.5q-13 19 -13 47q0 39 26.5 65.5t68.5 26.5q39 0 65.5 -25t26.5 -63q0 -12 -5 -29q18 6 35.5 20t30.5 34t20 42.5t7 45.5v6q-2 16 -13 37.5t-31 41t-49 33t-67 13.5q-39 0 -84 -19.5t-89 -48t-84 -60.5t-69 -58
q-10 -10 -19 -18.5t-19 -15.5q26 -9 57.5 -24.5t61 -42.5t51.5 -66.5t28 -96.5q1 -10 1 -20q0 -71 -33 -142.5t-100 -128.5q0 -52 0.5 -120t2 -137.5t3 -133.5t3.5 -109q-8 -7 -19 -15t-16 -12q-3 2 -11.5 9t-18 14.5t-18 14t-11.5 8.5q-11 34 -32.5 63t-50.5 48
q-25 14 -55.5 18.5t-64.5 4.5q-48 0 -101 -6t-105 -10q-23 -2 -43.5 -3t-40.5 -1q-63 0 -111.5 9t-86.5 24.5t-66.5 36.5t-50.5 46q-23 25 -40 60.5t-27.5 78t-11.5 71.5t-1 40q0 37 5 74q5 -2 15.5 -7t21.5 -11t21 -12.5t14 -10.5q1 -45 4.5 -86.5t21.5 -86.5
q27 -47 93 -74.5t176 -27.5q28 0 58.5 2t63.5 6q30 4 58 5.5t54 1.5q91 0 160 -28.5t123 -102.5q-6 57 -9 133t-5 167q-43 -18 -84.5 -25t-88.5 -7q-54 0 -114 10.5t-124.5 43.5t-131.5 93.5t-136 160.5t-137.5 244.5t-136.5 344.5q3 2 10 4t14.5 4.5t14 4t7.5 2.5z" />
    <glyph glyph-name="bn_k_uniA9A9" horiz-adv-x="1662" 
d="M-100 1208h1681l59 -58l-18 -28h-190v-113q0 -64 -0.5 -140.5t-0.5 -155.5t-0.5 -155.5t-0.5 -142.5v-498q0 -6 0.5 -18.5t1.5 -27t2.5 -28t3.5 -20.5q-3 -4 -15 -12l-6 -6q-11 -9 -15 -12l-14 10q-10 8 -20.5 16.5t-19 16t-10.5 9.5q-43 91 -101 154.5t-121 103
t-126.5 57.5t-117.5 18q-57 0 -96 -16q17 -29 17 -62q0 -38 -21 -68.5t-54 -44.5q-11 -7 -26.5 -9.5t-28.5 -2.5h-6q-27 0 -49.5 11.5t-39 31t-26 44t-9.5 49.5q0 36 12.5 65t34 51.5t50 38t60.5 24.5q-32 45 -82 85.5t-113.5 71.5t-139.5 49.5t-160 18.5h-16q-2 3 -17 22
t-32.5 41t-32.5 41t-16 21q45 50 109.5 105.5t143.5 104.5t171 86t193 51v135h-756l-56 61zM797 882v-154q0 -71 0.5 -119t0.5 -88.5t0.5 -82t0.5 -100.5v-17q0 -10 1 -15q71 -1 147 -26t147 -67.5t132.5 -100t103.5 -123.5q-2 35 -2.5 79.5t-0.5 82.5v161q0 111 0.5 235
t1.5 237t1.5 203.5t0.5 134.5h-533v-133q71 -6 146 -32.5t136 -83.5q40 -39 65.5 -76t40 -71.5t20 -65.5t5.5 -59q0 -40 -13 -77t-37 -65.5t-58.5 -45t-76.5 -16.5q-12 0 -21 3q-34 7 -57 36t-23 67q0 42 27.5 69t69.5 27q25 0 45.5 -11.5t34.5 -29.5q14 17 21.5 39.5
t7.5 47.5v12q-12 44 -43 83.5t-75.5 70t-100 49.5t-115.5 22zM239 615q67 -11 133 -31.5t126 -50t112 -66t92 -79.5q-2 77 -3 152.5t-1 152.5v182q-68 -13 -135 -41.5t-127 -64.5t-110.5 -76.5t-86.5 -77.5z" />
    <glyph glyph-name="bn_k_uniA9AD" horiz-adv-x="1354" 
d="M-97 1208h1369l58 -58l-17 -28h-472v-104q106 -3 184.5 -33t144.5 -84q78 -63 114.5 -144t36.5 -165q0 -17 -1 -34q-4 -52 -22.5 -93.5t-46.5 -70.5t-62.5 -44t-70.5 -15q-24 0 -44.5 9.5t-35 25t-23 35t-8.5 38.5q0 45 29 74t72 29q55 0 87 -37q23 21 34.5 54t11.5 70
q0 11 -1 23q-13 57 -51 102.5t-92.5 78.5t-120.5 51t-135 19v-282q0 -69 0.5 -129.5t1.5 -108.5q0 -51 -0.5 -96t-0.5 -84q0 -55 1 -96t1 -79v-51q0 -20 1.5 -44t3 -46t3.5 -39.5t3 -24.5q-3 -3 -15 -12l-20 -15q-10 9 -26 23t-28 26q0 19 -3 43q-10 43 -21.5 83t-28 75.5
t-39.5 66t-57 55.5q-22 -2 -38 -20.5t-25.5 -45t-11 -46.5t-1.5 -30q0 -19 3 -36l-46 -11q-29 67 -62.5 125t-75.5 88q-48 21 -95 21q-61 0 -111 -36q-30 -21 -47.5 -51t-22 -54.5t-4.5 -41.5q0 -16 4.5 -39.5t21.5 -47.5q11 -17 36.5 -30t52.5 -16q-9 18 -9 44
q0 38 26 60.5t62 22.5q34 0 63.5 -22.5t35.5 -68.5v-2l1 -6v-2v-6q0 -10 -5 -23q-7 -23 -23.5 -38t-37.5 -24t-44 -13t-44 -4q-53 4 -94 31t-68 67t-39 84.5t-12 84.5q0 9 1 18q3 50 22.5 90t51 68t72 43t85.5 15q41 0 77 -16t67 -42.5t55.5 -59t43.5 -65.5q11 48 36.5 80
t59.5 38q15 -1 31.5 -8.5t32.5 -19t30.5 -26.5t24.5 -30q18 -33 32.5 -62t25.5 -60q1 1 2 1q-2 10 -3 22.5t-2 29.5l-3 3q-27 85 -83 156t-129.5 123t-159 83t-171.5 36l-125 158q50 49 121.5 106t157.5 108t184 89t202 50v108h-802l-56 61zM246 625l10 -11
q79 -23 152.5 -59t137.5 -84t116.5 -107.5t88.5 -130.5v26q-2 32 -2.5 70t-0.5 69v123q0 64 -0.5 129t-0.5 128v121q-74 -12 -147.5 -40.5t-139.5 -66.5t-121 -81.5t-93 -85.5z" />
    <glyph glyph-name="bn_k_tt_uniA9AB" horiz-adv-x="1192" 
d="M-112 1183l15 25h968q25 14 46.5 32.5t35.5 40.5t16 37.5t2 21.5q0 20 -9 42q-14 17 -36.5 27t-49 15t-53 6t-47.5 1q-54 0 -112.5 -3.5t-118 -8t-118.5 -8t-113 -3.5q-49 0 -95.5 4.5t-89 18.5t-79.5 39.5t-67 68.5q-23 33 -29 63t-6 53q0 15 3.5 41t19.5 60.5t42 61.5
q3 -2 10.5 -8.5t16.5 -14.5l19 -16q11 -7 15 -12q-18 -17 -36.5 -45t-18.5 -62q12 -58 78 -94.5t200 -38.5q140 0 254.5 9t205.5 9q75 0 143 -27.5t110 -87.5q36 -52 39 -86t3 -43q0 -49 -27 -93h93l59 -58l-18 -28h-450q21 -53 34 -111q55 -2 106.5 -16t95 -39.5t78 -63
t55.5 -86.5q18 -53 19 -77.5t1 -31.5q0 -31 -7 -59t-22 -49.5t-32 -36.5q-20 -18 -44.5 -26t-48.5 -8q-26 0 -46 7q-36 14 -51 40.5t-15 47.5q0 17 7 35q10 23 32.5 36.5t48.5 13.5q15 0 30 -5.5t27 -18.5q29 11 32 33.5t3 28.5q0 33 -25 69q-11 29 -35 49.5t-55.5 33.5
t-67.5 19.5t-72 7.5q1 -16 1 -31q0 -93 -33 -190t-118 -197q-36 -43 -71 -84.5t-65.5 -78t-53.5 -66t-35 -48.5q-18 -28 -18 -50q0 -2 1 -15t11 -30q13 -30 44.5 -44t61.5 -15q5 -1 11 -1h12q40 0 95.5 9.5t111.5 28.5q48 17 84.5 45.5t50.5 71.5q-33 0 -51 21t-21 53v5
q0 31 26 59.5t72 33.5q6 1 17 1q19 0 38.5 -6t36 -19.5t27.5 -33.5t14 -49q2 -14 2 -28q0 -36 -17.5 -76t-65.5 -82v-464q0 -44 2.5 -91.5t6.5 -76.5q-5 -8 -16.5 -16.5t-16.5 -12.5q-6 3 -15.5 10t-19.5 15.5t-18 17t-10 14.5q-9 39 -29 73t-55 54q-32 16 -76 21t-89 5
q-37 0 -71 -1.5t-58 -1.5q-117 3 -195.5 49t-122 117t-50.5 130.5t-7 91.5q0 56 12 112q6 -3 15.5 -7.5t20 -10t19.5 -11t14 -10.5q-5 -51 -6 -73t-1 -27q0 -35 10 -72q11 -23 29 -50t51 -51t84 -40.5t127 -17.5q57 -1 111.5 -4.5t103.5 -18t91 -44t74 -83.5q-6 79 -8.5 158
t-2.5 158v93q-75 -35 -155 -54.5t-163 -19.5q-59 0 -100 11q-28 10 -55.5 35t-49 58t-34.5 71t-13 74q15 60 59 117.5t104 126.5v7q0 44 -23.5 76t-62 53.5t-83.5 31t-84 9.5h-9q-4 5 -19 25t-32 43t-33 44t-23 29q49 44 114 83.5t140.5 71t158.5 52.5t168 29
q-5 29 -12 57.5t-17 57.5h-661zM230 728l4 -8q44 -9 83 -27t70.5 -44.5t53 -61.5t29.5 -79l47 55q66 79 95.5 166t29.5 178q-62 -9 -121.5 -26.5t-112.5 -41.5t-98.5 -52.5t-79.5 -58.5z" />
    <glyph glyph-name="bn_k_ssa" horiz-adv-x="1608" 
d="M-97 1208h1625l59 -58l-18 -28h-485v-105v-62.5t-1 -67.5q23 4 44 6t41 2q92 0 161 -33t115.5 -83t69.5 -108t21 -109q-1 -39 -14 -80t-37 -74.5t-58 -55.5t-76 -23h-10q-48 2 -81 36t-33 83q0 25 9.5 46.5t25.5 38t38 26t46 9.5q40 0 71 -23q15 16 22 35.5t8 39t-2.5 37
t-9.5 29.5q-41 51 -93.5 73t-120.5 22q-29 0 -61 -3.5t-67 -10.5l-9 -2q0 -58 -0.5 -115.5t-0.5 -111.5v-344q0 -48 0.5 -84t1.5 -63.5t2.5 -48.5t2.5 -39q-9 -7 -18.5 -14.5t-17.5 -12.5q-15 12 -34.5 26.5t-34.5 28.5q-17 65 -46 124t-69 106.5t-89.5 80.5t-108.5 45
q-15 -36 -48.5 -60.5t-73.5 -24.5q-31 0 -60.5 14t-48.5 43q-15 24 -17.5 51t5 52t24.5 45t41 31q14 7 30 10t32 3q20 0 43 -5q4 21 6 49t-2 59t-16 62.5t-35 58.5q-38 33 -86 47.5t-96 14.5q-29 0 -52 -4q-7 -49 -39.5 -81t-84.5 -32q-19 0 -37.5 6t-35.5 20
q-21 17 -31 41.5t-10 51t9.5 51.5t27.5 44q20 20 46.5 29t55.5 11q-2 36 -19 65.5t-42 53t-54 42t-55 31.5h-104l-56 61zM205 1122q18 -17 37.5 -38t34.5 -45.5t24 -53t6 -60.5q51 -6 101.5 -23t96 -45t84 -66t65.5 -86q19 -34 29 -70.5t14 -70t3.5 -60.5t-3.5 -41
q65 -31 112.5 -76t81 -93.5t56 -95.5t36.5 -82l3 1q-3 37 -5 85.5t-2 102.5q-2 97 -2 212t2 227q-24 -4 -50 -6q-5 0 -8.5 -0.5t-8.5 -0.5q-45 0 -81.5 14t-66 34.5t-52 45t-39.5 45.5q-21 27 -35 58.5t-21.5 64.5t-9.5 64.5t1 58.5h-403zM710 948q9 -16 24 -33t37 -30.5
t51.5 -22t66.5 -8.5q23 0 45.5 3t45.5 8l4 257h-249q-13 -24 -20 -49t-9 -48t-1 -43t5 -34z" />
    <glyph glyph-name="bn_k_ss_uniA9A4" horiz-adv-x="1626" 
d="M-97 1208h1643l58 -58l-18 -28h-496v-169q0 -33 -1 -69q41 6 78 6q93 0 164 -31.5t118 -80t71 -105.5t24 -108q0 -43 -11.5 -85.5t-34 -76t-55 -54.5t-74.5 -22h-10q-48 2 -81 35.5t-33 82.5q0 24 9.5 46t25.5 38t37.5 25.5t46.5 9.5q37 0 66 -20q17 24 21 47.5t4 33.5
q0 28 -13 55q-40 53 -95 75t-127 22q-54 0 -123 -11l-8 -2q0 -54 -0.5 -106.5t-0.5 -103.5v-329q0 -70 0.5 -118.5t1 -83t1.5 -59.5q1 -21 2 -41v-11q1 -20 2 -42q1 -24 2 -58q-6 -5 -18.5 -15t-21.5 -15q-19 13 -36 25.5t-25 17.5q-22 72 -63 126.5t-104 78.5
q-50 22 -95 22q-40 0 -68 -20q25 -14 40.5 -38.5t15.5 -55.5q0 -22 -9 -42t-25 -35.5t-38.5 -24.5t-48.5 -9h-1q-27 0 -50 13t-40.5 35t-25.5 49t-8 53v12q3 45 23 79t51 56t70.5 33t80.5 11q51 -2 94.5 -19.5t80 -45.5t65.5 -63.5t50 -73.5l-2 69q-21 77 -54 135.5
t-73.5 100t-86.5 66.5t-93 36q-17 -35 -54 -56t-80 -21q-24 0 -46.5 9.5t-39 25.5t-26.5 38t-10 47q0 26 10.5 48t28.5 38.5t42.5 26t51.5 9.5t48 -6q6 25 6.5 40.5t0.5 17.5q0 27 -6 54.5t-19 54.5t-34 48q-39 30 -89.5 45.5t-102.5 15.5q-8 0 -16.5 -0.5t-16.5 -1.5
q-2 -54 -37.5 -87t-83.5 -33q-57 0 -89.5 36t-32.5 88q0 26 10.5 49t29 41t42.5 28.5t51 10.5h4q0 40 -18 70t-44 52t-55.5 37t-52.5 24h-110l-56 61zM209 1122q19 -14 40 -32t37 -41.5t22.5 -46t6.5 -41.5q0 -14 -3 -29q54 -5 105.5 -22.5t97 -45t83.5 -64t65 -79.5
q15 -25 26 -56.5t16.5 -61t5.5 -55.5q0 -5 -0.5 -22t-9.5 -38q62 -27 107.5 -66.5t79.5 -82t57 -85.5t38 -78l6 10q-2 28 -3.5 65.5t-1.5 82.5q-2 91 -2 197t1 212q-8 -2 -17 -2.5t-19 -1.5q-89 0 -151 36.5t-114 106.5q-22 29 -36 60.5t-21.5 63.5t-8.5 52t-1 29q0 19 2 35
h-408zM721 950q9 -14 23 -30.5t36 -30.5t53.5 -23.5t74.5 -9.5q20 0 38 2t38 6q1 91 2 159.5t2 98.5h-247q-24 -40 -26.5 -70.5t-2.5 -42.5q0 -33 9 -59z" />
    <glyph glyph-name="bn_k_ss_uniA9A9" horiz-adv-x="1829" 
d="M-112 1183l15 25h1846l58 -58l-17 -28h-162v-120q0 -71 -0.5 -157.5t-0.5 -176.5t-0.5 -177t-0.5 -158v-120q0 -75 -0.5 -130.5t-0.5 -97.5v-75q0 -49 2 -82t8 -69q-6 -5 -15.5 -15.5t-17.5 -15.5q-14 11 -36.5 27.5t-39.5 30.5q-27 77 -76.5 136.5t-110 100t-126 61
t-122.5 20.5q-72 0 -116 -31q19 -15 21 -29.5t2 -19.5q0 -19 -10 -39.5t-33.5 -37t-58.5 -16.5q-27 0 -51 10.5t-41 28t-27 41.5t-10 51q2 63 38 99.5t87 53.5q-27 53 -61.5 88t-71 56.5t-73 31.5t-67.5 12q-14 -30 -46.5 -55.5t-78.5 -25.5q-32 0 -56 16.5t-34 47.5l-3 6
q-8 21 -8 43q0 42 28.5 73t82.5 32q21 0 39 -6q4 17 8.5 41t4.5 48q0 5 -0.5 22.5t-10 49t-33.5 58.5q-36 28 -78.5 41t-87.5 13q-12 0 -23.5 -1t-23.5 -3q-4 -48 -36.5 -78t-77.5 -30q-54 0 -84 34t-30 85q0 25 10 47.5t27 39.5t40 27t48 10q7 0 9 -1q0 34 -17.5 63
t-44 52.5t-56.5 41t-55 28.5h-88zM1009 228q71 -3 145 -26t142.5 -64t128.5 -98q59 -58 105 -127q-5 86 -6 171t-1 171v197q0 103 0.5 207t1.5 195t2 161.5t2 106.5h-519v-173q0 -33 -1 -68h2q23 4 44 6t41 2q82 0 141 -28t97.5 -69.5t57.5 -90t20 -90.5v-7
q0 -36 -10.5 -75.5t-32.5 -71.5t-55 -52.5t-75 -20.5q-44 0 -71.5 33t-27.5 78q0 18 6 36.5t18.5 32.5t31 23t43.5 9q11 0 17.5 -3t11 -7t8.5 -8.5t10 -8.5q10 7 20 20t16.5 30.5t7.5 29.5t1 16q0 17 -6 36q-31 45 -77.5 64.5t-108.5 19.5q-48 0 -109 -11l-21 -4
q-1 -46 -1 -90v-375q0 -25 0.5 -43.5t0.5 -33.5zM182 1122q19 -15 40 -35.5t37.5 -45t23 -46.5t6.5 -40q0 -13 -2 -26q42 -8 85.5 -22t85 -36.5t79.5 -55t68 -78.5q15 -23 25.5 -53.5t14.5 -57t4 -47.5q0 -10 -1.5 -29.5t-10.5 -42.5q52 -10 95 -35t77 -57.5t59.5 -67
t42.5 -64.5l5 3q-2 32 -3.5 67.5t-1.5 86.5q-1 51 -1 103q0 26 0.5 78.5t1.5 130.5q-8 -1 -15.5 -1.5t-15.5 -0.5q-41 0 -75 13t-61.5 32.5t-49 42.5t-36.5 44q-20 26 -33.5 57t-21 63t-8.5 51t-1 26q0 23 4 43h-417zM697 953q9 -13 21.5 -30t32 -32t46.5 -25t65 -10h12
q6 0 13 1l25 3q1 93 2 161.5t2 100.5h-201q-11 -19 -17 -42t-7.5 -40t-1.5 -29q0 -11 1.5 -27t6.5 -31z" />
    <glyph glyph-name="bn_k_ss_uniA9A7" horiz-adv-x="1550" 
d="M-97 1208h1566l58 -58l-18 -28h-429v-156q0 -31 -1 -64q2 1 4 1h4q41 7 83 7q87 0 152.5 -30t109.5 -75t66.5 -98.5t22.5 -100.5q0 -36 -10.5 -73t-31 -67.5t-51.5 -51t-72 -23.5h-23q-4 0 -6 1q-42 6 -70 37t-28 73q0 23 9 43t25 35t37 23.5t45 8.5q37 0 65 -18
q11 17 16 36t5 36q0 13 -2 27q-36 63 -91.5 87.5t-127.5 24.5q-8 0 -27 -1t-39.5 -2.5t-38.5 -4t-26 -5.5q0 -54 -0.5 -106.5t-0.5 -103.5v-478q-1 -1 -2 -1q0 -57 -0.5 -99.5t-0.5 -74t0.5 -55t2.5 -44.5q3 -14 4.5 -28t5.5 -31l-34 -28q-15 11 -35 26t-31 29l-1 2
q-16 51 -47 85.5t-71.5 56.5t-87.5 31.5t-96 9.5q-16 22 -39.5 55.5t-39.5 55.5q51 57 125 103.5t168 70.5q-39 51 -92.5 91t-116.5 54q-16 -34 -53 -56t-79 -22q-24 0 -45.5 9t-38 25t-26 37t-9.5 45t10 45.5t27.5 37.5t40.5 25.5t50 9.5q21 0 46 -5q4 21 4 47t-5.5 52.5
t-16.5 52t-29 44.5q-36 32 -85.5 47.5t-101.5 15.5q-10 0 -19 -0.5t-18 -1.5q-4 -48 -37 -77t-81 -29q-55 0 -86.5 33.5t-31.5 81.5q0 24 10.5 45.5t28 38t41 26.5t49.5 10h6q-1 37 -20 65t-46.5 49t-58 35t-55.5 23h-117l-56 61zM221 1122q57 -35 82 -74t25 -88
q0 -9 -1 -18q110 -10 201.5 -66t142.5 -155q13 -28 21 -57t12 -56t4.5 -39.5t0.5 -15.5q0 -18 -3 -30q47 -21 85 -50t68 -61t53 -66t40 -66l28 4q-2 20 -2.5 42t-0.5 52v185q0 51 0.5 104t0.5 105q-11 -2 -20.5 -3t-20.5 -2h-5l-10 -1h-5q-45 0 -82 12t-67 31t-53 43.5
t-41 48.5q-21 26 -34 55.5t-19.5 59t-7 46t-0.5 21.5q0 21 3 39h-395zM714 959q8 -13 23 -28t37.5 -28t53 -21.5t69.5 -8.5q9 0 18 0.5t18 1.5q12 2 23.5 3.5t22.5 3.5q1 85 1.5 148t1.5 92h-246q-12 -18 -19.5 -39.5t-10 -39t-2.5 -30.5q0 -9 1.5 -23.5t8.5 -30.5zM733 67
l57 -27q78 -25 120.5 -63t67.5 -76q3 2 4.5 2.5t3.5 2.5q-2 28 -4 64t-2 66q0 32 0.5 64t1.5 61q-2 -1 -5 -2l-9 -3q-2 -1 -5 -2q-4 10 -8 19.5t-9 19.5q-73 -25 -128.5 -60t-84.5 -66z" />
    <glyph glyph-name="bn_k_uniA9B1" horiz-adv-x="1570" 
d="M-98 1208h1586l58 -58l-17 -28h-145q0 -39 1 -121t2 -186t2.5 -220.5t2.5 -225.5t2 -200t1 -145v-69q0 -56 3 -111q-5 -4 -9.5 -7t-9.5 -6q-8 -5 -15 -10.5t-10 -7.5q-4 3 -15.5 15.5t-24.5 27.5t-24 28t-13 16q0 16 0.5 47t0.5 73q-36 88 -93 145t-120 63h-5
q-36 0 -70.5 -15t-67 -39t-64 -54t-62.5 -61q-77 -73 -141 -108.5t-124 -35.5q-77 0 -156 65q-34 28 -62.5 59t-48.5 58t-31.5 45.5t-12.5 20.5l74 52q16 -31 37.5 -60.5t46 -53t50 -38t49.5 -15.5q15 0 36 3t50 14.5t66.5 34t84.5 61.5q-10 104 -62 173t-128.5 111
t-168.5 60.5t-182 20.5q-24 26 -53 62t-53 64q42 50 105 102.5t142.5 99.5t174.5 83.5t202 55.5v129h-747l-57 61zM793 1122l1 -125q112 -5 195.5 -48.5t146.5 -133.5q25 -36 35 -72.5t10 -69.5q0 -4 -1 -25t-12.5 -53t-30.5 -53q-18 -22 -46.5 -43.5t-70.5 -23.5h-8h-3
l-5 1h-3q-34 6 -59.5 34.5t-25.5 66.5q0 18 7.5 34.5t21 30t32.5 21.5t42 8q28 0 51 -14q16 25 16 61q0 2 -0.5 22.5t-35.5 66.5q-34 45 -92.5 65.5t-121.5 20.5h-21q-10 0 -21 -2v-587q3 -10 6 -21l5 -14q3 -10 6 -21q21 17 44.5 33.5t49.5 30t53 22t55 8.5q33 -1 70 -18
t73 -45.5t68 -65.5t55 -78q1 71 1.5 152.5t1.5 166.5t1.5 169.5t1 161t0.5 142.5v195h-492zM690 377v139q0 61 0.5 148t0.5 205q-92 -21 -160.5 -48.5t-120 -58.5t-90 -64.5t-71.5 -67.5q66 -11 130.5 -31t122.5 -51t106.5 -73.5t81.5 -97.5z" />
    <glyph glyph-name="bn_g_ukaar" horiz-adv-x="1422" 
d="M0 1087q6 2 25 7t28 5q14 -42 31.5 -97.5t37.5 -109.5q37 -141 93 -270t138.5 -231t194 -169t259.5 -83q11 -2 22 -2h22q54 0 110 14t102 43t76.5 74.5t34.5 109.5q-7 34 -30.5 56t-44.5 36q-46 -32 -92 -32q-38 0 -65.5 22.5t-29.5 67.5q-2 10 -2 19q0 30 21 57t59 34
q6 2 12 2h11q23 0 44.5 -8.5t35.5 -24.5q9 6 28.5 20.5t38 37.5t27.5 50t9 52q0 16 -3 33q-14 45 -50.5 112.5t-87.5 158.5q-4 -19 -12.5 -52t-18 -73t-18.5 -84t-15 -85q-1 0 -12 -1q-9 -1 -19 -2l-13 -1q-10 -1 -18 -2q-12 -1 -14 -1q-11 74 -39 136.5t-67 109t-85.5 74
t-95.5 30.5q-5 1 -10 1h-11q-52 0 -93 -17t-72.5 -44t-54.5 -60t-39 -65q25 6 53.5 9.5t57.5 3.5q36 0 72.5 -5.5t69.5 -17.5t60.5 -30.5t46.5 -45.5q31 -45 31 -95q0 -14 -7 -54t-46 -100.5t-92 -110.5t-97 -77q-26 34 -47 66.5t-29 47.5q60 38 107 76.5t75.5 77t33.5 63.5
t5 36q0 26 -12 52q-23 14 -50 20t-56 6q-59 0 -119 -20t-104 -47q-38 37 -60.5 71.5t-35.5 69.5q21 58 54.5 111t80 93.5t107 65t134.5 24.5q65 0 119.5 -25t97.5 -66t75 -94.5t53 -110.5h2l2 1h2q6 28 15.5 70t18 86t12 75.5t3.5 48.5q0 16 -2 28l55 21q2 -3 26 -35.5
t54 -83.5q7 -22 18 -45t27 -53t37.5 -69.5t49.5 -94.5q39 -76 43 -113.5t4 -53.5q0 -37 -12 -74t-38.5 -68.5t-53.5 -55.5q48 -43 62.5 -94.5t14.5 -88.5q0 -38 -10 -80q-9 -39 -35.5 -83.5t-73.5 -82t-115.5 -62.5t-160.5 -25h-7l-13 1h-7q-136 6 -245 55t-194.5 129
t-150 185.5t-112.5 224.5t-82.5 245.5t-59.5 249.5z" />
    <glyph glyph-name="bn_g_dha" horiz-adv-x="1472" 
d="M16 921q20 71 62 126.5t98 93t121.5 57t131.5 19.5q84 0 157.5 -35.5t134 -92.5t107.5 -128t78 -142q-1 53 -5 115.5t-15 126.5t-30.5 126t-51.5 113l54 39q11 -14 26 -33.5t31 -39t33 -37t32 -27.5l440 1l50 -57l-20 -29h-325q-48 0 -95.5 3.5t-73.5 7.5
q17 -51 27.5 -122t11.5 -153v0l1 -33.5t1 -84.5q26 13 58.5 27.5t63.5 23.5q17 5 29 5q23 0 45 -14t50 -41q18 -17 37 -39t33.5 -46t22 -45.5t7.5 -39.5q0 -7 -1 -13q-6 -41 -12.5 -97t-10 -116t-3.5 -120q0 -9 0.5 -48t8 -106.5t23 -130t43.5 -112.5l-47 -42
q-9 11 -25.5 29.5t-34.5 40t-35 43t-27 38.5q-13 71 -20 161.5t-7.5 139.5t-0.5 56q0 83 6 163t18 137q1 5 1 10q0 11 -5 22t-15.5 21t-22.5 16t-22 6q-5 0 -27.5 -10t-48.5 -22.5t-49 -24.5t-29 -15q0 -29 -0.5 -73t-0.5 -93.5t-0.5 -99t-0.5 -90.5v-97q0 -107 2 -171.5
t4 -101t4 -51.5t2 -22l-37 -30q-10 6 -31.5 24t-36.5 31l-1 3q-27 70 -78.5 124t-114.5 90.5t-132 55t-132 18.5h-19q-26 36 -51 67t-42 54q32 40 88.5 99.5t130 124t159.5 126.5t177 108q-25 67 -64.5 137.5t-93 129t-120.5 96t-147 37.5q-36 0 -78 -7.5t-81.5 -27
t-73 -52.5t-53.5 -84q42 7 90.5 13.5t96.5 6.5q61 0 114 -16t85 -60q22 -32 22 -67q0 -5 -2 -28.5t-23.5 -66t-57 -83.5t-74 -76.5t-76 -63.5t-63.5 -44q-7 11 -17.5 28t-22 35t-21.5 35t-16 29q39 22 90.5 55.5t95.5 73t64.5 73.5t20.5 59q0 15 -6 30q-15 8 -34.5 11.5
t-41.5 3.5q-37 0 -78.5 -8t-81 -20t-73 -25t-54.5 -22q-33 33 -58.5 64t-41.5 67zM510 206q53 -11 108 -32t106 -54t96 -79.5t77 -107.5h1l2 1h1q0 18 -1.5 55t-1.5 80v469q-64 -37 -123.5 -82t-110 -91t-90 -87.5t-64.5 -71.5z" />
    <glyph glyph-name="bn_g_dh_uniA9AB" horiz-adv-x="1476" 
d="M903 823q-1 58 -5.5 121.5t-15.5 125.5t-30 121t-49 108l56 40q12 -15 26 -35.5t30 -41t33 -36t34 -19.5l436 1l50 -57l-18 -29h-305q-24 0 -51.5 1t-53.5 2.5t-49.5 3.5t-38.5 4q18 -51 29 -123.5t11 -157.5v-106q13 6 33.5 15.5t42 18.5t42.5 15t36 6q25 0 47 -14.5
t48 -37.5q16 -15 34.5 -35t34 -42.5t23.5 -43t8 -37.5q0 -5 -1 -11q-9 -61 -18.5 -148t-9.5 -180q0 -5 0.5 -56.5t15 -149t53.5 -173.5l-42 -42q-8 5 -24 22t-34 38t-34.5 42t-25.5 33q-8 53 -15.5 127t-9 132.5t-1.5 90.5q0 57 3.5 134t19.5 168q1 3 1 6q0 8 -5.5 17.5
t-16 18.5t-23.5 15t-24 6h-4q-23 -10 -61 -28.5t-89 -43.5v-129q0 -39 -0.5 -81t-0.5 -82v-499q0 -44 2.5 -91.5t6.5 -75.5q-6 -8 -17 -16.5t-17 -12.5q-4 3 -13 10t-19 15t-18 15t-11 10q0 1 -0.5 2t-0.5 3q-13 51 -34.5 81.5t-49.5 47.5q-35 16 -80.5 21t-92.5 5
q-35 0 -67 -1.5t-55 -1.5q-117 3 -195.5 48.5t-122 117t-50 130.5t-6.5 90q0 57 12 114l35 -17.5t33 -21.5q-5 -51 -5.5 -72.5t-0.5 -24.5q0 -36 10 -75q11 -22 29 -49.5t50.5 -51.5t83.5 -40.5t128 -17.5q69 -1 126 -6t103 -21t83.5 -45.5t67.5 -78.5l-4 38q-2 2 -3 2
q0 4 -1 5q-24 70 -75 124t-115.5 90t-134.5 54t-133 18h-19q-27 35 -51.5 64t-41.5 52q30 37 85.5 93.5t129 119.5t160.5 124t180 107q-28 66 -67 136t-91 127t-117.5 94t-146.5 37q-39 0 -82 -8.5t-83 -28t-73 -51.5t-52 -80q45 8 94.5 15t97.5 7q61 0 112.5 -16t81.5 -59
q22 -31 22 -66q0 -5 -2.5 -28.5t-25 -65.5t-58 -82t-74 -74.5t-75 -61t-60.5 -40.5q-7 10 -18 26t-22.5 33t-21.5 34t-15 28q26 14 58.5 34t65.5 43.5t63 50t50.5 53.5t26.5 46.5t6 30.5q0 15 -6 28q-15 9 -34.5 13t-42.5 4q-36 0 -76 -8.5t-79 -20t-73.5 -24.5t-57.5 -22
q-32 31 -57.5 59.5t-41.5 63.5q19 66 59.5 120t95.5 92.5t120 59.5t133 21q86 0 160 -35t134.5 -91.5t107.5 -127t80 -142.5zM890 -25l8 2q0 17 -1.5 58t-1.5 83v441q-64 -36 -123 -80t-109 -88.5t-90 -86t-66 -72.5q50 -10 103 -29t103.5 -49.5t96 -74.5t80.5 -104z" />
    <glyph glyph-name="bn_g_uniA9A4" horiz-adv-x="1153" 
d="M18 927q13 56 48 109t87.5 94t119 66.5t141.5 25.5q98 0 174.5 -42.5t134.5 -110t99 -150.5t67 -165q3 2 6 3.5t4 3.5q0 66 -2 135.5t-12 138.5t-31 134.5t-60 121.5l59 40q44 -65 84 -91t76 -32h78l72 -62l-18 -24h-27q-42 0 -89.5 3.5t-85.5 19.5q12 -31 20 -62
t12.5 -65.5t6.5 -74t2 -88.5v-80q0 -38 0.5 -85.5t0.5 -98.5t0.5 -103t0.5 -99q0 -76 0.5 -136.5t1.5 -111t2.5 -93.5t3.5 -84l-36 -28q-9 10 -20.5 21.5t-22.5 21.5l-16 14q-13 45 -44 96t-75 95.5t-99 75.5t-116 37q-4 0 -7.5 0.5t-6.5 0.5q-45 0 -76.5 -18.5t-45.5 -44.5
q33 -14 54.5 -43.5t21.5 -66.5q0 -46 -33 -77.5t-84 -36.5q-1 -1 -5 -1h-22q-28 3 -52 18t-41.5 38.5t-26 52.5t-8.5 59v7q1 46 23 86.5t58 70.5t83 47.5t98 17.5q69 0 130 -25t112.5 -67t92.5 -96t71 -111q-3 17 -5.5 41.5t-4 53t-2.5 58.5t-1 57q0 72 -0.5 137.5
t-0.5 128.5q-13 53 -33 110.5t-46.5 114t-60.5 108t-75.5 92t-91 66.5t-107.5 31q-43 0 -84.5 -11t-77 -32t-63.5 -52.5t-44 -73.5q35 11 73 17.5t76 6.5q65 0 121.5 -19t85.5 -59q28 -40 28 -84q0 -11 -5.5 -45.5t-46.5 -92.5t-106 -113t-141 -101q-8 12 -18.5 28.5
t-21.5 34t-20.5 33.5t-15.5 27q73 39 129 78.5t91 77t44.5 63t9.5 40.5q0 16 -7 30q-17 9 -38.5 13t-44.5 4q-37 0 -77 -8.5t-77 -21.5t-68.5 -28t-51.5 -29q-34 36 -61 67.5t-44 70.5z" />
    <glyph glyph-name="bn_g_uniA9A9" horiz-adv-x="1546" 
d="M13 857q12 67 46.5 132t89 116.5t128.5 83t164 31.5h6l12 -1h6q92 -6 163.5 -52t124.5 -111.5t88.5 -139t53.5 -134.5q0 56 -1 94t-2.5 63.5t-3.5 42t-3 30.5q-8 66 -30.5 127.5t-67.5 106.5l48 44l104 -82h529l71 -58l-18 -28h-174v-1032q0 -51 0.5 -85.5t0.5 -57.5
q4 -11 5.5 -21.5t2.5 -21.5q-6 -8 -13.5 -16.5t-15.5 -15.5q-19 13 -37.5 25.5t-36.5 26.5q-17 59 -44.5 113t-63.5 98.5t-81 78t-96 50.5q-13 4 -30 4q-26 0 -44 -12.5t-20 -38.5q2 -6 2 -13q0 -9 -4 -25t-19 -35.5t-40.5 -34.5t-63.5 -16q-30 0 -55.5 12.5t-45 33.5
t-30.5 48t-11 56q0 39 16.5 71.5t46 56.5t69.5 37.5t86 13.5q34 0 66 -7q2 24 2.5 53t0.5 33q0 51 -6 108q-12 77 -47 162t-88.5 158t-122.5 122.5t-149 55.5h-5l-10 1h-5q-39 0 -81.5 -11.5t-80 -37.5t-67.5 -67t-45 -101q89 33 176 33q67 0 122 -22t87 -70
q21 -33 21.5 -55.5t0.5 -25.5q0 -40 -13.5 -84t-40.5 -91t-62 -90.5t-75 -81t-80 -63.5q-7 12 -17.5 28.5t-21.5 34.5t-20.5 35t-15.5 29q41 23 90.5 66t88 93t52.5 88.5t14 60.5q0 23 -10 43q-30 17 -76 17q-33 0 -69 -8t-71.5 -21.5t-68 -31t-58.5 -35.5q-32 23 -66 55
t-61 62zM978 871v-29v-11l1 -19v-11q0 -12 0.5 -29t0.5 -46v-72q0 -36 0.5 -75t1 -66.5t0.5 -44.5t-0.5 -39.5t-2.5 -40.5q79 -37 150.5 -118.5t120.5 -187.5q-3 42 -3 108v932h-109q-24 0 -53.5 0.5t-58 2t-52.5 3t-37 3.5q27 -51 33 -113t8 -147z" />
    <glyph glyph-name="bn_g_uniA9AD" horiz-adv-x="1166" 
d="M19 925q20 63 58.5 116.5t91.5 92.5t117.5 60.5t135.5 21.5q95 0 170 -41.5t132.5 -107.5t98.5 -147.5t68 -160.5q0 55 -1 95t-2 69t-2 49q-1 4 -1 9l-2 23q-8 65 -29.5 131t-71.5 114l48 45q12 -10 26.5 -22.5t29 -24.5t28.5 -22.5t24 -17.5h156l70 -62l-22 -23h-28
q-24 0 -50 0.5t-50 1.5t-44.5 2.5t-34.5 3.5q29 -60 35.5 -124t7.5 -142v-169q0 -60 0.5 -130.5t0.5 -140.5v-242q0 -64 0.5 -106t2 -71.5t4 -50.5t7.5 -43q-6 -6 -19.5 -13.5t-20.5 -11.5q-3 1 -10.5 6.5t-16 12.5t-17.5 14.5t-15 13.5v1l-1 2v1q-8 51 -21 101t-31.5 93
t-43 77t-56.5 52q-26 -5 -44 -26.5t-28 -50.5t-11 -49.5t-1 -28.5q0 -24 4 -46l-51 -14q-28 67 -65.5 122.5t-77.5 83.5q-33 18 -84 18q-37 0 -74.5 -12t-66.5 -40q-30 -27 -47.5 -61t-21 -59.5t-3.5 -41.5q0 -19 4.5 -46t20.5 -56q43 -32 86 -32q9 0 13 1q-11 25 -11 51
q0 40 30 64.5t72 24.5q21 0 40 -9.5t33.5 -25t22.5 -37t8 -45.5q0 -34 -19 -54q-23 -34 -58.5 -48.5t-75.5 -14.5q-62 4 -109 33t-78 73.5t-44.5 94t-13.5 93.5q0 10 1 19q3 50 23 93.5t53 75t76.5 49.5t92.5 18q43 0 80 -13.5t67.5 -37t55.5 -54.5t45 -67q12 46 39 85.5
t74 56.5q18 0 36 -8t35 -20.5t32.5 -28t27.5 -31.5q17 -31 29 -59.5t23 -68.5l4 2q-2 20 -3 56t-1 78v59q0 72 -1 141t-1 135q-11 46 -29.5 101t-45 110.5t-61 107.5t-76 92t-91 64t-106.5 24q-56 0 -99.5 -16t-76.5 -41t-56 -54.5t-38 -56.5q77 21 142 21q77 0 132 -24.5
t80 -66.5q22 -36 22 -74q0 -14 -7 -48t-46.5 -88t-100.5 -105.5t-130 -96.5q-3 2 -14 17t-24 34.5t-24.5 38t-15.5 27.5q40 20 91 52t93 70.5t61.5 72t19.5 58.5q0 15 -6 30q-27 13 -72 13q-31 0 -67 -6.5t-72.5 -17t-72.5 -25t-67 -30.5q-29 26 -57.5 60.5t-45.5 79.5z" />
    <glyph glyph-name="bn_gh_uniA9A4" horiz-adv-x="1106" 
d="M-112 1183l15 25h1122l59 -57l-18 -29h-149v-515q0 -88 2 -153q1 -11 1 -23q0 -5 -0.5 -16.5t-0.5 -28.5q1 -79 1 -145t-0.5 -118.5t-0.5 -90.5v-62q0 -8 1 -28t2.5 -42.5t3 -42.5t3.5 -28l-32 -32q-3 1 -13 7t-21.5 13.5t-20.5 13.5t-11 8q-18 72 -71 131t-131 91
q-46 23 -94 23q-38 0 -70 -14.5t-52 -39.5q30 -14 49 -40t19 -61q0 -23 -10 -44t-27 -37t-40 -25t-49 -9q-31 0 -56.5 15t-43.5 39t-27.5 53.5t-9.5 57.5q1 50 23 89.5t58 68t82 43.5t96 15q56 0 109 -17.5t99.5 -48t85 -71.5t64.5 -89l-8 57q-2 17 -5.5 36.5t-8.5 39.5
l-1 3q-39 72 -100.5 123t-134.5 83t-153.5 46.5t-157.5 14.5q-3 5 -22.5 26t-42 45t-41 43t-18.5 20q67 67 138 130.5t149 118.5l-2 2l-1 3q0 1 -2 2q-11 -2 -44 -7t-77 -5q-51 0 -107 15t-97 62q-23 25 -35.5 60t-12.5 73q0 1 0.5 22t15 62.5t44.5 77.5h-167zM271 844
q32 -18 79 -18t105 16.5t125 48.5l7 -9q2 -3 6 -6q12 -16 27 -34.5t28.5 -35.5t15.5 -21q-44 -30 -90.5 -66.5t-91.5 -75.5t-85.5 -77.5t-73.5 -72.5q95 -19 171.5 -49t137.5 -68.5t108.5 -84.5t83.5 -97q-2 38 -3 82t-1 83v763h-494q-54 -15 -86.5 -53t-38.5 -67t-6 -44
q0 -28 14.5 -61t61.5 -53z" />
    <glyph glyph-name="bn_uni06AD_uni043A" horiz-adv-x="1268" 
d="M-112 1183l15 25h1284l58 -58l-17 -28h-147q23 -36 31.5 -71t8.5 -60q0 -15 -2 -28q-3 -25 -17 -46t-35.5 -36.5t-48 -24.5t-54.5 -9q-18 0 -38 5q-76 20 -148.5 89t-162.5 181h-330q20 -23 36.5 -53t19.5 -68q14 2 28 3t28 1q63 0 121.5 -19t107 -51.5t84 -76.5
t52.5 -94q99 -1 170.5 -30.5t131.5 -77.5q72 -60 103.5 -130t31.5 -144q0 -15 -1 -30q-3 -44 -17.5 -79.5t-36.5 -62t-48.5 -42.5t-53.5 -21q-1 0 -6 -1t-7 -1h-16q-20 2 -37 11.5t-29 24t-19 32t-7 35.5q0 43 27 70.5t66 27.5q46 0 74 -30q17 22 27.5 50.5t10.5 60.5v11
q-13 59 -50 100t-86.5 66.5t-106.5 37.5t-110 12q0 -109 1 -226.5t3 -251.5q1 -101 4.5 -169.5t11.5 -122.5q-5 -3 -17 -11.5t-18 -11.5q-3 3 -14.5 12.5t-25 21t-25.5 21.5t-16 14q-27 74 -78 138t-118 112t-144.5 77t-158.5 34q-7 9 -23.5 31t-34 45.5t-33 44t-20.5 26.5
q45 47 110 97.5t142.5 95.5t165 79t178.5 48q-23 69 -76.5 112.5t-127.5 43.5q-31 0 -59.5 -7t-50.5 -19q-1 -51 -20.5 -91t-64.5 -64q-34 -18 -68 -18t-61 18.5t-44 54.5q-8 19 -8 39q0 3 1 16.5t11 35t27 39.5t39 29q27 15 51.5 22.5t47.5 9.5q2 10 2 19q0 14 -6 31
t-21.5 34.5t-36.5 32t-43 26.5h-211zM978 964q32 20 32.5 43.5t0.5 24.5q0 44 -34 90h-287q76 -97 136 -134t103 -37q26 0 49 13zM230 401q4 -5 5 -6t3 -5q159 -45 271 -133.5t175 -212.5q1 1 3 1q-3 18 -4.5 54.5t-1.5 72.5v45q0 173 2 271t3 142q-3 5 -5 13
q-65 -13 -131 -38t-126 -57.5t-110 -70t-84 -76.5z" />
    <glyph glyph-name="bn_uni06AD_k_uniA9AB" horiz-adv-x="1375" 
d="M-97 1208h1390l58 -58l-17 -28h-252q23 -36 32 -71.5t9 -60.5q0 -14 -2 -27q-3 -25 -17.5 -46t-35.5 -36.5t-47.5 -24.5t-54.5 -9q-17 0 -39 5q-76 20 -148.5 89t-162.5 181h-324q20 -23 36.5 -53t18.5 -68q14 2 27.5 3t26.5 1q66 0 126 -20t109 -53.5t84.5 -77
t51.5 -90.5q97 -2 168 -31t131 -77q72 -60 103.5 -130t31.5 -144q0 -15 -1 -30q-3 -48 -20.5 -86.5t-42.5 -65.5t-55 -41t-59 -14h-4q-22 0 -40.5 9t-32 23.5t-21.5 33t-8 37.5q0 43 27 70.5t66 27.5q23 0 43.5 -9t34.5 -24q18 22 29 51.5t11 62.5v11q-13 59 -50 100
t-86.5 66.5t-106 37.5t-109.5 12v-189l1 1v-75q0 -31 0.5 -72t0.5 -86v-43q0 -7 1 -14v-101q0 -91 2 -171.5t4 -124.5l9 -65q-5 -6 -16.5 -14t-19.5 -14q-13 9 -31 23.5t-29 23.5q0 1 -0.5 2t-0.5 3q-13 58 -36 88.5t-50 47.5q-25 11 -59.5 14.5t-74.5 3.5q-37 0 -75.5 -2
t-76.5 -3h-10q-99 0 -167 34t-110.5 85.5t-62 112t-20.5 113.5q-2 20 -2 37q0 23 5 50.5t15 56.5q10 -6 31 -17.5t32 -24.5q-10 -48 -11 -69.5t-1 -27.5q0 -32 8 -63q12 -25 32.5 -53t54.5 -52t84 -39.5t120 -15.5q67 0 123 -5t102.5 -20.5t83 -45t63.5 -78.5l6 3
q0 3 -0.5 6t-0.5 5l-4 3q-23 88 -76 161t-124 126.5t-153.5 85t-163.5 36.5q-7 9 -23.5 31t-34 45.5t-33 44t-20.5 26.5q45 46 110 97t144 96.5t167.5 79.5t179.5 47q-14 42 -38.5 69.5t-50.5 48.5q-24 20 -54 28.5t-61 8.5q-32 0 -62 -7.5t-53 -18.5q-2 -49 -21 -89.5
t-64 -64.5q-34 -18 -68 -18t-61 18.5t-44 54.5q-8 19 -8 39q0 3 1 16.5t11 35t27 39.5t39 29q27 15 51.5 22.5t47.5 9.5q2 10 2 19q0 14 -6 31t-21 34.5t-36 32t-43 26.5h-218l-56 61zM692 1122q77 -96 136 -133.5t102 -37.5q26 0 49 13q31 20 32 44t1 26q0 44 -33 88h-287z
M237 401q4 -5 5 -6t3 -5q157 -45 270.5 -134t176.5 -210l1 1q-1 14 -2 35t-1.5 44t-1 47t-0.5 44q0 172 1.5 275t2.5 152q-66 -13 -132.5 -38t-126.5 -57.5t-110.5 -70.5t-85.5 -77z" />
    <glyph glyph-name="bn_uni06AD_k_ssa" horiz-adv-x="2422" 
d="M-108 1181l15 27h229q46 0 83.5 -19.5t68 -46.5t56 -56.5t48.5 -49.5q23 35 54 67t68.5 56t81 38.5t89.5 14.5q19 0 38 -3l11 -3l1 2h1606l58 -58l-17 -28h-486v-235q23 4 44 6t41 2q92 0 161 -33t114.5 -83t68.5 -108.5t23 -108.5q-1 -40 -14.5 -81.5t-38 -75t-59 -55
t-78.5 -21.5h-5q-48 2 -81 36t-33 83q0 50 34.5 85t84.5 35q39 0 70 -23q15 16 22 35.5t8 32t1 18.5q0 13 -3 28t-9 27q-42 51 -94.5 73t-120.5 22q-29 0 -61 -3.5t-67 -10.5l-9 -2v-571q0 -48 0.5 -84t1.5 -63.5t2.5 -48.5t2.5 -39q-9 -7 -18.5 -14.5t-18.5 -12.5
q-14 12 -33.5 26.5t-35.5 28.5q-17 65 -46.5 124t-69 106.5t-89 80.5t-107.5 45q-16 -37 -49.5 -61t-73.5 -24q-31 0 -61 14t-47 43q-15 24 -17 41.5t-2 24.5q0 19 6.5 40.5t23.5 41.5t41 31q14 7 30 10t32 3q20 0 43 -5q4 21 5.5 39.5t1.5 28.5q0 19 -3.5 45t-15.5 57.5
t-35 58.5q-38 33 -85.5 47.5t-95.5 14.5q-29 0 -52 -4q-8 -50 -39 -81.5t-85 -31.5q-19 0 -38 6t-36 20q-21 17 -31 41t-10 49q0 1 0.5 15t10 39t27.5 44q20 20 46 29t55 11q-1 36 -18 65.5t-42 53.5t-54 42t-55 31h-15q3 -5 6 -10.5t5 -10.5q11 -27 11 -53t-16 -64.5
t-73 -77.5q-34 -23 -76.5 -35t-87.5 -12q-46 0 -90.5 11.5t-82.5 34.5q-11 -22 -20.5 -56.5t-13 -65t-3.5 -53.5q0 -15 2 -42t17 -58q21 -11 45 -11q31 0 61 16t56 40.5t46 53t30 53.5q8 0 33 5q6 1 12.5 2t13.5 3q78 -52 124.5 -129.5t52.5 -167.5q0 -72 -25.5 -130.5
t-70 -100t-105 -64t-130.5 -22.5q-94 0 -168.5 42.5t-132 110.5t-100 155t-72.5 176t-50 172.5t-33 144.5q14 6 28.5 8t28.5 2q14 -43 27 -80t35 -90q14 -55 33.5 -115.5t47.5 -119t63.5 -111t81.5 -93t101.5 -64t123.5 -23.5q58 4 106.5 33.5t80 73t38 79t6.5 53.5
q0 34 -12 67q-4 8 -12.5 19t-19 22t-20.5 20.5t-17 13.5q-20 -27 -45.5 -54t-55.5 -49.5t-63.5 -36.5t-69.5 -14q-31 0 -52 10q-22 10 -44.5 31t-40.5 47.5t-30.5 56.5t-15.5 57q-3 29 -3 55q0 43 10.5 91t34.5 102q-24 20 -49 46t-53.5 49.5t-62 40t-74.5 16.5h-169z
M478 976q26 -15 56 -24t60 -9q49 0 89.5 19t67 44.5t34 44.5t7.5 28q0 12 -7 20q-5 11 -24.5 18t-46.5 7q-26 0 -57.5 -7.5t-63 -25t-61.5 -45.5t-54 -70zM1017 1122q18 -17 37.5 -38t34.5 -45.5t23 -49.5t8 -48q0 -8 -1 -16q51 -6 101.5 -23t96 -45t84 -66t65.5 -86
q19 -34 29.5 -70.5t14 -66.5t3.5 -53q0 -5 -0.5 -21t-3.5 -31q65 -31 112.5 -76t81 -93.5t56 -95.5t36.5 -82l3 1q-2 37 -4.5 85.5t-2.5 102.5q-2 78 -2 167q0 22 0.5 91t1.5 181q-24 -4 -50 -6q-5 0 -8.5 -0.5t-7.5 -0.5q-45 0 -81.5 14t-66 34.5t-52.5 45t-40 45.5
q-21 27 -34.5 59t-21 64.5t-9 54.5t-1.5 34q0 18 2 34h-404zM1522 948q9 -16 24 -33t37 -30.5t51.5 -22t66.5 -8.5q23 0 45.5 3t45.5 8l4 257h-249q-13 -24 -20 -49t-8.5 -44t-1.5 -33q0 -7 0.5 -20.5t4.5 -27.5z" />
    <glyph glyph-name="bn_uni06AD_uni0445" horiz-adv-x="2022" 
d="M-103 1208h229q46 0 83.5 -19.5t68 -46.5t56 -56.5t48.5 -49.5q23 35 54 67t68.5 56t81 38.5t89.5 14.5q19 0 38 -3q55 -12 86 -42t45 -61q24 27 69 27q48 0 78 -30t30 -75v-4l-1 -7v-4q70 0 131 41q45 33 82.5 75.5t47.5 81.5q6 2 18 4.5t23 4.5l13 3q42 -18 90.5 -53.5
t87 -85t54 -98t15.5 -86.5q0 -29 -7 -60q-13 -56 -52.5 -103t-92 -82.5t-110 -60t-107.5 -35.5v-5q77 -34 152.5 -79.5t144 -99.5t127.5 -116t103 -128q-3 21 -5 59.5t-2 101.5v600q0 57 -3 108.5t-13 100t-28.5 97t-49.5 100.5l57 38q26 -36 47.5 -60.5t42 -39.5t42 -22
t47.5 -7h66l67 -62l-17 -24h-26q-22 0 -47.5 1.5t-49.5 4.5t-44 7t-32 9q18 -48 26.5 -114.5t9.5 -168.5q0 -61 1 -155.5t1 -206.5v-174q0 -39 1.5 -92.5t3.5 -105t4 -93t4 -57.5q-2 -2 -11.5 -9.5t-17.5 -12.5l-9 -6q-2 3 -8 9.5t-14 14.5t-17 16.5t-17 15.5q-5 0 -5 4
q-2 2 -3 2.5t-2 2.5q0 1 -0.5 2.5t-0.5 3.5q-50 89 -127 163.5t-167.5 131.5t-188 94.5t-187.5 51.5q-2 3 -19.5 28t-38.5 54t-39.5 54.5t-21.5 29.5q0 2 8.5 15t10.5 15q37 -8 72 -8q51 0 104 13t102 34t89.5 48.5t66.5 56.5q39 39 53.5 78.5t14.5 73.5q0 6 -1.5 29
t-21 54.5t-49.5 45.5q-11 8 -16.5 9t-11.5 3q-16 -30 -45.5 -64.5t-71 -65t-93.5 -53.5t-114 -30q-31 -7 -64 -7q-59 0 -101 23t-59 59q-38 -50 -97.5 -73t-120.5 -23q-45 0 -89.5 11.5t-82.5 34.5q-11 -23 -21 -57.5t-13.5 -64t-3.5 -51.5q0 -16 2.5 -43.5t17.5 -58.5
q21 -11 45 -11q31 0 61 16t56 40.5t46 53t30 53.5q8 0 33 5q6 1 12.5 2t13.5 3q78 -52 124.5 -129.5t52.5 -167.5q0 -72 -25.5 -130.5t-70 -100t-105 -64t-130.5 -22.5q-94 0 -168.5 42.5t-132 110.5t-100 155t-72.5 176t-50 172.5t-33 144.5q14 6 28.5 8t28.5 2
q14 -43 27 -80t35 -90q20 -83 55 -175.5t89 -170.5t129.5 -129t177.5 -51q58 4 106.5 33.5t80 73t38 79t6.5 53.5q0 34 -12 67q-4 8 -12.5 19t-19 22t-20.5 20.5t-17 13.5q-20 -27 -45.5 -54t-55.5 -49.5t-63.5 -36.5t-69.5 -14q-31 0 -52 10q-22 10 -44.5 31t-40.5 47.5
t-30.5 56.5t-15.5 57q-3 29 -3 56q0 42 10 90t34 102q-23 20 -48 46t-53.5 49.5t-62 40t-74.5 16.5h-169l-56 59zM468 976q26 -15 56 -24t60 -9q49 0 89.5 19t67 44.5t34 44.5t7.5 28q0 12 -7 20q-5 11 -24.5 18t-46.5 7q-26 0 -57.5 -7.5t-63 -25t-61.5 -45.5t-54 -70z" />
    <glyph glyph-name="bn_uni06AD_uniA992" horiz-adv-x="1208" 
d="M-97 1208h1224l58 -58l-18 -28h-203q16 -26 25.5 -56.5t9.5 -57.5v-10q-4 -28 -19.5 -50t-37.5 -36.5t-48 -22t-53 -7.5q-25 0 -43 5q-38 10 -71.5 31t-67.5 52t-69.5 69.5t-77.5 82.5h-201q23 -22 39 -48.5t26 -52.5t15.5 -50.5t8.5 -43.5q49 -7 86.5 -29.5t64.5 -55
t44.5 -72t26 -80.5t8.5 -80t-7 -71l3 -2q49 59 107.5 110t117 90.5t112 66t92.5 36.5q6 -6 18.5 -19.5t26.5 -30t27 -33t20 -28.5q-61 -36 -102.5 -91.5t-65.5 -121.5t-31 -124t-7 -100q0 -26 2 -50q4 -57 12 -104t20 -89t28.5 -82t38.5 -82q-4 -3 -15.5 -9t-24 -12.5
t-23 -12t-11.5 -6.5q-48 85 -76.5 180.5t-34 163t-5.5 103.5q0 60 10.5 136.5t45.5 160.5l-5 2q-85 -57 -160.5 -122t-145.5 -138q-43 -43 -91 -86.5t-99 -67.5q-46 -23 -91 -23q-39 0 -75 17.5t-68 49t-61 75t-55 96.5q3 2 12.5 8t20.5 12.5t20.5 12t11.5 6.5
q27 -48 59 -86.5t72 -56.5q6 -1 11.5 -1.5t11.5 -0.5q39 0 74 16.5t64.5 40t52.5 49t37 44.5q45 79 51.5 131t6.5 76q0 49 -14 90q-23 45 -60 64t-75 19q-36 0 -65 -15q5 -20 5 -37q0 -27 -10.5 -50.5t-28.5 -41.5t-43.5 -28.5t-55.5 -10.5q-48 0 -79 32t-31 78v5
q1 40 23 71.5t54.5 54t70.5 36t70 17.5q-2 24 -16.5 53t-37 56.5t-49.5 50.5t-54 35h-222l-56 61zM873 1122h-290q62 -81 121 -115t105 -34q30 0 51 12t29.5 29.5t8.5 35.5q0 7 -2.5 24.5t-22.5 47.5z" />
    <glyph glyph-name="bn_uni06AD_gha" horiz-adv-x="1839" 
d="M-118 1187l15 27h229q46 0 83.5 -19.5t68 -46.5t56 -56.5t48.5 -49.5q23 35 54 67t68.5 56t81 38.5t89.5 14.5q19 0 38 -3q7 -2 13 -3.5t12 -3.5h1019l59 -58l-18 -28h-149v-109q0 -61 0.5 -135t0.5 -150.5t0.5 -151t0.5 -137.5v-110q1 -125 2.5 -215t6.5 -135
q-7 -5 -19.5 -14t-18.5 -13q-5 4 -14.5 13t-19 19t-18 18.5t-12.5 11.5v1q-30 77 -84.5 136.5t-123 99.5t-146 60.5t-153.5 20.5q-12 0 -23.5 -0.5t-23.5 -1.5q-18 18 -36.5 39t-34.5 40.5t-28.5 35.5t-18.5 24q-6 -67 -34 -119.5t-72 -89.5t-101 -56.5t-122 -19.5
q-94 0 -168.5 42.5t-132 111t-100 155t-72.5 175.5t-50 172.5t-33 144.5q14 6 28.5 8t28.5 2q14 -43 27 -80t35 -90q20 -83 55 -175.5t89 -170.5t129.5 -129t177.5 -51q58 4 106.5 33.5t80 73t38 79t6.5 53.5q0 34 -12 67q-4 8 -12.5 19t-19 22t-20.5 20.5t-17 13.5
q-20 -27 -45.5 -54t-55.5 -49.5t-63.5 -36.5t-69.5 -14q-31 0 -52 10q-22 10 -44.5 31t-40.5 47.5t-30.5 56.5t-15.5 57q-3 29 -3 56q0 42 10 90t34 102q-23 20 -48 46t-53.5 49.5t-62 40t-74.5 16.5h-169zM468 982q26 -15 56 -24t60 -9q49 0 89.5 19t67 44.5t34 44.5
t7.5 28q0 12 -7 20q-5 9 -23 17h-2l-1 1q-18 6 -45 6q-26 0 -57 -7t-62.5 -24.5t-62 -45.5t-54.5 -70zM954 855q23 -25 54.5 -36t69.5 -11q56 0 117.5 22t119.5 60l10 -12q14 -17 37.5 -46t41.5 -49q-45 -33 -93 -76t-93.5 -88t-85.5 -87t-68 -73q84 -14 158 -43.5
t137 -69.5t113 -88.5t86 -100.5q-3 22 -4 52.5t-1 62.5v360q0 82 -0.5 160t-0.5 144v186h-504q-39 -18 -68.5 -51.5t-43 -68.5t-13.5 -67q0 -7 2 -29.5t29 -50.5zM840 1121l1 1h-1v-1zM414 636q21 -11 45 -11q31 0 61 16t56 40.5t46 53t30 53.5q8 0 33 5q6 1 12.5 2t13.5 3
q78 -52 124.5 -129.5t52.5 -167.5v-10q0 -6 -1 -9q8 10 33.5 38t63 65.5t84 80.5t96.5 82q0 2 -4 5q-22 -8 -57 -14t-76 -6q-46 0 -89 11t-76 34t-54.5 58.5t-24.5 85.5l-14 -10q-35 -23 -77.5 -35t-87.5 -12t-89.5 11.5t-82.5 34.5q-11 -23 -21 -57.5t-13.5 -64t-3.5 -51.5
q0 -16 2.5 -43.5t17.5 -58.5z" />
    <glyph glyph-name="bn_uni06AD_gh_uniA9AB" horiz-adv-x="1875" 
d="M-105 1182l15 26h227q46 0 82.5 -17.5t67 -43.5t56.5 -55t52 -52q22 34 53 65t68.5 55t80.5 38.5t89 14.5q19 0 38 -3l9 -2h1061l59 -57l-18 -29h-149v-132q0 -77 0.5 -171.5t0.5 -191.5t0.5 -189.5t0.5 -166.5v-120q0 -47 1 -93t2.5 -87.5t3 -76t2.5 -58.5l-36 -27
q-3 3 -11 10q-7 5 -14 11l-10 8q-7 6 -13 11q-9 7 -12 10v1q-11 42 -34 70t-49 39q-23 12 -47 16.5t-52 4.5q-32 0 -68.5 -3.5t-83.5 -5.5q-13 -1 -25 -1.5t-23 -0.5q-65 0 -116 11t-90 29.5t-66 42t-44 48.5q-19 30 -28.5 67t-10.5 61t-1 33q0 28 4 59t14 56
q11 -5 32.5 -19t31.5 -22q-5 -30 -5.5 -48.5t-0.5 -20.5q0 -33 8 -63q12 -29 38 -50t62 -35t79.5 -21t88.5 -7q13 0 25 0.5t25 1.5q14 1 28 1h27q41 0 78.5 -4.5t72 -17.5t66 -36.5t59.5 -62.5q-1 21 -1.5 45.5t-5.5 47.5q-33 71 -89 125.5t-125 91.5t-146.5 56t-153.5 19
q-11 0 -22 -0.5t-22 -1.5q-21 20 -43 44t-40 45t-29.5 35t-12.5 15q66 71 138 137t150 123q-1 1 -1.5 2t-2.5 2q-23 -7 -59.5 -12.5t-78.5 -5.5q-45 0 -87 9.5t-76 31t-56.5 55.5t-27.5 83q-15 -13 -27 -20q-35 -23 -77 -33t-85 -10q-49 0 -94 12t-77 32q-11 -23 -21 -54.5
t-13.5 -58.5t-3.5 -48q0 -14 2 -38t18 -53q25 -11 48 -11q33 0 63 16.5t55 40t43.5 49t27.5 43.5q3 1 12 2.5t20 3.5l26 4q81 -48 126 -125t51 -160q0 -37 -13.5 -83.5t-47.5 -88.5t-90.5 -73.5t-143.5 -39.5q-11 -1 -21 -1.5t-20 -0.5q-88 0 -158 34.5t-125.5 92t-97.5 133
t-73.5 158.5t-54 167.5t-39.5 159.5q10 3 21.5 6.5t25.5 3.5q7 0 11 -1q15 -42 28 -80t34 -89q20 -81 56 -165.5t90.5 -154t128 -114t169.5 -44.5q47 1 94.5 21.5t82.5 56t48 72.5t13 65q0 25 -7 51q-6 14 -16.5 28.5t-21.5 26.5t-22 21.5t-18 13.5q-20 -26 -46 -51.5
t-55.5 -45.5t-63 -32.5t-68.5 -12.5q-30 0 -50 10q-20 8 -42 25t-41 39.5t-33 50.5t-18 59q-3 22 -3 44q0 38 10 86t37 106q-21 19 -46 44t-55 48t-64 39t-73 16h-171zM593 949q43 0 83.5 15.5t69.5 38t40 42t11 31.5q0 10 -5 18q-11 20 -46 28h-18l-2 2q-77 0 -142 -38
t-103 -105q24 -16 53.5 -24t58.5 -8zM980 866q23 -23 54 -33.5t69 -10.5q57 0 120.5 21t123.5 57l10 -11q10 -12 24 -28t29.5 -33.5t27.5 -30.5q-46 -32 -95 -73t-95.5 -83.5t-87 -82.5t-68.5 -70q85 -14 160 -42t138 -65.5t114 -83t88 -94.5q-3 86 -3 171v467
q0 85 -0.5 159t-0.5 122h-505q-42 -15 -74 -46.5t-46 -66t-14 -65.5q0 -6 1.5 -28t29.5 -50zM851 1122l6 -13l9 13h-15z" />
    <glyph glyph-name="bn_uni06AD_uniA9A9" horiz-adv-x="1804" 
d="M-108 1187l15 26h229q46 0 83.5 -19.5t68 -46.5t56 -56.5t48.5 -49.5q23 36 54 68t68.5 56t81 38.5t89.5 14.5q19 0 38 -3q7 -2 13 -3.5t12 -3.5h976l59 -57l-18 -29h-149v-244q0 -73 0.5 -150.5t0.5 -150.5t0.5 -137t0.5 -111q0 -125 2 -215t7 -135q-8 -5 -20 -14
t-18 -13q-5 4 -14.5 13t-19 19t-18 18.5t-12.5 11.5v2q-24 73 -69.5 129.5t-100 97t-112 65t-105.5 32.5q-20 -37 -55 -66t-94 -29q-54 0 -87.5 26.5t-44.5 68.5q-46 -81 -122.5 -118.5t-167.5 -37.5q-94 0 -168.5 42.5t-132 111t-100 155t-72.5 175.5t-50 172.5t-33 144.5
q14 6 28.5 8t28.5 2q14 -43 27 -80t35 -91q14 -55 33.5 -115.5t47.5 -119t63.5 -111t81.5 -92.5t101.5 -63.5t123.5 -23.5q58 4 106.5 33t80 72.5t38 79t6.5 53.5q0 34 -12 67q-4 8 -12.5 19.5t-18.5 22.5t-20 20.5t-18 13.5q-21 -27 -46.5 -54.5t-54.5 -49.5t-62.5 -36
t-70.5 -14q-29 0 -52 10q-22 10 -44.5 31t-40.5 47.5t-30.5 56.5t-15.5 57q-3 29 -3 55q0 43 10.5 91t34.5 102q-24 20 -49 46t-53.5 49.5t-62 39.5t-74.5 16h-169zM549 953q25 -5 45 -5q49 0 89 19t66.5 44.5t34 44.5t7.5 29q0 11 -6 19q-6 11 -26 17.5t-48 6.5
q-26 0 -56.5 -7t-62 -24t-61 -45t-53.5 -70q14 -8 35.5 -16.5t35.5 -12.5zM1197 792q21 -41 30 -83.5t9 -81.5q0 -4 -0.5 -28t-11.5 -64.5t-31 -74.5q97 -45 183.5 -128t146.5 -188l4 1q-2 13 -3.5 33t-2 43t-1 47t-0.5 46v318q0 82 -0.5 160t-0.5 144v186h-600
q31 -24 68 -57t74.5 -75t72.5 -91.5t63 -106.5zM424 636q21 -11 46 -11q30 0 60 16t56 40t46 52.5t30 53.5q3 1 12.5 2.5t20.5 3.5q6 1 12.5 2t13.5 3q78 -52 124.5 -129.5t52.5 -168.5v-4l-1 -7v-4q20 17 46 27t56 10q17 0 33 -3.5t32 -8.5q44 48 53.5 85.5t9.5 60.5
q0 40 -15 91q-26 47 -73.5 99.5t-105.5 92.5q-15 8 -27.5 15t-22.5 12l-36 18q-17 -31 -43 -53.5t-57 -37.5t-65 -22t-68 -7q-45 0 -89.5 11.5t-82.5 34.5q-11 -23 -20.5 -57t-13 -64.5t-3.5 -53.5q0 -15 2 -41.5t17 -57.5z" />
    <glyph glyph-name="bn_c_uniA995" horiz-adv-x="1500" 
d="M-112 1183l15 25h1517l58 -58l-17 -28h-695v-5q16 -66 51.5 -124t83.5 -100q50 -42 118.5 -63.5t137.5 -37.5q42 -10 89 -27.5t92 -59.5q30 -29 38 -64.5t8 -62.5q0 -9 -1 -18q-5 -47 -30 -106.5t-63.5 -121t-87 -120.5t-102.5 -104.5t-109.5 -73.5t-106.5 -28
q-37 0 -72.5 19t-65.5 54q-24 27 -40 53t-26 59.5t-14 78.5t-4 110v63q-24 -38 -58.5 -81t-76 -79.5t-87.5 -61.5t-94 -28q-34 0 -66 13t-55 38q-21 23 -35.5 45.5t-23.5 52.5t-13 72.5t-4 105.5q0 146 1.5 302.5t1.5 299.5h-208zM252 1106q6 -31 19.5 -58.5t29.5 -50
t33 -39.5t29 -27q48 -37 105 -54t114 -28q23 -5 44 -17t38 -25q0 82 0.5 162.5t0.5 152.5h-413v-16zM763 401q0 -68 2 -114t8 -77.5t16 -52t25 -36.5q5 -2 11 -2h12q41 0 87 25.5t92 66.5t89 94t77 107q32 53 48 94t17 60t1 23q0 27 -10 49t-31 40q-51 1 -112 17t-121.5 49
t-114 85.5t-89.5 127.5q-1 1 -1.5 1t-1.5 1q-1 0 -3 2l-1 1v-561zM288 305q5 -1 14 -1q50 0 118 54t139 158q21 32 37 65t21.5 56.5t5.5 38.5q0 12 -4 30.5t-26 35.5q-40 4 -87.5 16.5t-94 37.5t-88.5 65t-70 100l-4 -2v-359q0 -45 -0.5 -71t-0.5 -33q0 -37 2.5 -73
t11 -67.5t26.5 -50.5z" />
    <glyph glyph-name="bn_c_cha" horiz-adv-x="1592" 
d="M-97 1208h1609l58 -58l-17 -28h-808v-66q19 -48 51 -74.5t69 -40.5t73.5 -19t64.5 -9q5 -1 10.5 -1.5t10.5 -0.5q32 0 68.5 7.5t78.5 7.5q41 0 86 -13.5t94 -53.5q47 -36 75 -81.5t39 -89.5t11 -84q0 -6 -1 -32.5t-13 -62.5t-41.5 -80.5t-79 -87.5t-119 -79t-161.5 -54
v-4q83 -21 167 -60.5t164.5 -94t155.5 -122t140 -144.5q-3 -5 -11 -12.5t-17 -16t-17 -15.5t-12 -11q-103 117 -216 194t-226.5 124.5t-223 71.5t-207.5 36q-10 17 -19.5 32.5t-18.5 29.5q-15 24 -28.5 45.5t-16.5 26.5q4 6 11 16t13 15q45 -14 90.5 -21t90.5 -7
q121 0 231 46.5t191 135.5q35 39 49.5 80t15 61.5t0.5 24.5q0 34 -10 65.5t-26 53.5q-9 10 -21.5 20.5t-30.5 19.5t-41.5 15t-54.5 6q-21 0 -47 -3q-5 0 -5 -3q29 -29 29 -66q0 -8 -1 -17q-3 -14 -11.5 -39t-28 -55.5t-52 -64t-83.5 -64.5q-57 -29 -96 -42.5t-69 -13.5
q-38 0 -77 25t-62 54q-22 -45 -58.5 -96.5t-82 -96.5t-98 -76t-105.5 -34q-33 0 -64 12.5t-54 36.5q-21 22 -35 44t-23 51t-12.5 70.5t-3.5 102.5q0 140 1.5 290.5t1.5 287.5h-203l-56 61zM244 1112q6 -30 19.5 -56.5t29 -48.5t32 -38.5t28.5 -26.5q46 -36 101.5 -52.5
t112.5 -27.5q23 -5 44.5 -17t38.5 -26q2 41 3.5 85.5t3 85.5t3 75.5t2.5 56.5h-418v-10zM280 335q5 -1 14 -1q48 0 115 52.5t136 153.5q21 31 37 63t20.5 54t4.5 36q0 13 -4 31t-26 34q-39 4 -85 16t-92 36t-86.5 63t-68.5 98l-3 -2v-347q0 -44 -0.5 -71t-0.5 -37
q0 -31 2.5 -64.5t10.5 -64.5t26 -50zM741 724v-61q0 -37 5.5 -59t21.5 -44q5 -1 9.5 -1h9.5q39 0 78 16.5t72.5 41t58.5 52t35 49.5q12 23 15 39.5t3 23.5q0 17 -9 30q-12 9 -32 13t-44 6.5t-51 5.5t-54 11q-38 11 -67 37t-49 60q-1 -60 -1.5 -119t-0.5 -101z" />
    <glyph glyph-name="bn_c_ch_uniA9AB" horiz-adv-x="1581" 
d="M-112 1183l15 25h1605l58 -58l-17 -28h-807v-66q19 -48 51 -74.5t69 -40.5t73.5 -19t64.5 -9q5 -1 10.5 -1.5t10.5 -0.5q32 0 68.5 7.5t78.5 7.5q41 0 86 -13.5t94 -53.5q47 -36 75 -81.5t39 -89.5t11 -84q0 -6 -1 -32.5t-13 -62.5t-41.5 -80.5t-79 -87.5t-119 -79
t-161.5 -54v-4q83 -21 167 -60.5t164.5 -94t155.5 -122t140 -144.5q-3 -5 -11 -12.5t-17 -16t-17 -15.5t-12 -11q-46 54 -93 97t-98 79q0 -51 1.5 -119.5t5.5 -146.5q-7 -7 -18 -15t-16 -13q-3 2 -11.5 7t-18.5 11t-18 11.5t-11 7.5q-13 36 -33 69.5t-47 54.5
q-33 20 -75.5 26.5t-90.5 6.5q-41 0 -81.5 -3t-78.5 -6q-17 -1 -33.5 -1.5t-32.5 -0.5q-110 0 -183.5 24t-112.5 69q-51 60 -63.5 123t-12.5 106q0 45 9 92q4 -2 14.5 -6t21.5 -9t21.5 -10.5t14.5 -10.5q-3 -25 -3 -52q0 -14 1.5 -41.5t18.5 -72.5q30 -46 95.5 -68.5
t174.5 -22.5q40 0 85 3q17 1 32.5 1.5t30.5 0.5q52 0 98.5 -6t87.5 -22t76 -43t65 -69q-5 55 -8 100t-5 91q-75 45 -151.5 76.5t-150.5 52.5t-145 34t-135 21q-10 17 -19.5 32.5t-18.5 29.5q-15 24 -28.5 45.5t-16.5 26.5q4 6 11 16t13 15q45 -14 90.5 -21t90.5 -7
q121 0 231 46.5t191 135.5q35 39 49.5 80t15 61.5t0.5 24.5q0 34 -10 65.5t-26 53.5q-9 10 -21.5 20.5t-30.5 19.5t-41.5 15t-54.5 6q-21 0 -47 -3q-5 0 -5 -3q29 -29 29 -66q0 -8 -1 -17q-3 -14 -11.5 -39t-28 -55.5t-52 -64t-83.5 -64.5q-57 -29 -96 -42.5t-69 -13.5
q-26 0 -48 9.5t-45 27.5q-28 19 -47 43q-22 -44 -58.5 -96t-82.5 -97t-98 -76.5t-105 -34.5q-33 0 -64 12.5t-54 36.5q-21 22 -35.5 44t-23 51t-12.5 70.5t-4 102.5q0 140 1.5 290.5t1.5 287.5h-198zM349 942q46 -36 101 -52.5t112 -27.5q24 -5 46 -17.5t39 -26.5
q2 41 3.5 85t3 85.5t3 76.5t2.5 57h-419v-10q6 -31 19 -57.5t29 -48t32.5 -38t28.5 -26.5zM275 335q5 -1 15 -1q48 0 114.5 53t135.5 153q21 31 37 63t20.5 54t4.5 36q0 13 -4 31t-25 34q-39 4 -85 16t-92 36t-86.5 63.5t-68.5 97.5l-3 -2v-347q0 -44 -0.5 -71.5t-0.5 -39.5
q0 -30 2 -63t10 -63.5t26 -49.5zM738 724v-61q0 -37 5.5 -59t21.5 -44q5 -1 9.5 -1h9.5q39 0 78 16.5t72.5 41t58.5 52t35 49.5q12 23 15 39.5t3 23.5q0 17 -9 30q-12 9 -32 13t-44 6.5t-51 5.5t-54 11q-38 11 -67 37t-49 60q-1 -60 -1.5 -119t-0.5 -101z" />
    <glyph glyph-name="bn_c_ch_uniA9A7" horiz-adv-x="1593" 
d="M-97 1208h1607l58 -58l-17 -28h-808v-67q19 -47 51.5 -73.5t69 -40.5t73 -19t63.5 -9q5 -1 10.5 -1.5t11.5 -0.5q32 0 68.5 7.5t78.5 7.5q41 0 86 -13.5t94 -53.5q47 -36 75 -81.5t39 -89.5t11 -84q0 -6 -1 -32.5t-13 -62.5t-41.5 -80.5t-79 -87.5t-119 -79t-161.5 -54
v-4q83 -21 167 -60.5t164.5 -94t155.5 -122t140 -144.5q-3 -5 -11 -12.5t-17 -16t-17 -15.5t-12 -11q-57 64 -116 115t-120 93q0 -76 -0.5 -129.5t-0.5 -92.5t0.5 -66t2.5 -51q2 -14 3.5 -28t5.5 -31l-34 -28q-15 11 -35 26.5t-31 28.5l-1 2q-16 51 -47 85.5t-71.5 56.5
t-87.5 31.5t-96 9.5q-8 11 -18.5 26t-21 30.5t-21 30t-18.5 24.5q51 57 124 103t167 71q-121 54 -238 80t-220 39q-11 17 -20.5 32.5t-17.5 29.5q-14 24 -27.5 45.5t-16.5 26.5q4 6 11 16t12 15q88 -28 182 -28q121 0 231.5 46.5t190.5 135.5q35 39 49.5 80t15 61t0.5 21
q0 36 -10.5 68t-25.5 55q-9 10 -21.5 20.5t-30.5 19.5t-41.5 15t-54.5 6q-21 0 -47 -3q-5 0 -5 -3q29 -31 29 -69q0 -7 -1 -14q-3 -14 -11.5 -39t-28 -55.5t-52 -63.5t-83.5 -65q-57 -29 -96 -42.5t-69 -13.5q-18 0 -38 7t-39 18.5t-35 25.5t-27 29q-22 -45 -58.5 -97
t-82.5 -97t-98.5 -76t-105.5 -34q-33 0 -64 12.5t-54 36.5q-21 22 -35 43.5t-23 51t-12.5 71t-3.5 102.5q0 140 1.5 290.5t1.5 287.5h-200l-56 61zM242 1122v-10q6 -31 19 -57.5t28.5 -48t32 -37.5t28.5 -27q48 -36 102.5 -52.5t111.5 -27.5q23 -5 45 -17.5t39 -26.5
q1 41 3 85.5t3.5 85.5t3 76t1.5 57h-417zM277 335q5 -1 15 -1q48 0 114.5 53t135.5 153q21 31 37 63t20.5 54t4.5 36q0 13 -4 31t-25 34q-39 4 -85.5 16t-92 36t-86 63.5t-68.5 97.5l-4 -2v-347q0 -43 -0.5 -68.5t-0.5 -32.5q0 -35 2.5 -70t10.5 -66t26 -50zM739 724v-61
q0 -37 5.5 -59t21.5 -44q6 -1 18 -1q39 0 78 16.5t73 41t59 52t35 49.5q12 23 15 39.5t3 23.5q0 17 -9 30q-13 9 -33 13t-44 6.5t-50.5 5.5t-53.5 11q-38 11 -67 36.5t-49 59.5q-1 -60 -1.5 -118.5t-0.5 -100.5zM1106 -193q76 -24 120 -62.5t68 -75.5l8 4q-2 29 -4 64.5
t-2 65.5q0 45 1 89t2 80q-42 -11 -80.5 -27.5t-71 -35t-57.5 -38t-41 -36.5z" />
    <glyph glyph-name="bn_c_uniA99A" horiz-adv-x="1782" 
d="M-97 1208h1798l58 -58l-18 -28h-1468q12 -46 40 -77t47 -46q37 -28 82.5 -40t90.5 -20q13 -3 29.5 -10.5t32 -18t29.5 -23t21 -24.5l27 29q21 21 46.5 44t54 42t59.5 31t64 12q22 0 41 -6q45 -17 81 -50t48 -84q3 -20 4 -45t1 -53v-114q21 55 54 108t77.5 94.5t99.5 67
t119 25.5q48 0 89 -17t72 -47t50.5 -69.5t24.5 -84.5q2 -14 2 -28q0 -3 -0.5 -14t-5.5 -33q-5 -33 -15.5 -57t-23 -43t-25 -33t-20.5 -26q37 -37 65 -87.5t28 -116.5q0 -43 -15.5 -82.5t-44.5 -69.5t-70.5 -48t-92.5 -18q-67 0 -124.5 29t-104.5 75t-82 104t-56 115
q1 -16 1 -31v-105q0 -10 0.5 -39.5t1.5 -66.5t1.5 -76.5t0.5 -69.5q0 -19 1.5 -43t3.5 -41q-6 -3 -16.5 -8.5t-18.5 -8.5q-8 9 -18.5 22.5t-22 27.5t-22 27.5t-17.5 21.5q-34 75 -101.5 108t-182.5 33q-28 0 -59 -1.5t-66 -5.5q-26 -3 -50 -4t-47 -1q-129 0 -219 39.5
t-147 113.5q-9 13 -23 35.5t-21 39.5q-15 38 -23.5 79.5t-9.5 68t-1 36.5q0 31 4 67.5t15 73.5q6 -2 16 -9t20.5 -15t19.5 -16t14 -12q-9 -43 -9 -85q0 -77 32 -147q27 -46 64.5 -75t81.5 -45.5t93 -22t101 -5.5q21 0 42 0.5t43 1.5q14 1 29 1h29q63 0 120 -8t105.5 -29
t87 -57t62.5 -93l4 4q-3 20 -4 52t-1 58q-1 104 -1 208q0 51 0.5 154.5t0.5 259.5q0 47 -7.5 66t-20.5 29q-12 13 -33 13q-23 0 -52.5 -14t-60.5 -37t-61 -54t-52.5 -65t-34 -66.5t-11.5 -60.5v-9q12 4 29 4q30 0 57 -20t27 -67q-1 -54 -37 -80.5t-85 -26.5q-38 0 -71 26.5
t-47 81.5l-15 -15q-37 -37 -79.5 -60t-84.5 -26q-25 0 -51.5 9t-43.5 29q-17 17 -28.5 34.5t-19 41t-11 55t-3.5 76.5q0 105 0.5 217.5t1.5 215.5h-248l-56 61zM270 681q0 -48 5.5 -88t28.5 -61q4 -1 12 -1q36 0 90.5 39.5t109.5 116.5q36 49 43 75t7 36q0 28 -24 50
q-32 3 -69 11.5t-74 26.5t-69.5 47t-55.5 74l-4 -1v-325zM1432 197q42 3 73.5 23.5t51 50t23.5 53.5t4 38q0 19 -5 38q-9 17 -23.5 32.5t-40.5 27.5q-18 -17 -38 -28.5t-55 -11.5q-51 0 -78.5 34t-27.5 83q0 19 8 36.5t21.5 31t32 22t39.5 8.5q26 0 47 -11t29 -19
q24 10 43.5 33t31.5 51.5t13 46t1 22.5q0 26 -10 49q-19 29 -56.5 46t-85.5 17q-64 0 -120.5 -31t-101.5 -79t-77.5 -107t-48.5 -115q26 -72 59.5 -134.5t74.5 -108.5t91.5 -72t111.5 -26h13z" />
    <glyph glyph-name="bn_j_uniA997" horiz-adv-x="2018" 
d="M-90 1208h2026l59 -58l-18 -28h-1299l-4 -2t-5 -2q0 -39 22 -66.5t59.5 -44t86.5 -24t103 -7.5q44 0 88 4.5t86 12t79.5 17.5t66.5 22v-2l1 -2v-2q16 -17 30 -30t28 -24t28.5 -21t31.5 -22q62 -53 141 -71t158 -18q52 1 104 10t89 23q16 -13 31 -31t28.5 -37.5t24 -39
t17.5 -35.5q-57 -73 -94.5 -164t-48 -168t-10.5 -133q0 -49 9 -128t51 -185v-1q0 -4 -9 -8t-21.5 -7t-25 -5t-17.5 -3q-36 90 -55 188t-19 199q0 5 0.5 60.5t24.5 163t75 211.5q-55 -6 -106 -6q-79 0 -147.5 14t-125.5 38t-103.5 55.5t-81.5 65.5q-11 -14 -21.5 -26
t-20.5 -23q-33 -37 -59 -78.5t-41 -83t-16.5 -64t-1.5 -28.5q0 -32 11 -59q35 -25 72 -25q52 0 100.5 41.5t83.5 103.5l36 19q16 -8 49 -28.5t59 -43.5q14 -19 34 -45.5t37 -61.5t26 -72.5t9 -71.5q0 -17 -2 -34q-5 -48 -25 -101t-58.5 -97t-96 -71.5t-134.5 -27.5h-6
q-81 1 -147.5 31.5t-118 79.5t-87 111.5t-53.5 126.5q-42 -106 -124 -158t-194 -52q-113 1 -210.5 58.5t-170.5 162.5t-117 252.5t-50 328.5l50 4q8 -35 19 -78t26 -106q4 -35 16 -82.5t33.5 -98.5t51.5 -101.5t70.5 -93t90.5 -73t111 -40.5q14 -2 27 -3t26 -1q77 0 135 32
t92.5 82t41.5 90.5t7 61.5q0 38 -12 74q-13 24 -34 39.5t-35 17.5q-11 -12 -27 -31t-38.5 -38.5t-51.5 -36.5t-65 -24q-11 -3 -23 -4t-23 -1q-55 0 -101 24.5t-67 57.5q-16 24 -26 51t-15 55t-5 54t5 47q11 69 57.5 138.5t116.5 124.5h-533l-56 61zM404 697q38 -24 79 -24
q29 0 56.5 12t52.5 31.5t47 45t40 53.5l37 18q16 -8 46 -23.5t58 -42.5q13 -17 31 -41t34.5 -56t27 -70t10.5 -80v-8q17 -66 44 -128.5t68 -110.5t98 -77.5t133 -29.5q72 0 127 31t89 79.5t41 89t7 62.5q0 37 -11 74q-14 26 -37 44t-37 21q-11 -12 -25 -31t-34.5 -39
t-48 -38t-64.5 -28q-11 -3 -22.5 -4t-22.5 -1q-53 0 -95.5 24.5t-67.5 61.5q-32 51 -37 90t-5 60q0 30 6 56q11 46 33.5 93.5t57.5 92.5q-69 -9 -129 -9q-82 0 -147.5 14.5t-115.5 39t-84 56t-54 65.5q-18 -14 -36 -29.5t-35 -34.5q-77 -75 -101 -139.5t-24 -106.5
q0 -33 10 -63z" />
    <glyph glyph-name="bn_j_j_uniA9A7" horiz-adv-x="2099" 
d="M-112 1183l14 25h2115l58 -58l-17 -28h-1398q4 -42 28.5 -71.5t63.5 -47.5t88.5 -26.5t103.5 -8.5q81 0 162.5 16t144.5 43l1 1v0l5 2v-5l1 1q85 -93 188 -144t231 -51q26 0 55 4t57.5 10t54 13.5t44.5 14.5q32 -26 57.5 -63t39.5 -70q-41 -55 -64.5 -121.5t-29 -117.5
t-5.5 -83q0 -37 6.5 -88.5t29.5 -108.5v-105q0 -55 -0.5 -90.5t-0.5 -58.5v-102q0 -18 0.5 -40t1.5 -41.5t2.5 -34.5t3.5 -20q-5 -5 -15 -13.5t-16 -13.5q-12 9 -31.5 21t-30.5 23l-3 8q-21 49 -58 82.5t-83 53.5t-97 29t-100 9q-14 16 -35.5 42.5t-35.5 44.5q32 41 74.5 81
t93.5 77t109 67.5t119 51.5q-12 45 -21 99.5t-9 114t13 122t45 124.5q-34 -5 -66 -8t-63 -3q-76 0 -143.5 14.5t-125 38.5t-104.5 55.5t-83 66.5l-45 -46q-71 -77 -91.5 -139.5t-20.5 -100.5q0 -34 12 -64q35 -24 71 -24q29 0 58.5 13t56 34t49 48.5t38.5 57.5l37 16
q21 -8 47 -22t57 -37q14 -16 32 -38t33.5 -51t23 -59.5t7.5 -57.5q0 -15 -2 -31q-7 -45 -34 -94.5t-73 -91t-109 -67t-140 -25.5h-6q-79 1 -140.5 20.5t-108 52.5t-79 77.5t-53.5 95.5q-41 -106 -123.5 -161t-195.5 -55q-117 1 -214.5 58t-169.5 160.5t-114.5 250.5
t-48.5 328l50 5q8 -35 18.5 -78t25.5 -106q4 -35 16 -82.5t33.5 -98t51.5 -101t70.5 -93t90.5 -72.5t111 -40q15 -2 29.5 -3.5t28.5 -1.5q77 0 134 33t91 83.5t40.5 91t6.5 61.5q0 38 -12 74q-13 25 -34 40.5t-35 17.5q-11 -12 -28 -31.5t-40.5 -40t-53 -38t-65.5 -24.5
q-21 -4 -46 -4q-55 0 -98.5 22.5t-65.5 55.5q-32 48 -38.5 88t-6.5 65t4 48q14 72 58 147.5t122 139.5h-531zM390 679q37 -23 77 -23q30 0 57.5 12.5t52.5 33t47 47t40 55.5l37 18q17 -8 47 -23.5t57 -42.5q12 -17 29 -40.5t33 -54t27.5 -67.5t12.5 -81q18 -61 45.5 -110.5
t67 -84.5t91.5 -54.5t118 -19.5q77 0 140 27.5t104 70t52.5 80t11.5 60.5q0 27 -10 52q-14 23 -32.5 38.5t-32.5 17.5q-25 -29 -50.5 -56t-54.5 -48t-62.5 -33.5t-74.5 -12.5q-55 0 -94.5 24t-61.5 54q-34 48 -40.5 91.5t-6.5 69.5q0 24 4 45q8 37 28 80t53 88
q-35 -6 -68 -8.5t-63 -2.5q-80 0 -143.5 17t-111.5 44t-81.5 61.5t-54.5 69.5q-49 -35 -84 -76q-35 -39 -60.5 -81t-39.5 -83.5t-15 -64t-1 -27.5q0 -33 10 -62zM1544 -5q63 -8 111 -26.5t83 -42t58 -49.5t37 -49l5 4q-4 35 -6 80t-2 74q0 51 1.5 107t3.5 101
q-43 -15 -86 -38.5t-81 -50.5t-70 -55.5t-54 -54.5z" />
    <glyph glyph-name="bn_j_jha" horiz-adv-x="1448" 
d="M-97 1208h1464l58 -58l-17 -28h-575q1 -1 6 -1q-47 -10 -107 -40q14 -32 32.5 -61.5t41.5 -49.5q56 -53 119 -76.5t139 -23.5q48 0 96.5 6t83.5 11q16 -13 30.5 -32t26.5 -39.5t22 -41t17 -36.5q-50 -59 -80 -123t-46.5 -131.5t-22 -137t-6.5 -139.5v-114
q0 -45 0.5 -104.5t3 -120t7 -116t12.5 -92.5q-6 -4 -17.5 -11t-19.5 -9q-11 8 -32 21t-31 27q-36 57 -91 109.5t-107 84.5v-83q0 -42 0.5 -74.5t2 -60t4.5 -52t8 -50.5q-4 -5 -16.5 -14t-20.5 -13q-6 4 -18.5 11t-26 14.5t-26 15t-19.5 13.5q-15 54 -58 101t-99.5 82
t-120 55t-119.5 20h-15q-11 16 -27.5 35.5t-33 39.5t-32 38.5t-25.5 32.5q32 28 79 66t111 80q-96 25 -175 88.5t-136.5 160t-91.5 223t-39 276.5l50 4q8 -33 19 -74t26 -101q12 -85 47 -170t90.5 -152t131.5 -109t171 -42q81 0 142 31.5t97.5 79.5t44 87.5t7.5 60.5
q0 35 -12 69q-15 24 -37.5 39t-37.5 17q-11 -11 -28 -29.5t-40.5 -37t-53.5 -35t-67 -23.5q-14 -2 -26.5 -3.5t-26.5 -1.5q-55 0 -102.5 22t-78.5 66q-26 42 -32 77.5t-6 57.5q0 25 5 49q7 36 26 77t53 86t85 93t122 97h-641l-56 61zM394 620q38 -24 81 -24q54 0 106.5 37
t100.5 100l39 18q17 -9 49 -24t61 -38q20 -23 41 -50.5t37.5 -60t24.5 -65.5t8 -64q0 -13 -1 -27q-3 -27 -11 -56t-22 -58q0 -72 2 -143.5t2 -152.5q32 -25 62 -51.5t55.5 -51.5t43.5 -47.5t26 -39.5l5 1q-2 17 -4.5 44t-2.5 58q-1 25 -2 72t-1.5 85.5t-0.5 62.5t0.5 58.5
t1.5 56.5q1 160 24.5 281.5t74.5 215.5h-8l-14 -1h-8q-93 0 -172.5 23t-144 61t-114 88.5t-82.5 104.5q-38 -25 -71.5 -52.5t-63.5 -56.5q-37 -36 -65.5 -75.5t-45.5 -79.5t-19 -63t-2 -31q0 -29 10 -55zM447 -35q41 -15 86 -33.5t92 -49t93.5 -76.5t90.5 -116l8 4
q-3 9 -5 25t-3 35t-1.5 38t-0.5 34v99q0 33 0.5 62t0.5 59t0.5 62t0.5 71q-11 -4 -21 -7t-20 -7q-16 -8 -31.5 -14.5t-31.5 -11.5q-75 -32 -141 -76t-117 -98z" />
    <glyph glyph-name="bn_j_uniA99A" horiz-adv-x="1697" 
d="M-112 1183l15 25h1713l58 -58l-18 -28h-763q-19 -5 -35 -10.5t-27 -10.5q-13 -42 -13 -86q0 -16 4 -54.5t25.5 -95.5t54.5 -106t68 -82q21 59 55 114t79.5 97t103 67t124.5 25q57 0 103.5 -23.5t79 -61.5t47 -81.5t14.5 -83.5v-15q-3 -41 -16 -72.5t-29.5 -55t-33 -40.5
t-26.5 -29q57 -40 86 -98.5t29 -119.5v-4q-3 -48 -21 -87.5t-49 -67.5t-72.5 -43.5t-90.5 -15.5q-64 0 -120.5 25t-102.5 66t-81.5 94t-58.5 109q-2 -63 -23.5 -124t-78.5 -107q-48 -38 -109.5 -60.5t-132.5 -22.5q-63 0 -129.5 20.5t-133.5 65.5q-86 57 -147 145.5
t-104.5 194t-72.5 222t-51 229.5q13 4 29 5.5t28 2.5q6 -19 14 -43l16.5 -49.5t18 -50t18.5 -44.5q18 -93 57 -192t100.5 -181t145.5 -135t193 -53q52 0 99.5 14.5t82.5 46.5q67 60 89 120t22 113q0 18 -2 35q-4 18 -13.5 33t-20.5 27t-22 20.5t-19 13.5q-31 -27 -67 -51.5
t-74 -43t-77 -29.5t-77 -11q-52 0 -98.5 24t-82.5 81q-36 59 -37.5 99t-1.5 47q0 67 30 138t97.5 137t171.5 109h-684zM447 618q35 -34 83 -34q33 0 69 14.5t71 38.5t68.5 54.5t62.5 61.5q8 0 17 3q-40 57 -66 127.5t-26 151.5v6q-87 -29 -151.5 -80.5t-102 -111.5
t-42 -97.5t-4.5 -50.5q0 -45 21 -83zM1361 199q42 4 71.5 26t45.5 52t17.5 50t1.5 26q0 27 -9 50q-11 15 -32 31t-45 23q-26 -21 -49.5 -28t-55.5 -7q-48 1 -78.5 32t-30.5 77q0 36 28 66.5t70 34.5q22 0 44.5 -5t42.5 -16q34 14 57.5 38.5t36 53t13.5 45.5t1 22q0 22 -7 40
q-21 29 -59.5 46t-85.5 17q-30 0 -61 -7t-63 -23q-42 -24 -78.5 -57.5t-65.5 -73t-50.5 -84t-32.5 -91.5q16 -60 47 -120.5t75 -109t100 -79.5t123 -31q7 0 14 0.5t15 1.5z" />
    <glyph glyph-name="bn_ny_uniA995" horiz-adv-x="1354" 
d="M26 947q0 43 18.5 86t53.5 77.5t87 56t119 21.5q68 0 125 -24.5t103.5 -62.5t82.5 -85.5t61 -94.5q-1 23 -2 50.5t-1 43.5v133q0 16 -0.5 31t-0.5 24q-5 11 -8.5 21.5t-6.5 15.5q9 2 27 11t28 11q17 -15 32.5 -31t27.5 -30l2 -26q1 -13 1.5 -30t1 -39.5t0.5 -54.5v-77
q0 -22 -2 -46.5t-4 -47.5q24 49 59 91t79 72.5t95.5 47.5t106.5 17q47 0 89 -25t72 -65.5t41 -81.5t11 -71q0 -21 -4 -41q-5 -31 -15 -53.5t-22 -40t-24.5 -31t-24.5 -25.5q48 -45 69 -95t21 -105v-5q0 -47 -16.5 -85.5t-46 -66.5t-69 -43t-85.5 -15q-57 1 -108 24.5t-94 61
t-76.5 85.5t-55.5 98v-292q0 -97 2 -156t6 -101q-1 -1 -6 -5q-5 -3 -9 -6l-7 -5l-8 -6q-6 -4 -8 -5q-7 6 -17 14l-21 17q-11 9 -20 17t-13 12q-24 70 -76 131.5t-118 107t-139.5 71.5t-142.5 26h-5l-9 -1h-5q-14 22 -29.5 45t-29 43t-23.5 34.5t-12 17.5q35 40 91.5 89
t129 98.5t158.5 95.5t179 80q-26 47 -59.5 85.5t-70.5 67t-75.5 45.5t-75.5 21q-36 0 -73.5 -10.5t-61.5 -40.5q-18 -24 -19.5 -39.5t-1.5 -22.5q0 -8 1 -13q10 -5 20 -11t18.5 -14.5t13.5 -21t5 -32.5q0 -39 -29.5 -66.5t-71.5 -27.5q-30 0 -55 13.5t-42.5 37t-27.5 56
t-10 70.5zM768 681l1 -1q18 -57 46 -112t68 -98.5t92.5 -70.5t118.5 -27q38 0 69.5 16t52.5 43t26.5 51.5t5.5 39.5q0 21 -7 44q-9 15 -23.5 28.5t-30.5 24.5q-17 -23 -43 -36t-52 -13q-51 0 -86 33t-35 84q0 24 8.5 45t23 36.5t33 24.5t38.5 9q18 0 39.5 -8t40.5 -22
q31 13 49.5 34.5t26.5 44t8 44.5q0 4 -1 19t-10 36q-17 25 -51 38.5t-76 13.5q-58 0 -111 -26.5t-97 -68.5t-76 -94t-47 -103q0 -7 -0.5 -14t-0.5 -15zM671 149q-2 23 -2 57q0 8 0.5 35t0.5 68v115q0 56 0.5 131.5t1.5 172.5q-148 -54 -246 -123t-164 -137
q54 -17 108.5 -42.5t107 -63.5t101.5 -90t92 -123z" />
    </font>
</defs>
</svg>
